SplineFontDB: 1.0
FontName: DejaVuSans-Oblique
FullName: DejaVu Sans Oblique
FamilyName: DejaVu Sans
Weight: Book
Copyright: Copyright (c) 2003 by Bitstream, Inc. All Rights Reserved.\nDejaVu changes are in public domain\n
Version: 1.15
ItalicAngle: -11
UnderlinePosition: -213
UnderlineWidth: 143
Ascent: 1556
Descent: 492
Order2: 1
NeedsXUIDChange: 1
FSType: 0
PfmFamily: 17
TTFWeight: 400
TTFWidth: 5
LineGap: 410
VLineGap: 0
Panose: 2 11 6 3 3 3 4 11 2 4
OS2TypoAscent: 1556
OS2TypoAOffset: 0
OS2TypoDescent: -492
OS2TypoDOffset: 0
OS2TypoLinegap: 0
OS2WinAscent: 1901
OS2WinAOffset: 0
OS2WinDescent: 483
OS2WinDOffset: 0
HheadAscent: 1901
HheadAOffset: 0
HheadDescent: -483
HheadDOffset: 0
OS2Vendor: 'PfEd'
ScriptLang: 2
 1 latn 1 dflt 
 1 DFLT 1 dflt 
TtfTable: prep 1036
\,q1Gs0;P*YU'CT1'=\F"0E%8XE+jTX>0mYrWB/H"/ub4W$MPDQ34#\"/YhrV#CIk3Wl,U"/.IP
TV#-dTU#\P9gJrT;ZiUH".^,.S<a8H$3Qar".9c(R!f(']*"Au"-cMG"dFE;PPtZIO[fS<I05U%
"-AQ_"d&]cNuJ1]rWA/Z"-!3]MuEg9M&lhXrW@uu",J]7L].C/('B3g"+pLSJc5b%rW@ZL"+L4O
I7kjiI:NG-rW@KZ"+#7)"a^.MH$ETuH+O0(J-:+@,mAO!"*d'6G9m?7rW@;/"*A&UEt/:mE?td/
A-6gj&d<8$")nkTDbWM$Du'QR5l^fcD>jWRrW?pO");O2"_qQMBhK`UBfZ?0:(%5=(^"D_%L$K#
"(i#FARkmR9gJqnQ31Xr"(G[I"_.H5@136G?Ps#TA-61F&-ZDY"'uN@>m^[=>7Ca@rW?@6"'SDb
"^72o=]c.;=XXAS%Kff/"'/F6"]kU)<E*6-<P&?5J-8hM,m@7R"&qMg;^DNDrW?"o/d5,O"&LTP
:JM9$:D<n+$Nj*r,m@"/"&)?6"\emt91fd"9-j[4&HbW("%Yoo"\AUp7hGhmrW>Ug"%<+j6UH2)
6iI0SI02e7"$l\b5PbIGq?&i<63TLN"$=R+3]9;.3`?,@r]kE)3.1lf2F7R*">'d863B+E"#TuZ
1HGUnq?&D["#'WU/cGi'rW=YR/HmXZ""Fia.0C+b.3epC*Wmc:%L"4j"""K[,ln>V,r,QJ$lB-n
I01\t3X$c-"!S-j"X:P\+Ti8Z+WCM+*t&5p%g*ras1gmg"<S!R*XMoi5Qi)=!uqJ*"WWg1)jURE
)'oG)A-3\d&d9.!!uMXQ(D\;#(I8-=,m+n]!u1_:'D_eD&K(`brW<`7&-WX`!tbG6&,lY@"Zces
Q3.R)(^1@s!t5PG"Ul4M$Od+ErW<E03X#eT!sSi="U=r."U$C\"Zc_g!tYV=/HZ(d!s/K1"TfMC
!=Ao05Qh',!s,n4A;-!D.k<,#.k<,#.k<,#.k<,#.k<,#.k<,#.k<,#.k<,#.k<,#.k<,#.k<,#
.k<,#.k<,#.k<,#.k<,#.k<,#.k<,#.k<,#.k<,#.k<,#.k<,#.k<,#.k<,#.k<+M.k<,#.k<,#
.k<,#.k<,#.k<,#.k<,#.k<,#.k<,#.k<,#.k<,#.k<,#.k<,#.k<,#.k<,#.k<,#.k<,#.k<,#

StartChar: .notdef
Encoding: 0 -1 0
AltUni: 0
Width: 1229
Flags: W
Fore
102 -362 m 1,0,-1
 102 1444 l 1,1,-1
 1126 1444 l 1,2,-1
 1126 -362 l 1,3,-1
 102 -362 l 1,0,-1
217 -248 m 1,4,-1
 1012 -248 l 1,5,-1
 1012 1329 l 1,6,-1
 217 1329 l 1,7,-1
 217 -248 l 1,4,-1
EndSplineSet
EndChar
StartChar: exclam
Encoding: 33 33 33
Width: 821
Flags: W
Fore
453 1493 m 1,0,-1
 655 1493 l 1,1,-1
 528 838 l 1,2,-1
 438 481 l 1,3,-1
 276 481 l 1,4,-1
 326 838 l 1,5,-1
 453 1493 l 1,0,-1
213 254 m 1,6,-1
 416 254 l 1,7,-1
 367 0 l 1,8,-1
 162 0 l 1,9,-1
 213 254 l 1,6,-1
EndSplineSet
EndChar
StartChar: quotedbl
Encoding: 34 34 34
Width: 942
Flags: W
Fore
367 1493 m 1,0,-1
 367 938 l 1,1,-1
 197 938 l 1,2,-1
 197 1493 l 1,3,-1
 367 1493 l 1,0,-1
745 1493 m 1,4,-1
 745 938 l 1,5,-1
 575 938 l 1,6,-1
 575 1493 l 1,7,-1
 745 1493 l 1,4,-1
EndSplineSet
EndChar
StartChar: numbersign
Encoding: 35 35 35
Width: 1716
Flags: W
Fore
897 1470 m 1,0,-1
 793 1055 l 1,1,-1
 1085 1055 l 1,2,-1
 1190 1470 l 1,3,-1
 1350 1470 l 1,4,-1
 1247 1055 l 1,5,-1
 1583 1055 l 1,6,-1
 1544 901 l 1,7,-1
 1208 901 l 1,8,-1
 1126 567 l 1,9,-1
 1466 567 l 1,10,-1
 1430 414 l 1,11,-1
 1087 414 l 1,12,-1
 983 0 l 1,13,-1
 823 0 l 1,14,-1
 926 414 l 1,15,-1
 633 414 l 1,16,-1
 530 0 l 1,17,-1
 369 0 l 1,18,-1
 473 414 l 1,19,-1
 143 414 l 1,20,-1
 180 567 l 1,21,-1
 510 567 l 1,22,-1
 594 901 l 1,23,-1
 258 901 l 1,24,-1
 297 1055 l 1,25,-1
 633 1055 l 1,26,-1
 735 1470 l 1,27,-1
 897 1470 l 1,0,-1
1047 901 m 1,28,-1
 756 901 l 1,29,-1
 672 567 l 1,30,-1
 965 567 l 1,31,-1
 1047 901 l 1,28,-1
EndSplineSet
EndChar
StartChar: dollar
Encoding: 36 36 36
Width: 1303
Flags: W
Fore
600 145 m 1,0,1
 739 151 739 151 820 215.5 c 128,-1,2
 901 280 901 280 901 383 c 0,3,4
 901 467 901 467 850 513 c 128,-1,5
 799 559 799 559 684 578 c 1,6,-1
 600 145 l 1,0,1
700 1180 m 1,7,8
 568 1166 568 1166 493 1102 c 128,-1,9
 418 1038 418 1038 418 938 c 0,10,11
 418 868 418 868 465.5 828.5 c 128,-1,12
 513 789 513 789 621 770 c 1,13,-1
 700 1180 l 1,7,8
1167 1262 m 1,14,-1
 1133 1081 l 1,15,16
 1047 1127 1047 1127 963.5 1152 c 128,-1,17
 880 1177 880 1177 801 1179 c 1,18,-1
 717 752 l 1,19,20
 901 723 901 723 997.5 637 c 128,-1,21
 1094 551 1094 551 1094 416 c 0,22,23
 1094 241 1094 241 951 126.5 c 128,-1,24
 808 12 808 12 571 0 c 1,25,-1
 512 -301 l 1,26,-1
 412 -301 l 1,27,-1
 471 0 l 1,28,29
 355 3 355 3 253 26.5 c 128,-1,30
 151 50 151 50 68 92 c 1,31,-1
 102 276 l 1,32,33
 194 214 194 214 294 180 c 128,-1,34
 394 146 394 146 500 142 c 1,35,-1
 588 598 l 1,36,37
 399 634 399 634 313 708.5 c 128,-1,38
 227 783 227 783 227 909 c 0,39,40
 227 1075 227 1075 364.5 1190 c 128,-1,41
 502 1305 502 1305 727 1323 c 1,42,-1
 774 1556 l 1,43,-1
 874 1556 l 1,44,-1
 830 1323 l 1,45,46
 920 1320 920 1320 1005.5 1304.5 c 128,-1,47
 1091 1289 1091 1289 1167 1262 c 1,14,-1
EndSplineSet
EndChar
StartChar: percent
Encoding: 37 37 37
Width: 1946
Flags: W
Fore
481 707 m 0,0,1
 345 707 345 707 265.5 795.5 c 128,-1,2
 186 884 186 884 186 1036 c 0,3,4
 186 1252 186 1252 302 1386 c 128,-1,5
 418 1520 418 1520 604 1520 c 0,6,7
 740 1520 740 1520 819.5 1430.5 c 128,-1,8
 899 1341 899 1341 899 1188 c 0,9,10
 899 974 899 974 783 840.5 c 128,-1,11
 667 707 667 707 481 707 c 0,0,1
739 1182 m 0,12,13
 739 1287 739 1287 700 1340 c 128,-1,14
 661 1393 661 1393 584 1393 c 0,15,16
 472 1393 472 1393 409 1296 c 128,-1,17
 346 1199 346 1199 346 1026 c 0,18,19
 346 934 346 934 386.5 884 c 128,-1,20
 427 834 427 834 502 834 c 0,21,22
 609 834 609 834 674 929 c 128,-1,23
 739 1024 739 1024 739 1182 c 0,12,13
1599 446 m 0,24,25
 1599 553 1599 553 1561 606 c 128,-1,26
 1523 659 1523 659 1446 659 c 0,27,28
 1335 659 1335 659 1271.5 561.5 c 128,-1,29
 1208 464 1208 464 1208 291 c 0,30,31
 1208 198 1208 198 1248.5 148 c 128,-1,32
 1289 98 1289 98 1364 98 c 0,33,34
 1471 98 1471 98 1535 193 c 128,-1,35
 1599 288 1599 288 1599 446 c 0,24,25
1343 -29 m 0,36,37
 1207 -29 1207 -29 1128 60 c 128,-1,38
 1049 149 1049 149 1049 301 c 0,39,40
 1049 517 1049 517 1164.5 650.5 c 128,-1,41
 1280 784 1280 784 1466 784 c 0,42,43
 1602 784 1602 784 1680.5 696 c 128,-1,44
 1759 608 1759 608 1759 455 c 0,45,46
 1759 240 1759 240 1643.5 105.5 c 128,-1,47
 1528 -29 1528 -29 1343 -29 c 0,36,37
1683 1520 m 1,48,-1
 449 -29 l 1,49,-1
 289 -29 l 1,50,-1
 1524 1520 l 1,51,-1
 1683 1520 l 1,48,-1
EndSplineSet
EndChar
StartChar: ampersand
Encoding: 38 38 38
Width: 1597
Flags: W
Fore
967 260 m 1,0,-1
 541 803 l 1,1,2
 420 715 420 715 357.5 616 c 128,-1,3
 295 517 295 517 295 414 c 0,4,5
 295 287 295 287 380.5 210 c 128,-1,6
 466 133 466 133 608 133 c 0,7,8
 702 133 702 133 793.5 165.5 c 128,-1,9
 885 198 885 198 967 260 c 1,0,-1
1507 801 m 1,10,11
 1462 642 1462 642 1388.5 510 c 128,-1,12
 1315 378 1315 378 1212 270 c 1,13,-1
 1421 0 l 1,14,-1
 1169 0 l 1,15,-1
 1063 139 l 1,16,17
 957 56 957 56 835 13.5 c 128,-1,18
 713 -29 713 -29 580 -29 c 0,19,20
 359 -29 359 -29 227.5 80 c 128,-1,21
 96 189 96 189 96 369 c 0,22,23
 96 523 96 523 188.5 660 c 128,-1,24
 281 797 281 797 463 913 c 1,25,26
 432 959 432 959 417.5 1006.5 c 128,-1,27
 403 1054 403 1054 403 1108 c 0,28,29
 403 1176 403 1176 426 1237 c 128,-1,30
 449 1298 449 1298 492 1348 c 0,31,32
 561 1430 561 1430 665 1475 c 128,-1,33
 769 1520 769 1520 889 1520 c 0,34,35
 967 1520 967 1520 1046 1502 c 128,-1,36
 1125 1484 1125 1484 1206 1448 c 1,37,-1
 1171 1266 l 1,38,39
 1096 1313 1096 1313 1021.5 1337.5 c 128,-1,40
 947 1362 947 1362 877 1362 c 0,41,42
 753 1362 753 1362 675.5 1297.5 c 128,-1,43
 598 1233 598 1233 598 1133 c 0,44,45
 598 1089 598 1089 617 1046 c 128,-1,46
 636 1003 636 1003 705 915 c 2,47,-1
 1112 395 l 1,48,49
 1187 474 1187 474 1240 576.5 c 128,-1,50
 1293 679 1293 679 1321 801 c 1,51,-1
 1507 801 l 1,10,11
EndSplineSet
EndChar
StartChar: quotesingle
Encoding: 39 39 39
Width: 563
Flags: W
Fore
367 1493 m 1,0,-1
 367 938 l 1,1,-1
 197 938 l 1,2,-1
 197 1493 l 1,3,-1
 367 1493 l 1,0,-1
EndSplineSet
EndChar
StartChar: parenleft
Encoding: 40 40 40
Width: 799
Flags: W
Fore
874 1554 m 1,0,1
 609 1223 609 1223 478.5 925.5 c 128,-1,2
 348 628 348 628 348 352 c 0,3,4
 348 194 348 194 386 38.5 c 128,-1,5
 424 -117 424 -117 500 -270 c 1,6,-1
 340 -270 l 1,7,8
 248 -98 248 -98 203 64.5 c 128,-1,9
 158 227 158 227 158 383 c 0,10,11
 158 680 158 680 295.5 971.5 c 128,-1,12
 433 1263 433 1263 711 1554 c 1,13,-1
 874 1554 l 1,0,1
EndSplineSet
EndChar
StartChar: parenright
Encoding: 41 41 41
Width: 799
Flags: W
Fore
-127 -270 m 1,0,1
 139 61 139 61 269 358.5 c 128,-1,2
 399 656 399 656 399 932 c 0,3,4
 399 1090 399 1090 361.5 1245.5 c 128,-1,5
 324 1401 324 1401 248 1554 c 1,6,-1
 408 1554 l 1,7,8
 500 1381 500 1381 545 1220 c 128,-1,9
 590 1059 590 1059 590 903 c 0,10,11
 590 605 590 605 451.5 311.5 c 128,-1,12
 313 18 313 18 37 -270 c 1,13,-1
 -127 -270 l 1,0,1
EndSplineSet
EndChar
StartChar: asterisk
Encoding: 42 42 42
Width: 1024
Flags: W
Fore
963 1247 m 1,0,-1
 604 1053 l 1,1,-1
 963 858 l 1,2,-1
 905 760 l 1,3,-1
 569 963 l 1,4,-1
 569 586 l 1,5,-1
 455 586 l 1,6,-1
 455 963 l 1,7,-1
 119 760 l 1,8,-1
 61 858 l 1,9,-1
 420 1053 l 1,10,-1
 61 1247 l 1,11,-1
 119 1346 l 1,12,-1
 455 1143 l 1,13,-1
 455 1520 l 1,14,-1
 569 1520 l 1,15,-1
 569 1143 l 1,16,-1
 905 1346 l 1,17,-1
 963 1247 l 1,0,-1
EndSplineSet
EndChar
StartChar: plus
Encoding: 43 43 43
Width: 1716
Flags: W
Fore
942 1284 m 1,0,-1
 942 727 l 1,1,-1
 1499 727 l 1,2,-1
 1499 557 l 1,3,-1
 942 557 l 1,4,-1
 942 0 l 1,5,-1
 774 0 l 1,6,-1
 774 557 l 1,7,-1
 217 557 l 1,8,-1
 217 727 l 1,9,-1
 774 727 l 1,10,-1
 774 1284 l 1,11,-1
 942 1284 l 1,0,-1
EndSplineSet
EndChar
StartChar: comma
Encoding: 44 44 44
Width: 651
Flags: W
Fore
184 254 m 1,0,-1
 395 254 l 1,1,-1
 362 82 l 1,2,-1
 135 -238 l 1,3,-1
 6 -238 l 1,4,-1
 150 82 l 1,5,-1
 184 254 l 1,0,-1
EndSplineSet
EndChar
StartChar: hyphen
Encoding: 45 45 45
Width: 739
Flags: W
Fore
125 643 m 1,0,-1
 664 643 l 1,1,-1
 633 479 l 1,2,-1
 92 479 l 1,3,-1
 125 643 l 1,0,-1
EndSplineSet
KernsSLIFO: 356 -149 0 0 221 -149 0 0 376 -149 0 0 89 -149 0 0 88 -73 0 0 87 -36 0 0 86 -83 0 0 84 -149 0 0
EndChar
StartChar: period
Encoding: 46 46 46
Width: 651
Flags: W
Fore
168 254 m 1,0,-1
 379 254 l 1,1,-1
 330 0 l 1,2,-1
 119 0 l 1,3,-1
 168 254 l 1,0,-1
EndSplineSet
EndChar
StartChar: slash
Encoding: 47 47 47
Width: 690
Flags: W
Fore
696 1493 m 1,0,-1
 874 1493 l 1,1,-1
 27 -190 l 1,2,-1
 -150 -190 l 1,3,-1
 696 1493 l 1,0,-1
EndSplineSet
EndChar
StartChar: zero
Encoding: 48 48 48
Width: 1303
Flags: W
Fore
782 1520 m 0,0,1
 985 1520 985 1520 1092.5 1385 c 128,-1,2
 1200 1250 1200 1250 1200 997 c 0,3,4
 1200 805 1200 805 1149.5 615.5 c 128,-1,5
 1099 426 1099 426 1008 276 c 1,6,7
 915 126 915 126 789.5 48.5 c 128,-1,8
 664 -29 664 -29 512 -29 c 0,9,10
 316 -29 316 -29 209 107 c 128,-1,11
 102 243 102 243 102 494 c 0,12,13
 102 684 102 684 153.5 874.5 c 128,-1,14
 205 1065 205 1065 297 1214 c 0,15,16
 389 1364 389 1364 512.5 1442 c 128,-1,17
 636 1520 636 1520 782 1520 c 0,0,1
770 1360 m 0,18,19
 694 1360 694 1360 625.5 1319.5 c 128,-1,20
 557 1279 557 1279 502 1200 c 0,21,22
 410 1068 410 1068 355.5 870.5 c 128,-1,23
 301 673 301 673 301 465 c 0,24,25
 301 300 301 300 359.5 215.5 c 128,-1,26
 418 131 418 131 532 131 c 0,27,28
 612 131 612 131 680 171.5 c 128,-1,29
 748 212 748 212 803 291 c 0,30,31
 894 422 894 422 947.5 619.5 c 128,-1,32
 1001 817 1001 817 1001 1026 c 0,33,34
 1001 1191 1001 1191 942.5 1275.5 c 128,-1,35
 884 1360 884 1360 770 1360 c 0,18,19
EndSplineSet
EndChar
StartChar: one
Encoding: 49 49 49
Width: 1303
Flags: W
Fore
133 170 m 1,0,-1
 463 170 l 1,1,-1
 686 1319 l 1,2,-1
 313 1247 l 1,3,-1
 348 1421 l 1,4,-1
 719 1493 l 1,5,-1
 922 1493 l 1,6,-1
 664 170 l 1,7,-1
 993 170 l 1,8,-1
 961 0 l 1,9,-1
 100 0 l 1,10,-1
 133 170 l 1,0,-1
EndSplineSet
EndChar
StartChar: two
Encoding: 50 50 50
Width: 1303
Flags: W
Fore
944 721 m 2,0,-1
 299 168 l 1,1,-1
 1012 168 l 1,2,-1
 977 0 l 1,3,-1
 8 0 l 1,4,-1
 41 170 l 1,5,-1
 715 748 l 1,6,7
 850 865 850 865 906.5 953.5 c 128,-1,8
 963 1042 963 1042 963 1135 c 0,9,10
 963 1232 963 1232 895 1293 c 128,-1,11
 827 1354 827 1354 717 1354 c 0,12,13
 622 1354 622 1354 506 1320 c 128,-1,14
 390 1286 390 1286 258 1221 c 1,15,-1
 295 1421 l 1,16,17
 419 1470 419 1470 532 1495 c 128,-1,18
 645 1520 645 1520 741 1520 c 0,19,20
 937 1520 937 1520 1056.5 1416 c 128,-1,21
 1176 1312 1176 1312 1176 1143 c 0,22,23
 1176 1029 1176 1029 1119 925.5 c 128,-1,24
 1062 822 1062 822 944 721 c 2,0,-1
EndSplineSet
EndChar
StartChar: three
Encoding: 51 51 51
Width: 1303
Flags: W
Fore
324 1456 m 1,0,1
 434 1488 434 1488 537.5 1504 c 128,-1,2
 641 1520 641 1520 741 1520 c 0,3,4
 939 1520 939 1520 1055 1432 c 128,-1,5
 1171 1344 1171 1344 1171 1196 c 0,6,7
 1171 1051 1171 1051 1079.5 947 c 128,-1,8
 988 843 988 843 827 805 c 1,9,10
 953 769 953 769 1012 693 c 128,-1,11
 1071 617 1071 617 1071 492 c 0,12,13
 1071 372 1071 372 1013.5 267 c 128,-1,14
 956 162 956 162 848 86 c 0,15,16
 766 28 766 28 652 -0.5 c 128,-1,17
 538 -29 538 -29 389 -29 c 0,18,19
 295 -29 295 -29 199 -10.5 c 128,-1,20
 103 8 103 8 4 45 c 1,21,-1
 41 236 l 1,22,23
 135 184 135 184 230.5 158.5 c 128,-1,24
 326 133 326 133 426 133 c 0,25,26
 623 133 623 133 745.5 234.5 c 128,-1,27
 868 336 868 336 868 498 c 0,28,29
 868 602 868 602 790 658.5 c 128,-1,30
 712 715 712 715 567 715 c 2,31,-1
 393 715 l 1,32,-1
 424 879 l 1,33,-1
 608 879 l 2,34,35
 774 879 774 879 869.5 955 c 128,-1,36
 965 1031 965 1031 965 1161 c 0,37,38
 965 1255 965 1255 895 1306.5 c 128,-1,39
 825 1358 825 1358 698 1358 c 0,40,41
 602 1358 602 1358 501.5 1337.5 c 128,-1,42
 401 1317 401 1317 293 1276 c 1,43,-1
 324 1456 l 1,0,1
EndSplineSet
EndChar
StartChar: four
Encoding: 52 52 52
Width: 1303
Flags: W
Fore
881 1493 m 1,0,-1
 1135 1493 l 1,1,-1
 944 520 l 1,2,-1
 1157 520 l 1,3,-1
 1124 352 l 1,4,-1
 911 352 l 1,5,-1
 844 0 l 1,6,-1
 643 0 l 1,7,-1
 711 352 l 1,8,-1
 37 352 l 1,9,-1
 76 547 l 1,10,-1
 881 1493 l 1,0,-1
899 1317 m 1,11,-1
 233 520 l 1,12,-1
 743 520 l 1,13,-1
 899 1317 l 1,11,-1
EndSplineSet
EndChar
StartChar: five
Encoding: 53 53 53
Width: 1303
Flags: W
Fore
1190 1493 m 1,0,-1
 1159 1325 l 1,1,-1
 541 1325 l 1,2,-1
 469 956 l 1,3,4
 515 971 515 971 562.5 978 c 128,-1,5
 610 985 610 985 659 985 c 0,6,7
 866 985 866 985 986 874 c 128,-1,8
 1106 763 1106 763 1106 573 c 0,9,10
 1106 440 1106 440 1044.5 318 c 128,-1,11
 983 196 983 196 870 104 c 0,12,13
 790 40 790 40 674.5 5.5 c 128,-1,14
 559 -29 559 -29 422 -29 c 0,15,16
 332 -29 332 -29 238 -13 c 128,-1,17
 144 3 144 3 41 35 c 1,18,-1
 78 223 l 1,19,20
 170 178 170 178 262.5 155.5 c 128,-1,21
 355 133 355 133 449 133 c 0,22,23
 644 133 644 133 771.5 250 c 128,-1,24
 899 367 899 367 899 543 c 0,25,26
 899 673 899 673 815.5 745 c 128,-1,27
 732 817 732 817 582 817 c 0,28,29
 503 817 503 817 417.5 798.5 c 128,-1,30
 332 780 332 780 242 743 c 1,31,-1
 387 1493 l 1,32,-1
 1190 1493 l 1,0,-1
EndSplineSet
EndChar
StartChar: six
Encoding: 54 54 54
Width: 1303
Flags: W
Fore
940 553 m 0,0,1
 940 680 940 680 875 753.5 c 128,-1,2
 810 827 810 827 698 827 c 0,3,4
 543 827 543 827 437.5 707.5 c 128,-1,5
 332 588 332 588 332 412 c 0,6,7
 332 280 332 280 396.5 205.5 c 128,-1,8
 461 131 461 131 575 131 c 0,9,10
 731 131 731 131 835.5 253.5 c 128,-1,11
 940 376 940 376 940 553 c 0,0,1
1212 1458 m 1,12,-1
 1178 1274 l 1,13,14
 1120 1312 1120 1312 1045 1332 c 128,-1,15
 970 1352 970 1352 885 1352 c 0,16,17
 678 1352 678 1352 552.5 1222 c 128,-1,18
 427 1092 427 1092 365 815 c 1,19,20
 438 900 438 900 534.5 943.5 c 128,-1,21
 631 987 631 987 743 987 c 0,22,23
 926 987 926 987 1034.5 881.5 c 128,-1,24
 1143 776 1143 776 1143 598 c 0,25,26
 1143 452 1143 452 1089.5 326.5 c 128,-1,27
 1036 201 1036 201 934 106 c 0,28,29
 864 41 864 41 771 6 c 128,-1,30
 678 -29 678 -29 573 -29 c 0,31,32
 367 -29 367 -29 248 102 c 128,-1,33
 129 233 129 233 129 461 c 0,34,35
 129 673 129 673 183.5 869.5 c 128,-1,36
 238 1066 238 1066 336 1210 c 0,37,38
 439 1362 439 1362 585.5 1441 c 128,-1,39
 732 1520 732 1520 909 1520 c 0,40,41
 987 1520 987 1520 1063 1504.5 c 128,-1,42
 1139 1489 1139 1489 1212 1458 c 1,12,-1
EndSplineSet
EndChar
StartChar: seven
Encoding: 55 55 55
Width: 1303
Flags: W
Fore
262 1493 m 1,0,-1
 1284 1493 l 1,1,-1
 1266 1407 l 1,2,-1
 412 0 l 1,3,-1
 190 0 l 1,4,-1
 997 1323 l 1,5,-1
 229 1323 l 1,6,-1
 262 1493 l 1,0,-1
EndSplineSet
EndChar
StartChar: eight
Encoding: 56 56 56
Width: 1303
Flags: W
Fore
911 453 m 0,0,1
 911 566 911 566 832 637.5 c 128,-1,2
 753 709 753 709 625 709 c 0,3,4
 469 709 469 709 367.5 615.5 c 128,-1,5
 266 522 266 522 266 379 c 0,6,7
 266 265 266 265 343.5 198 c 128,-1,8
 421 131 421 131 553 131 c 0,9,10
 710 131 710 131 810.5 222 c 128,-1,11
 911 313 911 313 911 453 c 0,0,1
1014 1149 m 0,12,13
 1014 1244 1014 1244 944 1302 c 128,-1,14
 874 1360 874 1360 758 1360 c 0,15,16
 621 1360 621 1360 532.5 1283 c 128,-1,17
 444 1206 444 1206 444 1090 c 0,18,19
 444 990 444 990 513.5 929 c 128,-1,20
 583 868 583 868 698 868 c 0,21,22
 836 868 836 868 925 947.5 c 128,-1,23
 1014 1027 1014 1027 1014 1149 c 0,12,13
877 786 m 1,24,25
 990 743 990 743 1050 656 c 128,-1,26
 1110 569 1110 569 1110 446 c 0,27,28
 1110 239 1110 239 950 105 c 128,-1,29
 790 -29 790 -29 537 -29 c 0,30,31
 322 -29 322 -29 195 76.5 c 128,-1,32
 68 182 68 182 68 358 c 0,33,34
 68 518 68 518 177 642.5 c 128,-1,35
 286 767 286 767 461 801 c 1,36,37
 356 837 356 837 301 912.5 c 128,-1,38
 246 988 246 988 246 1096 c 0,39,40
 246 1277 246 1277 396.5 1398.5 c 128,-1,41
 547 1520 547 1520 778 1520 c 0,42,43
 971 1520 971 1520 1092.5 1421.5 c 128,-1,44
 1214 1323 1214 1323 1214 1171 c 0,45,46
 1214 1039 1214 1039 1123.5 935.5 c 128,-1,47
 1033 832 1033 832 877 786 c 1,24,25
EndSplineSet
EndChar
StartChar: nine
Encoding: 57 57 57
Width: 1303
Flags: W
Fore
90 33 m 1,0,-1
 127 217 l 1,1,2
 185 179 185 179 259 159 c 128,-1,3
 333 139 333 139 418 139 c 0,4,5
 625 139 625 139 751.5 270 c 128,-1,6
 878 401 878 401 940 678 c 1,7,8
 866 593 866 593 768.5 548.5 c 128,-1,9
 671 504 671 504 559 504 c 0,10,11
 377 504 377 504 269.5 609.5 c 128,-1,12
 162 715 162 715 162 893 c 0,13,14
 162 1039 162 1039 215 1164.5 c 128,-1,15
 268 1290 268 1290 371 1384 c 1,16,17
 441 1450 441 1450 533 1485 c 128,-1,18
 625 1520 625 1520 729 1520 c 0,19,20
 936 1520 936 1520 1056 1388.5 c 128,-1,21
 1176 1257 1176 1257 1176 1030 c 0,22,23
 1176 819 1176 819 1120.5 622 c 128,-1,24
 1065 425 1065 425 967 281 c 0,25,26
 863 129 863 129 717 50 c 128,-1,27
 571 -29 571 -29 393 -29 c 0,28,29
 316 -29 316 -29 239.5 -13.5 c 128,-1,30
 163 2 163 2 90 33 c 1,0,-1
362 940 m 0,31,32
 362 813 362 813 428 738.5 c 128,-1,33
 494 664 494 664 606 664 c 0,34,35
 761 664 761 664 866 783 c 128,-1,36
 971 902 971 902 971 1079 c 0,37,38
 971 1211 971 1211 906 1285.5 c 128,-1,39
 841 1360 841 1360 727 1360 c 0,40,41
 572 1360 572 1360 467 1238.5 c 128,-1,42
 362 1117 362 1117 362 940 c 0,31,32
EndSplineSet
EndChar
StartChar: colon
Encoding: 58 58 58
Width: 690
Flags: W
Fore
313 1059 m 1,0,-1
 524 1059 l 1,1,-1
 475 805 l 1,2,-1
 264 805 l 1,3,-1
 313 1059 l 1,0,-1
156 254 m 1,4,-1
 367 254 l 1,5,-1
 317 0 l 1,6,-1
 106 0 l 1,7,-1
 156 254 l 1,4,-1
EndSplineSet
EndChar
StartChar: semicolon
Encoding: 59 59 59
Width: 690
Flags: W
Fore
180 254 m 1,0,-1
 391 254 l 1,1,-1
 356 82 l 1,2,-1
 131 -238 l 1,3,-1
 2 -238 l 1,4,-1
 145 82 l 1,5,-1
 180 254 l 1,0,-1
336 1059 m 1,6,-1
 547 1059 l 1,7,-1
 498 805 l 1,8,-1
 287 805 l 1,9,-1
 336 1059 l 1,6,-1
EndSplineSet
EndChar
StartChar: less
Encoding: 60 60 60
Width: 1716
Flags: W
Fore
1499 1008 m 1,0,-1
 467 641 l 1,1,-1
 1499 276 l 1,2,-1
 1499 94 l 1,3,-1
 217 559 l 1,4,-1
 217 725 l 1,5,-1
 1499 1190 l 1,6,-1
 1499 1008 l 1,0,-1
EndSplineSet
EndChar
StartChar: equal
Encoding: 61 61 61
Width: 1716
Flags: W
Fore
217 930 m 1,0,-1
 1499 930 l 1,1,-1
 1499 762 l 1,2,-1
 217 762 l 1,3,-1
 217 930 l 1,0,-1
217 522 m 1,4,-1
 1499 522 l 1,5,-1
 1499 352 l 1,6,-1
 217 352 l 1,7,-1
 217 522 l 1,4,-1
EndSplineSet
EndChar
StartChar: greater
Encoding: 62 62 62
Width: 1716
Flags: W
Fore
217 1008 m 1,0,-1
 217 1190 l 1,1,-1
 1499 725 l 1,2,-1
 1499 559 l 1,3,-1
 217 94 l 1,4,-1
 217 276 l 1,5,-1
 1247 641 l 1,6,-1
 217 1008 l 1,0,-1
EndSplineSet
EndChar
StartChar: question
Encoding: 63 63 63
Width: 1087
Flags: W
Fore
510 254 m 1,0,-1
 461 0 l 1,1,-1
 258 0 l 1,2,-1
 307 254 l 1,3,-1
 510 254 l 1,0,-1
289 1407 m 1,4,5
 391 1464 391 1464 492.5 1492 c 128,-1,6
 594 1520 594 1520 700 1520 c 0,7,8
 861 1520 861 1520 954 1445 c 128,-1,9
 1047 1370 1047 1370 1047 1241 c 0,10,11
 1047 1138 1047 1138 993.5 1048 c 128,-1,12
 940 958 940 958 819 860 c 2,13,-1
 715 776 l 1,14,15
 631 710 631 710 603 663 c 128,-1,16
 575 616 575 616 557 524 c 1,17,-1
 532 401 l 1,18,-1
 342 401 l 1,19,-1
 373 555 l 1,20,21
 391 649 391 649 430 714.5 c 128,-1,22
 469 780 469 780 580 872 c 2,23,-1
 686 961 l 2,24,25
 770 1031 770 1031 804 1084 c 128,-1,26
 838 1137 838 1137 838 1194 c 0,27,28
 838 1270 838 1270 783.5 1313 c 128,-1,29
 729 1356 729 1356 633 1356 c 0,30,31
 553 1356 553 1356 454.5 1320.5 c 128,-1,32
 356 1285 356 1285 252 1219 c 1,33,-1
 289 1407 l 1,4,5
EndSplineSet
EndChar
StartChar: at
Encoding: 64 64 64
Width: 2048
Flags: W
Fore
1253 238 m 1,0,1
 1184 164 1184 164 1103.5 126 c 128,-1,2
 1023 88 1023 88 936 88 c 0,3,4
 789 88 789 88 692.5 187 c 128,-1,5
 596 286 596 286 596 438 c 0,6,7
 596 658 596 658 744.5 822.5 c 128,-1,8
 893 987 893 987 1092 987 c 0,9,10
 1184 987 1184 987 1256.5 947 c 128,-1,11
 1329 907 1329 907 1368 836 c 1,12,-1
 1395 967 l 1,13,-1
 1538 967 l 1,14,-1
 1395 229 l 1,15,16
 1572 257 1572 257 1686 409 c 128,-1,17
 1800 561 1800 561 1800 770 c 0,18,19
 1800 1003 1800 1003 1635 1150.5 c 128,-1,20
 1470 1298 1470 1298 1208 1298 c 0,21,22
 1030 1298 1030 1298 864 1235.5 c 128,-1,23
 698 1173 698 1173 571 1059 c 1,24,25
 426 925 426 925 345 749 c 128,-1,26
 264 573 264 573 264 389 c 0,27,28
 264 128 264 128 438.5 -42.5 c 128,-1,29
 613 -213 613 -213 883 -213 c 0,30,31
 1012 -213 1012 -213 1137 -169.5 c 128,-1,32
 1262 -126 1262 -126 1399 -33 c 1,33,-1
 1481 -147 l 1,34,35
 1346 -249 1346 -249 1189.5 -301.5 c 128,-1,36
 1033 -354 1033 -354 868 -354 c 0,37,38
 546 -354 546 -354 332.5 -140 c 128,-1,39
 119 74 119 74 119 401 c 0,40,41
 119 626 119 626 223.5 836.5 c 128,-1,42
 328 1047 328 1047 516 1200 c 0,43,44
 655 1314 655 1314 835 1377 c 128,-1,45
 1015 1440 1015 1440 1204 1440 c 0,46,47
 1525 1440 1525 1440 1735.5 1251 c 128,-1,48
 1946 1062 1946 1062 1946 778 c 0,49,50
 1946 483 1946 483 1742.5 286.5 c 128,-1,51
 1539 90 1539 90 1223 84 c 1,52,-1
 1253 238 l 1,0,1
1094 846 m 0,53,54
 953 846 953 846 854.5 734.5 c 128,-1,55
 756 623 756 623 756 467 c 0,56,57
 756 355 756 355 813 292 c 128,-1,58
 870 229 870 229 971 229 c 0,59,60
 1113 229 1113 229 1209 343 c 128,-1,61
 1305 457 1305 457 1305 623 c 0,62,63
 1305 725 1305 725 1247.5 785.5 c 128,-1,64
 1190 846 1190 846 1094 846 c 0,53,54
EndSplineSet
EndChar
StartChar: A
Encoding: 65 65 65
Width: 1401
Flags: W
Fore
754 1493 m 1,0,-1
 983 1493 l 1,1,-1
 1260 0 l 1,2,-1
 1049 0 l 1,3,-1
 987 383 l 1,4,-1
 315 383 l 1,5,-1
 104 0 l 1,6,-1
 -109 0 l 1,7,-1
 754 1493 l 1,0,-1
827 1294 m 1,8,-1
 408 551 l 1,9,-1
 956 551 l 1,10,-1
 827 1294 l 1,8,-1
EndSplineSet
KernsSLIFO: 354 -149 0 0 538 -149 0 0 7812 -36 0 0 7810 -36 0 0 7808 -36 0 0 372 -36 0 0 356 -149 0 0 8217 -272 0 0 8221 -272 0 0 87 -36 0 0 86 -102 0 0 84 -149 0 0 59 38 0 0 58 38 0 0 46 38 0 0 44 38 0 0
EndChar
StartChar: B
Encoding: 66 66 66
Width: 1405
Flags: W
Fore
346 1493 m 1,0,-1
 862 1493 l 2,1,2
 1072 1493 1072 1493 1176 1415 c 128,-1,3
 1280 1337 1280 1337 1280 1180 c 0,4,5
 1280 1036 1280 1036 1190.5 931.5 c 128,-1,6
 1101 827 1101 827 956 805 c 1,7,8
 1080 777 1080 777 1142 698 c 128,-1,9
 1204 619 1204 619 1204 487 c 0,10,11
 1204 262 1204 262 1037.5 131 c 128,-1,12
 871 0 871 0 582 0 c 2,13,-1
 55 0 l 1,14,-1
 346 1493 l 1,0,-1
395 713 m 1,15,-1
 289 166 l 1,16,-1
 614 166 l 2,17,18
 797 166 797 166 896 250 c 128,-1,19
 995 334 995 334 995 487 c 0,20,21
 995 605 995 605 929.5 659 c 128,-1,22
 864 713 864 713 719 713 c 2,23,-1
 395 713 l 1,15,-1
514 1327 m 1,24,-1
 426 877 l 1,25,-1
 727 877 l 2,26,27
 888 877 888 877 978.5 947 c 128,-1,28
 1069 1017 1069 1017 1069 1141 c 0,29,30
 1069 1238 1069 1238 1008 1282.5 c 128,-1,31
 947 1327 947 1327 813 1327 c 2,32,-1
 514 1327 l 1,24,-1
EndSplineSet
KernsSLIFO: 7922 -36 0 0 562 -36 0 0 374 -36 0 0 221 -36 0 0 376 -36 0 0 89 -36 0 0 45 -36 0 0
EndChar
StartChar: C
Encoding: 67 67 67
Width: 1430
Flags: W
Fore
1423 1378 m 1,0,-1
 1382 1165 l 1,1,2
 1286 1262 1286 1262 1178.5 1309 c 128,-1,3
 1071 1356 1071 1356 946 1356 c 0,4,5
 775 1356 775 1356 645.5 1274 c 128,-1,6
 516 1192 516 1192 422 1024 c 0,7,8
 362 916 362 916 330.5 795.5 c 128,-1,9
 299 675 299 675 299 553 c 0,10,11
 299 349 299 349 404.5 242 c 128,-1,12
 510 135 510 135 711 135 c 0,13,14
 850 135 850 135 978 179.5 c 128,-1,15
 1106 224 1106 224 1227 313 c 1,16,-1
 1180 74 l 1,17,18
 1061 23 1061 23 939.5 -3 c 128,-1,19
 818 -29 818 -29 696 -29 c 0,20,21
 409 -29 409 -29 247.5 127 c 128,-1,22
 86 283 86 283 86 561 c 0,23,24
 86 739 86 739 147.5 911 c 128,-1,25
 209 1083 209 1083 324 1225 c 0,26,27
 446 1376 446 1376 602.5 1448 c 128,-1,28
 759 1520 759 1520 967 1520 c 0,29,30
 1095 1520 1095 1520 1209.5 1484.5 c 128,-1,31
 1324 1449 1324 1449 1423 1378 c 1,0,-1
EndSplineSet
KernsSLIFO: 536 38 0 0 348 38 0 0 346 38 0 0 350 38 0 0 352 38 0 0 8217 -45 0 0 8221 -45 0 0 83 38 0 0
EndChar
StartChar: D
Encoding: 68 68 68
Width: 1577
Flags: W
Fore
346 1493 m 1,0,-1
 780 1493 l 2,1,2
 1126 1493 1126 1493 1302.5 1346.5 c 128,-1,3
 1479 1200 1479 1200 1479 911 c 0,4,5
 1479 720 1479 720 1412 543.5 c 128,-1,6
 1345 367 1345 367 1227 246 c 0,7,8
 1108 122 1108 122 925 61 c 128,-1,9
 742 0 742 0 492 0 c 2,10,-1
 55 0 l 1,11,-1
 346 1493 l 1,0,-1
516 1327 m 1,12,-1
 291 166 l 1,13,-1
 555 166 l 2,14,15
 894 166 894 166 1080 361 c 128,-1,16
 1266 556 1266 556 1266 911 c 0,17,18
 1266 1126 1266 1126 1146 1226.5 c 128,-1,19
 1026 1327 1026 1327 770 1327 c 2,20,-1
 516 1327 l 1,12,-1
EndSplineSet
EndChar
StartChar: E
Encoding: 69 69 69
Width: 1294
Flags: W
Fore
346 1493 m 1,0,-1
 1290 1493 l 1,1,-1
 1257 1323 l 1,2,-1
 514 1323 l 1,3,-1
 428 881 l 1,4,-1
 1141 881 l 1,5,-1
 1108 711 l 1,6,-1
 395 711 l 1,7,-1
 291 170 l 1,8,-1
 1051 170 l 1,9,-1
 1018 0 l 1,10,-1
 55 0 l 1,11,-1
 346 1493 l 1,0,-1
EndSplineSet
EndChar
StartChar: F
Encoding: 70 70 70
Width: 1178
Flags: W
Fore
346 1493 m 1,0,-1
 1202 1493 l 1,1,-1
 1169 1323 l 1,2,-1
 514 1323 l 1,3,-1
 428 883 l 1,4,-1
 1020 883 l 1,5,-1
 987 713 l 1,6,-1
 395 713 l 1,7,-1
 256 0 l 1,8,-1
 55 0 l 1,9,-1
 346 1493 l 1,0,-1
EndSplineSet
KernsSLIFO: 371 -83 0 0 369 -83 0 0 365 -83 0 0 363 -83 0 0 361 -83 0 0 260 -120 0 0 258 -120 0 0 256 -120 0 0 367 -83 0 0 193 -120 0 0 194 -120 0 0 195 -120 0 0 192 -120 0 0 252 -83 0 0 251 -83 0 0 249 -83 0 0 250 -83 0 0 196 -120 0 0 117 -83 0 0 65 -120 0 0 59 -73 0 0 58 -73 0 0 46 -264 0 0 45 -112 0 0 44 -264 0 0
EndChar
StartChar: G
Encoding: 71 71 71
Width: 1587
Flags: W
Fore
1118 223 m 1,0,-1
 1196 614 l 1,1,-1
 864 614 l 1,2,-1
 895 780 l 1,3,-1
 1425 780 l 1,4,-1
 1296 123 l 1,5,6
 1163 50 1163 50 1006 10.5 c 128,-1,7
 849 -29 849 -29 690 -29 c 0,8,9
 409 -29 409 -29 250.5 127 c 128,-1,10
 92 283 92 283 92 561 c 0,11,12
 92 792 92 792 188.5 1000.5 c 128,-1,13
 285 1209 285 1209 455 1348 c 0,14,15
 562 1435 562 1435 689 1477.5 c 128,-1,16
 816 1520 816 1520 971 1520 c 0,17,18
 1111 1520 1111 1520 1239.5 1484.5 c 128,-1,19
 1368 1449 1368 1449 1485 1378 c 1,20,-1
 1444 1163 l 1,21,22
 1354 1257 1354 1257 1233 1306.5 c 128,-1,23
 1112 1356 1112 1356 975 1356 c 0,24,25
 816 1356 816 1356 695 1295.5 c 128,-1,26
 574 1235 574 1235 479 1108 c 0,27,28
 398 1000 398 1000 351.5 853.5 c 128,-1,29
 305 707 305 707 305 555 c 0,30,31
 305 346 305 346 412 240.5 c 128,-1,32
 519 135 519 135 731 135 c 0,33,34
 837 135 837 135 936 157.5 c 128,-1,35
 1035 180 1035 180 1118 223 c 1,0,-1
EndSplineSet
EndChar
StartChar: H
Encoding: 72 72 72
Width: 1540
Flags: W
Fore
346 1493 m 1,0,-1
 549 1493 l 1,1,-1
 430 881 l 1,2,-1
 1163 881 l 1,3,-1
 1282 1493 l 1,4,-1
 1485 1493 l 1,5,-1
 1194 0 l 1,6,-1
 991 0 l 1,7,-1
 1130 711 l 1,8,-1
 397 711 l 1,9,-1
 258 0 l 1,10,-1
 55 0 l 1,11,-1
 346 1493 l 1,0,-1
EndSplineSet
EndChar
StartChar: I
Encoding: 73 73 73
Width: 604
Flags: W
Fore
346 1493 m 1,0,-1
 549 1493 l 1,1,-1
 258 0 l 1,2,-1
 55 0 l 1,3,-1
 346 1493 l 1,0,-1
EndSplineSet
EndChar
StartChar: J
Encoding: 74 74 74
Width: 604
Flags: W
Fore
342 1493 m 1,0,-1
 545 1493 l 1,1,-1
 274 104 l 2,2,3
 221 -167 221 -167 95.5 -288.5 c 128,-1,4
 -30 -410 -30 -410 -256 -410 c 2,5,-1
 -336 -410 l 1,6,-1
 -303 -240 l 1,7,-1
 -240 -240 l 2,8,9
 -105 -240 -105 -240 -35 -163 c 128,-1,10
 35 -86 35 -86 72 104 c 2,11,-1
 342 1493 l 1,0,-1
EndSplineSet
EndChar
StartChar: K
Encoding: 75 75 75
Width: 1343
Flags: W
Fore
346 1493 m 1,0,-1
 549 1493 l 1,1,-1
 426 864 l 1,2,-1
 1210 1493 l 1,3,-1
 1479 1493 l 1,4,-1
 592 780 l 1,5,-1
 1241 0 l 1,6,-1
 995 0 l 1,7,-1
 399 727 l 1,8,-1
 258 0 l 1,9,-1
 55 0 l 1,10,-1
 346 1493 l 1,0,-1
EndSplineSet
KernsSLIFO: 367 -55 0 0 366 -36 0 0 283 -73 0 0 268 -55 0 0 262 -55 0 0 253 -55 0 0 217 -36 0 0 219 -36 0 0 218 -36 0 0 210 -55 0 0 212 -55 0 0 211 -55 0 0 255 -55 0 0 339 -92 0 0 338 -55 0 0 213 -55 0 0 248 -92 0 0 230 -36 0 0 216 -55 0 0 252 -55 0 0 251 -55 0 0 249 -55 0 0 250 -55 0 0 245 -73 0 0 246 -73 0 0 244 -73 0 0 242 -73 0 0 243 -73 0 0 235 -73 0 0 234 -73 0 0 232 -73 0 0 233 -73 0 0 229 -73 0 0 227 -73 0 0 228 -73 0 0 226 -73 0 0 224 -73 0 0 225 -73 0 0 220 -36 0 0 214 -55 0 0 199 -55 0 0 121 -55 0 0 117 -55 0 0 111 -73 0 0 101 -73 0 0 97 -73 0 0 85 -36 0 0 79 -55 0 0 67 -55 0 0 45 -206 0 0
EndChar
StartChar: L
Encoding: 76 76 76
Width: 1141
Flags: W
Fore
344 1493 m 1,0,-1
 547 1493 l 1,1,-1
 291 168 l 1,2,-1
 1018 168 l 1,3,-1
 985 0 l 1,4,-1
 55 0 l 1,5,-1
 344 1493 l 1,0,-1
EndSplineSet
KernsSLIFO: 356 -139 0 0 253 -73 0 0 221 -196 0 0 210 -63 0 0 212 -63 0 0 211 -63 0 0 376 -196 0 0 255 -73 0 0 8217 -368 0 0 8216 -188 0 0 8221 -368 0 0 8220 -188 0 0 338 -63 0 0 213 -63 0 0 216 -63 0 0 214 -63 0 0 121 -73 0 0 89 -196 0 0 87 -83 0 0 86 -149 0 0 84 -139 0 0 79 -63 0 0 45 -159 0 0
EndChar
StartChar: M
Encoding: 77 77 77
Width: 1767
Flags: W
Fore
346 1493 m 1,0,-1
 649 1493 l 1,1,-1
 823 487 l 1,2,-1
 1401 1493 l 1,3,-1
 1712 1493 l 1,4,-1
 1421 0 l 1,5,-1
 1225 0 l 1,6,-1
 1479 1309 l 1,7,-1
 893 287 l 1,8,-1
 696 287 l 1,9,-1
 506 1313 l 1,10,-1
 252 0 l 1,11,-1
 55 0 l 1,12,-1
 346 1493 l 1,0,-1
EndSplineSet
EndChar
StartChar: N
Encoding: 78 78 78
Width: 1532
Flags: W
Fore
346 1493 m 1,0,-1
 618 1493 l 1,1,-1
 1030 213 l 1,2,-1
 1280 1493 l 1,3,-1
 1477 1493 l 1,4,-1
 1186 0 l 1,5,-1
 913 0 l 1,6,-1
 502 1288 l 1,7,-1
 252 0 l 1,8,-1
 55 0 l 1,9,-1
 346 1493 l 1,0,-1
EndSplineSet
EndChar
StartChar: O
Encoding: 79 79 79
Width: 1612
Flags: W
Fore
934 1356 m 0,0,1
 768 1356 768 1356 641 1275.5 c 128,-1,2
 514 1195 514 1195 420 1030 c 0,3,4
 360 925 360 925 328.5 807 c 128,-1,5
 297 689 297 689 297 569 c 0,6,7
 297 361 297 361 396.5 248 c 128,-1,8
 496 135 496 135 678 135 c 0,9,10
 842 135 842 135 970.5 216.5 c 128,-1,11
 1099 298 1099 298 1190 459 c 0,12,13
 1251 567 1251 567 1283 685.5 c 128,-1,14
 1315 804 1315 804 1315 922 c 0,15,16
 1315 1129 1315 1129 1215 1242.5 c 128,-1,17
 1115 1356 1115 1356 934 1356 c 0,0,1
672 -29 m 0,18,19
 397 -29 397 -29 239.5 134 c 128,-1,20
 82 297 82 297 82 580 c 0,21,22
 82 742 82 742 143.5 911 c 128,-1,23
 205 1080 205 1080 313 1212 c 0,24,25
 440 1367 440 1367 596 1443.5 c 128,-1,26
 752 1520 752 1520 940 1520 c 0,27,28
 1214 1520 1214 1520 1372 1358.5 c 128,-1,29
 1530 1197 1530 1197 1530 918 c 0,30,31
 1530 746 1530 746 1470 580 c 128,-1,32
 1410 414 1410 414 1298 279 c 0,33,34
 1170 123 1170 123 1015.5 47 c 128,-1,35
 861 -29 861 -29 672 -29 c 0,18,19
EndSplineSet
KernsSLIFO: 88 -55 0 0 59 38 0 0 58 38 0 0 46 -83 0 0 44 -83 0 0
EndChar
StartChar: P
Encoding: 80 80 80
Width: 1235
Flags: W
Fore
346 1493 m 1,0,-1
 813 1493 l 2,1,2
 1017 1493 1017 1493 1124 1398 c 128,-1,3
 1231 1303 1231 1303 1231 1120 c 0,4,5
 1231 874 1231 874 1073 737 c 128,-1,6
 915 600 915 600 629 600 c 2,7,-1
 375 600 l 1,8,-1
 258 0 l 1,9,-1
 55 0 l 1,10,-1
 346 1493 l 1,0,-1
516 1327 m 1,11,-1
 408 766 l 1,12,-1
 662 766 l 2,13,14
 834 766 834 766 926 854 c 128,-1,15
 1018 942 1018 942 1018 1106 c 0,16,17
 1018 1211 1018 1211 955.5 1269 c 128,-1,18
 893 1327 893 1327 780 1327 c 2,19,-1
 516 1327 l 1,11,-1
EndSplineSet
KernsSLIFO: 193 -102 0 0 194 -102 0 0 195 -102 0 0 192 -102 0 0 196 -102 0 0 65 -102 0 0 59 -36 0 0 58 -36 0 0 46 -282 0 0 45 -112 0 0 44 -282 0 0
EndChar
StartChar: Q
Encoding: 81 81 81
Width: 1612
Flags: W
Fore
739 -27 m 1,0,1
 728 -28 728 -28 716 -28.5 c 128,-1,2
 704 -29 704 -29 680 -29 c 0,3,4
 400 -29 400 -29 242 131.5 c 128,-1,5
 84 292 84 292 84 575 c 0,6,7
 84 742 84 742 144.5 910 c 128,-1,8
 205 1078 205 1078 313 1212 c 0,9,10
 438 1366 438 1366 594.5 1443 c 128,-1,11
 751 1520 751 1520 940 1520 c 0,12,13
 1214 1520 1214 1520 1372 1358.5 c 128,-1,14
 1530 1197 1530 1197 1530 918 c 0,15,16
 1530 617 1530 617 1365 367 c 128,-1,17
 1200 117 1200 117 934 14 c 1,18,-1
 1137 -264 l 1,19,-1
 911 -264 l 1,20,-1
 739 -27 l 1,0,1
934 1356 m 0,21,22
 768 1356 768 1356 641 1275.5 c 128,-1,23
 514 1195 514 1195 420 1030 c 0,24,25
 360 925 360 925 328.5 807 c 128,-1,26
 297 689 297 689 297 569 c 0,27,28
 297 361 297 361 396.5 248 c 128,-1,29
 496 135 496 135 678 135 c 0,30,31
 842 135 842 135 970.5 216.5 c 128,-1,32
 1099 298 1099 298 1190 459 c 0,33,34
 1251 567 1251 567 1283 685.5 c 128,-1,35
 1315 804 1315 804 1315 922 c 0,36,37
 1315 1129 1315 1129 1215 1242.5 c 128,-1,38
 1115 1356 1115 1356 934 1356 c 0,21,22
EndSplineSet
KernsSLIFO: 45 38 0 0
EndChar
StartChar: R
Encoding: 82 82 82
Width: 1423
Flags: W
Fore
516 1327 m 1,0,-1
 414 797 l 1,1,-1
 674 797 l 2,2,3
 827 797 827 797 921.5 881.5 c 128,-1,4
 1016 966 1016 966 1016 1102 c 0,5,6
 1016 1211 1016 1211 952.5 1269 c 128,-1,7
 889 1327 889 1327 770 1327 c 2,8,-1
 516 1327 l 1,0,-1
887 717 m 1,9,10
 951 702 951 702 993.5 643 c 128,-1,11
 1036 584 1036 584 1092 408 c 1,12,-1
 1219 0 l 1,13,-1
 1006 0 l 1,14,-1
 889 383 l 2,15,16
 844 531 844 531 785 581 c 128,-1,17
 726 631 726 631 604 631 c 2,18,-1
 381 631 l 1,19,-1
 258 0 l 1,20,-1
 55 0 l 1,21,-1
 346 1493 l 1,22,-1
 801 1493 l 2,23,24
 1008 1493 1008 1493 1118.5 1399.5 c 128,-1,25
 1229 1306 1229 1306 1229 1130 c 0,26,27
 1229 974 1229 974 1135 860 c 128,-1,28
 1041 746 1041 746 887 717 c 1,9,10
EndSplineSet
EndChar
StartChar: S
Encoding: 83 83 83
Width: 1300
Flags: W
Fore
1235 1444 m 1,0,-1
 1196 1247 l 1,1,2
 1095 1301 1095 1301 995.5 1328.5 c 128,-1,3
 896 1356 896 1356 803 1356 c 0,4,5
 622 1356 622 1356 515 1277 c 128,-1,6
 408 1198 408 1198 408 1067 c 0,7,8
 408 995 408 995 447.5 956.5 c 128,-1,9
 487 918 487 918 651 874 c 1,10,-1
 772 844 l 2,11,12
 977 791 977 791 1057 709.5 c 128,-1,13
 1137 628 1137 628 1137 481 c 0,14,15
 1137 255 1137 255 959.5 113 c 128,-1,16
 782 -29 782 -29 492 -29 c 0,17,18
 373 -29 373 -29 253 -5.5 c 128,-1,19
 133 18 133 18 12 66 c 1,20,-1
 53 274 l 1,21,22
 164 205 164 205 275.5 170 c 128,-1,23
 387 135 387 135 498 135 c 0,24,25
 687 135 687 135 801 219 c 128,-1,26
 915 303 915 303 915 438 c 0,27,28
 915 528 915 528 869.5 574.5 c 128,-1,29
 824 621 824 621 674 659 c 2,30,-1
 553 690 l 2,31,32
 346 744 346 744 270.5 814.5 c 128,-1,33
 195 885 195 885 195 1012 c 0,34,35
 195 1235 195 1235 366.5 1377.5 c 128,-1,36
 538 1520 538 1520 813 1520 c 0,37,38
 920 1520 920 1520 1025 1501 c 128,-1,39
 1130 1482 1130 1482 1235 1444 c 1,0,-1
EndSplineSet
KernsSLIFO: 350 -73 0 0 352 -73 0 0 83 -73 0 0
EndChar
StartChar: T
Encoding: 84 84 84
Width: 1251
Flags: W
Fore
121 1493 m 1,0,-1
 1384 1493 l 1,1,-1
 1352 1323 l 1,2,-1
 819 1323 l 1,3,-1
 563 0 l 1,4,-1
 360 0 l 1,5,-1
 616 1323 l 1,6,-1
 88 1323 l 1,7,-1
 121 1493 l 1,0,-1
EndSplineSet
KernsSLIFO: 252 -206 0 0 229 -215 0 0 230 -253 0 0 59 -188 0 0 242 -253 0 0 45 -292 0 0 46 -243 0 0 367 -206 0 0 245 -253 0 0 235 -253 0 0 249 -206 0 0 58 -188 0 0 224 -215 0 0 195 -188 0 0 234 -253 0 0 231 -253 0 0 341 -159 0 0 232 -253 0 0 196 -188 0 0 193 -188 0 0 269 -253 0 0 251 -206 0 0 253 -178 0 0 227 -215 0 0 194 -188 0 0 248 -253 0 0 244 -253 0 0 353 -243 0 0 65 -188 0 0 283 -253 0 0 351 -243 0 0 228 -215 0 0 119 -167 0 0 246 -253 0 0 250 -206 0 0 263 -253 0 0 225 -215 0 0 345 -159 0 0 226 -215 0 0 233 -253 0 0 97 -215 0 0 99 -253 0 0 101 -253 0 0 339 -253 0 0 255 -178 0 0 111 -253 0 0 115 -243 0 0 114 -159 0 0 117 -206 0 0 192 -188 0 0 121 -178 0 0 44 -243 0 0 243 -253 0 0
EndChar
StartChar: U
Encoding: 85 85 85
Width: 1499
Flags: W
Fore
317 1493 m 1,0,-1
 520 1493 l 1,1,-1
 344 586 l 1,2,3
 333 525 333 525 328.5 485.5 c 128,-1,4
 324 446 324 446 324 416 c 0,5,6
 324 278 324 278 401 206.5 c 128,-1,7
 478 135 478 135 627 135 c 0,8,9
 820 135 820 135 927.5 241 c 128,-1,10
 1035 347 1035 347 1081 586 c 1,11,-1
 1257 1493 l 1,12,-1
 1460 1493 l 1,13,-1
 1280 561 l 1,14,15
 1221 259 1221 259 1056 115 c 128,-1,16
 891 -29 891 -29 604 -29 c 0,17,18
 380 -29 380 -29 249.5 83.5 c 128,-1,19
 119 196 119 196 119 389 c 0,20,21
 119 424 119 424 124 467.5 c 128,-1,22
 129 511 129 511 139 561 c 1,23,-1
 317 1493 l 1,0,-1
EndSplineSet
EndChar
StartChar: V
Encoding: 86 86 86
Width: 1401
Flags: W
Fore
422 0 m 1,0,-1
 160 1493 l 1,1,-1
 358 1493 l 1,2,-1
 575 209 l 1,3,-1
 1300 1493 l 1,4,-1
 1520 1493 l 1,5,-1
 657 0 l 1,6,-1
 422 0 l 1,0,-1
EndSplineSet
KernsSLIFO: 367 -36 0 0 283 -120 0 0 193 -139 0 0 194 -139 0 0 339 -120 0 0 195 -139 0 0 192 -139 0 0 248 -120 0 0 230 -149 0 0 252 -36 0 0 251 -36 0 0 249 -36 0 0 250 -36 0 0 245 -120 0 0 246 -120 0 0 244 -120 0 0 242 -120 0 0 243 -120 0 0 235 -120 0 0 234 -120 0 0 232 -120 0 0 233 -120 0 0 229 -131 0 0 227 -131 0 0 228 -131 0 0 226 -131 0 0 224 -131 0 0 225 -131 0 0 196 -139 0 0 117 -36 0 0 111 -120 0 0 101 -120 0 0 97 -131 0 0 65 -139 0 0 59 -55 0 0 58 -55 0 0 46 -235 0 0 45 -178 0 0 44 -235 0 0
EndChar
StartChar: W
Encoding: 87 87 87
Width: 2025
Flags: W
Fore
197 1493 m 1,0,-1
 393 1493 l 1,1,-1
 465 223 l 1,2,-1
 1028 1493 l 1,3,-1
 1253 1493 l 1,4,-1
 1327 223 l 1,5,-1
 1884 1493 l 1,6,-1
 2089 1493 l 1,7,-1
 1425 0 l 1,8,-1
 1171 0 l 1,9,-1
 1102 1245 l 1,10,-1
 543 0 l 1,11,-1
 289 0 l 1,12,-1
 197 1493 l 1,0,-1
EndSplineSet
KernsSLIFO: 229 -112 0 0 230 -112 0 0 45 -159 0 0 46 -167 0 0 44 -167 0 0 224 -112 0 0 195 -102 0 0 341 -36 0 0 8221 -36 0 0 196 -102 0 0 193 -102 0 0 8217 -36 0 0 227 -112 0 0 194 -102 0 0 65 -102 0 0 228 -112 0 0 225 -112 0 0 345 -36 0 0 226 -112 0 0 97 -112 0 0 114 -36 0 0 192 -102 0 0
EndChar
StartChar: X
Encoding: 88 88 88
Width: 1403
Flags: W
Fore
281 1493 m 1,0,-1
 485 1493 l 1,1,-1
 741 954 l 1,2,-1
 1204 1493 l 1,3,-1
 1440 1493 l 1,4,-1
 825 780 l 1,5,-1
 1196 0 l 1,6,-1
 993 0 l 1,7,-1
 692 629 l 1,8,-1
 147 0 l 1,9,-1
 -88 0 l 1,10,-1
 610 803 l 1,11,-1
 281 1493 l 1,0,-1
EndSplineSet
KernsSLIFO: 268 -36 0 0 262 -36 0 0 210 -73 0 0 212 -73 0 0 211 -73 0 0 338 -55 0 0 213 -73 0 0 216 -36 0 0 214 -73 0 0 199 -36 0 0 79 -73 0 0 67 -36 0 0 45 -188 0 0
EndChar
StartChar: Y
Encoding: 89 89 89
Width: 1251
Flags: W
Fore
129 1493 m 1,0,-1
 346 1493 l 1,1,-1
 625 879 l 1,2,-1
 1157 1493 l 1,3,-1
 1384 1493 l 1,4,-1
 707 711 l 1,5,-1
 569 0 l 1,6,-1
 367 0 l 1,7,-1
 504 711 l 1,8,-1
 129 1493 l 1,0,-1
EndSplineSet
KernsSLIFO: 367 -188 0 0 283 -225 0 0 268 -36 0 0 262 -36 0 0 210 -36 0 0 212 -36 0 0 211 -36 0 0 193 -159 0 0 194 -159 0 0 8216 -45 0 0 8220 -45 0 0 339 -225 0 0 338 -36 0 0 213 -36 0 0 195 -159 0 0 192 -159 0 0 248 -225 0 0 230 -188 0 0 216 -36 0 0 252 -188 0 0 251 -188 0 0 249 -188 0 0 250 -188 0 0 245 -225 0 0 246 -225 0 0 244 -225 0 0 242 -225 0 0 243 -225 0 0 235 -225 0 0 234 -225 0 0 232 -225 0 0 233 -225 0 0 229 -188 0 0 227 -188 0 0 228 -188 0 0 226 -188 0 0 224 -188 0 0 225 -188 0 0 214 -36 0 0 199 -36 0 0 196 -159 0 0 117 -188 0 0 111 -225 0 0 105 -36 0 0 101 -225 0 0 97 -188 0 0 79 -36 0 0 67 -36 0 0 65 -159 0 0 59 -178 0 0 58 -178 0 0 46 -264 0 0 45 -282 0 0 44 -264 0 0
EndChar
StartChar: Z
Encoding: 90 90 90
Width: 1403
Flags: W
Fore
268 1493 m 1,0,-1
 1440 1493 l 1,1,-1
 1411 1339 l 1,2,-1
 254 170 l 1,3,-1
 1206 170 l 1,4,-1
 1174 0 l 1,5,-1
 -45 0 l 1,6,-1
 -16 154 l 1,7,-1
 1141 1323 l 1,8,-1
 236 1323 l 1,9,-1
 268 1493 l 1,0,-1
EndSplineSet
KernsSLIFO: 45 -102 0 0
EndChar
StartChar: bracketleft
Encoding: 91 91 91
Width: 799
Flags: W
Fore
436 1556 m 1,0,-1
 860 1556 l 1,1,-1
 831 1413 l 1,2,-1
 592 1413 l 1,3,-1
 293 -127 l 1,4,-1
 532 -127 l 1,5,-1
 506 -270 l 1,6,-1
 82 -270 l 1,7,-1
 436 1556 l 1,0,-1
EndSplineSet
EndChar
StartChar: backslash
Encoding: 92 92 92
Width: 690
Flags: W
Fore
344 1493 m 1,0,-1
 537 -190 l 1,1,-1
 369 -190 l 1,2,-1
 174 1493 l 1,3,-1
 344 1493 l 1,0,-1
EndSplineSet
EndChar
StartChar: bracketright
Encoding: 93 93 93
Width: 799
Flags: W
Fore
700 1556 m 1,0,-1
 346 -270 l 1,1,-1
 -78 -270 l 1,2,-1
 -51 -127 l 1,3,-1
 188 -127 l 1,4,-1
 487 1413 l 1,5,-1
 250 1413 l 1,6,-1
 276 1556 l 1,7,-1
 700 1556 l 1,0,-1
EndSplineSet
EndChar
StartChar: asciicircum
Encoding: 94 94 94
Width: 1716
Flags: W
Fore
956 1493 m 1,0,-1
 1499 936 l 1,1,-1
 1298 936 l 1,2,-1
 858 1331 l 1,3,-1
 418 936 l 1,4,-1
 217 936 l 1,5,-1
 760 1493 l 1,6,-1
 956 1493 l 1,0,-1
EndSplineSet
EndChar
StartChar: underscore
Encoding: 95 95 95
Width: 1024
Flags: W
Fore
1044 -340 m 1,0,-1
 1044 -483 l 1,1,-1
 -20 -483 l 1,2,-1
 -20 -340 l 1,3,-1
 1044 -340 l 1,0,-1
EndSplineSet
EndChar
StartChar: grave
Encoding: 96 96 96
Width: 1024
Flags: W
Fore
586 1638 m 1,0,-1
 795 1264 l 1,1,-1
 641 1264 l 1,2,-1
 389 1638 l 1,3,-1
 586 1638 l 1,0,-1
EndSplineSet
EndChar
StartChar: a
Encoding: 97 97 97
Width: 1255
Flags: HW
AnchorPoint: "above" 718 1147 basechar 0
Fore
1100 639 m 1,0,-1
 975 0 l 1,1,-1
 791 0 l 1,2,-1
 825 170 l 1,3,4
 744 70 744 70 640.5 20.5 c 128,-1,5
 537 -29 537 -29 410 -29 c 0,6,7
 267 -29 267 -29 175.5 58.5 c 128,-1,8
 84 146 84 146 84 283 c 0,9,10
 84 479 84 479 240.5 593 c 128,-1,11
 397 707 397 707 672 707 c 2,12,-1
 928 707 l 1,13,-1
 938 756 l 1,14,15
 940 764 940 764 941 773.5 c 128,-1,16
 942 783 942 783 942 803 c 0,17,18
 942 892 942 892 869.5 941.5 c 128,-1,19
 797 991 797 991 666 991 c 0,20,21
 576 991 576 991 481.5 968 c 128,-1,22
 387 945 387 945 287 899 c 1,23,-1
 319 1069 l 1,24,25
 423 1108 423 1108 522.5 1127.5 c 128,-1,26
 622 1147 622 1147 715 1147 c 0,27,28
 913 1147 913 1147 1016.5 1061 c 128,-1,29
 1120 975 1120 975 1120 811 c 0,30,31
 1120 778 1120 778 1115 733.5 c 128,-1,32
 1110 689 1110 689 1100 639 c 1,0,-1
901 563 m 1,33,-1
 717 563 l 2,34,35
 491 563 491 563 382.5 502.5 c 128,-1,36
 274 442 274 442 274 315 c 0,37,38
 274 227 274 227 329.5 177 c 128,-1,39
 385 127 385 127 483 127 c 0,40,41
 633 127 633 127 745 234.5 c 128,-1,42
 857 342 857 342 893 522 c 2,43,-1
 901 563 l 1,33,-1
EndSplineSet
EndChar
StartChar: b
Encoding: 98 98 98
Width: 1300
Flags: W
Fore
1014 684 m 0,0,1
 1014 829 1014 829 947.5 911 c 128,-1,2
 881 993 881 993 764 993 c 0,3,4
 679 993 679 993 604.5 951.5 c 128,-1,5
 530 910 530 910 475 831 c 0,6,7
 417 748 417 748 383.5 638.5 c 128,-1,8
 350 529 350 529 350 420 c 0,9,10
 350 282 350 282 415.5 203.5 c 128,-1,11
 481 125 481 125 596 125 c 0,12,13
 683 125 683 125 757 165.5 c 128,-1,14
 831 206 831 206 887 285 c 0,15,16
 944 367 944 367 979 476 c 128,-1,17
 1014 585 1014 585 1014 684 c 0,0,1
442 950 m 1,18,19
 510 1042 510 1042 612.5 1094.5 c 128,-1,20
 715 1147 715 1147 827 1147 c 0,21,22
 999 1147 999 1147 1100.5 1031 c 128,-1,23
 1202 915 1202 915 1202 717 c 0,24,25
 1202 555 1202 555 1142.5 403 c 128,-1,26
 1083 251 1083 251 973 133 c 0,27,28
 901 55 901 55 807 13 c 128,-1,29
 713 -29 713 -29 610 -29 c 0,30,31
 501 -29 501 -29 421 21 c 128,-1,32
 341 71 341 71 291 170 c 1,33,-1
 258 0 l 1,34,-1
 74 0 l 1,35,-1
 377 1556 l 1,36,-1
 561 1556 l 1,37,-1
 442 950 l 1,18,19
EndSplineSet
EndChar
StartChar: c
Encoding: 99 99 99
Width: 1126
Flags: HW
AnchorPoint: "above" 770 1147 basechar 0
Fore
1098 1077 m 1,0,-1
 1061 895 l 1,1,2
 995 943 995 943 920.5 967 c 128,-1,3
 846 991 846 991 766 991 c 0,4,5
 678 991 678 991 598.5 960 c 128,-1,6
 519 929 519 929 465 872 c 1,7,8
 379 785 379 785 332 668 c 128,-1,9
 285 551 285 551 285 426 c 0,10,11
 285 275 285 275 360.5 201 c 128,-1,12
 436 127 436 127 590 127 c 0,13,14
 666 127 666 127 751.5 150 c 128,-1,15
 837 173 837 173 930 219 c 1,16,-1
 895 37 l 1,17,18
 815 4 815 4 730.5 -12.5 c 128,-1,19
 646 -29 646 -29 557 -29 c 0,20,21
 334 -29 334 -29 214 82.5 c 128,-1,22
 94 194 94 194 94 401 c 0,23,24
 94 575 94 575 156.5 721.5 c 128,-1,25
 219 868 219 868 342 985 c 0,26,27
 426 1065 426 1065 539 1106 c 128,-1,28
 652 1147 652 1147 786 1147 c 0,29,30
 864 1147 864 1147 941 1129.5 c 128,-1,31
 1018 1112 1018 1112 1098 1077 c 1,0,-1
EndSplineSet
EndChar
StartChar: d
Encoding: 100 100 100
Width: 1300
Flags: W
Fore
856 168 m 1,0,1
 782 71 782 71 681 21 c 128,-1,2
 580 -29 580 -29 457 -29 c 0,3,4
 289 -29 289 -29 191.5 85.5 c 128,-1,5
 94 200 94 200 94 399 c 0,6,7
 94 565 94 565 153 715.5 c 128,-1,8
 212 866 212 866 324 985 c 0,9,10
 398 1064 398 1064 491 1105.5 c 128,-1,11
 584 1147 584 1147 686 1147 c 0,12,13
 794 1147 794 1147 876.5 1095 c 128,-1,14
 959 1043 959 1043 1004 946 c 1,15,-1
 1124 1556 l 1,16,-1
 1309 1556 l 1,17,-1
 1006 0 l 1,18,-1
 821 0 l 1,19,-1
 856 168 l 1,0,1
285 432 m 0,20,21
 285 287 285 287 350.5 206 c 128,-1,22
 416 125 416 125 532 125 c 0,23,24
 618 125 618 125 691.5 166.5 c 128,-1,25
 765 208 765 208 821 289 c 0,26,27
 880 373 880 373 914 483 c 128,-1,28
 948 593 948 593 948 700 c 0,29,30
 948 839 948 839 882.5 917 c 128,-1,31
 817 995 817 995 702 995 c 0,32,33
 615 995 615 995 540 954 c 128,-1,34
 465 913 465 913 412 836 c 0,35,36
 354 753 354 753 319.5 643 c 128,-1,37
 285 533 285 533 285 432 c 0,20,21
EndSplineSet
EndChar
StartChar: e
Encoding: 101 101 101
Width: 1260
Flags: HW
AnchorPoint: "above" 729 1147 basechar 0
Fore
985 660 m 1,0,1
 988 676 988 676 989.5 693 c 128,-1,2
 991 710 991 710 991 727 c 0,3,4
 991 849 991 849 919.5 920 c 128,-1,5
 848 991 848 991 725 991 c 0,6,7
 588 991 588 991 483 904.5 c 128,-1,8
 378 818 378 818 324 659 c 1,9,-1
 985 660 l 1,0,1
1145 516 m 1,10,-1
 289 516 l 1,11,12
 283 478 283 478 281 456 c 128,-1,13
 279 434 279 434 279 418 c 0,14,15
 279 279 279 279 364.5 203 c 128,-1,16
 450 127 450 127 606 127 c 0,17,18
 726 127 726 127 833 154 c 128,-1,19
 940 181 940 181 1032 233 c 1,20,-1
 997 51 l 1,21,22
 898 11 898 11 792.5 -9 c 128,-1,23
 687 -29 687 -29 578 -29 c 0,24,25
 345 -29 345 -29 219.5 82.5 c 128,-1,26
 94 194 94 194 94 399 c 0,27,28
 94 574 94 574 156.5 724.5 c 128,-1,29
 219 875 219 875 340 993 c 1,30,31
 418 1067 418 1067 525.5 1107 c 128,-1,32
 633 1147 633 1147 754 1147 c 0,33,34
 944 1147 944 1147 1056.5 1033 c 128,-1,35
 1169 919 1169 919 1169 727 c 0,36,37
 1169 681 1169 681 1163 628.5 c 128,-1,38
 1157 576 1157 576 1145 516 c 1,10,-1
EndSplineSet
EndChar
StartChar: f
Encoding: 102 102 102
Width: 721
Flags: W
Fore
979 1556 m 1,0,-1
 950 1403 l 1,1,-1
 774 1403 l 2,2,3
 674 1403 674 1403 628.5 1363.5 c 128,-1,4
 583 1324 583 1324 561 1219 c 1,5,-1
 541 1120 l 1,6,-1
 844 1120 l 1,7,-1
 817 977 l 1,8,-1
 514 977 l 1,9,-1
 324 0 l 1,10,-1
 139 0 l 1,11,-1
 330 977 l 1,12,-1
 154 977 l 1,13,-1
 180 1120 l 1,14,-1
 356 1120 l 1,15,-1
 371 1198 l 2,16,17
 409 1396 409 1396 504.5 1476 c 128,-1,18
 600 1556 600 1556 805 1556 c 2,19,-1
 979 1556 l 1,0,-1
EndSplineSet
KernsSLIFO: 8217 94 0 0 8216 141 0 0 8221 94 0 0 8220 141 0 0 46 -36 0 0 45 -36 0 0 44 -36 0 0
EndChar
StartChar: g
Encoding: 103 103 103
Width: 1300
Flags: HW
AnchorPoint: "above" 757 1147 basechar 0
Fore
1221 1120 m 1,0,-1
 1030 139 l 1,1,2
 975 -146 975 -146 819.5 -286 c 128,-1,3
 664 -426 664 -426 401 -426 c 0,4,5
 304 -426 304 -426 221 -411.5 c 128,-1,6
 138 -397 138 -397 66 -367 c 1,7,-1
 100 -188 l 1,8,9
 168 -232 168 -232 244 -253 c 128,-1,10
 320 -274 320 -274 406 -274 c 0,11,12
 581 -274 581 -274 693.5 -178.5 c 128,-1,13
 806 -83 806 -83 842 96 c 1,14,-1
 858 180 l 1,15,16
 781 92 781 92 679 46 c 128,-1,17
 577 0 577 0 459 0 c 0,18,19
 289 0 289 0 191.5 112.5 c 128,-1,20
 94 225 94 225 94 422 c 0,21,22
 94 577 94 577 153 725.5 c 128,-1,23
 212 874 212 874 319 989 c 0,24,25
 390 1065 390 1065 484.5 1106 c 128,-1,26
 579 1147 579 1147 682 1147 c 0,27,28
 795 1147 795 1147 879 1094.5 c 128,-1,29
 963 1042 963 1042 1004 946 c 1,30,-1
 1036 1120 l 1,31,-1
 1221 1120 l 1,0,-1
944 709 m 0,32,33
 944 845 944 845 880 919 c 128,-1,34
 816 993 816 993 698 993 c 0,35,36
 625 993 625 993 559 964 c 128,-1,37
 493 935 493 935 446 883 c 0,38,39
 370 797 370 797 327.5 680.5 c 128,-1,40
 285 564 285 564 285 440 c 0,41,42
 285 302 285 302 349.5 228 c 128,-1,43
 414 154 414 154 535 154 c 0,44,45
 710 154 710 154 827 312.5 c 128,-1,46
 944 471 944 471 944 709 c 0,32,33
EndSplineSet
EndChar
StartChar: h
Encoding: 104 104 104
Width: 1298
Flags: W
Fore
1141 676 m 1,0,-1
 1010 0 l 1,1,-1
 825 0 l 1,2,-1
 956 669 l 2,3,4
 965 716 965 716 970 752 c 128,-1,5
 975 788 975 788 975 809 c 0,6,7
 975 893 975 893 922 940 c 128,-1,8
 869 987 869 987 774 987 c 0,9,10
 626 987 626 987 517.5 887 c 128,-1,11
 409 787 409 787 377 621 c 1,12,-1
 256 0 l 1,13,-1
 72 0 l 1,14,-1
 375 1556 l 1,15,-1
 559 1556 l 1,16,-1
 440 944 l 1,17,18
 510 1038 510 1038 619 1092.5 c 128,-1,19
 728 1147 728 1147 848 1147 c 0,20,21
 996 1147 996 1147 1077.5 1067 c 128,-1,22
 1159 987 1159 987 1159 842 c 0,23,24
 1159 806 1159 806 1154.5 765 c 128,-1,25
 1150 724 1150 724 1141 676 c 1,0,-1
EndSplineSet
EndChar
StartChar: i
Encoding: 105 105 105
Width: 569
Flags: HW
AnchorPoint: "above" 441.64 1567 basechar 0
Fore
375 1556 m 1,0,-1
 559 1556 l 1,1,-1
 514 1323 l 1,2,-1
 330 1323 l 1,3,-1
 375 1556 l 1,0,-1
291 1120 m 1,4,-1
 475 1120 l 1,5,-1
 256 0 l 1,6,-1
 72 0 l 1,7,-1
 291 1120 l 1,4,-1
EndSplineSet
EndChar
StartChar: j
Encoding: 106 106 106
Width: 569
Flags: HW
AnchorPoint: "above" 464.139 1585 basechar 0
Fore
297 1120 m 1,0,-1
 481 1120 l 1,1,-1
 260 -20 l 1,2,-1
 259 -25 l 2,3,4
 222 -216 222 -216 174 -287 c 0,5,6
 129 -354 129 -354 42.5 -390 c 128,-1,7
 -44 -426 -44 -426 -162 -426 c 2,8,-1
 -231 -426 l 1,9,-1
 -201 -270 l 1,10,-1
 -154 -270 l 2,11,12
 -46 -270 -46 -270 -0.5 -225 c 128,-1,13
 45 -180 45 -180 76 -20 c 2,14,-1
 297 1120 l 1,0,-1
383 1556 m 1,15,-1
 567 1556 l 1,16,-1
 522 1323 l 1,17,-1
 338 1323 l 1,18,-1
 383 1556 l 1,15,-1
EndSplineSet
EndChar
StartChar: k
Encoding: 107 107 107
Width: 1186
Flags: W
Fore
375 1556 m 1,0,-1
 559 1556 l 1,1,-1
 383 649 l 1,2,-1
 1014 1120 l 1,3,-1
 1253 1120 l 1,4,-1
 549 584 l 1,5,-1
 1063 0 l 1,6,-1
 840 0 l 1,7,-1
 362 547 l 1,8,-1
 256 0 l 1,9,-1
 72 0 l 1,10,-1
 375 1556 l 1,0,-1
EndSplineSet
EndChar
StartChar: l
Encoding: 108 108 108
Width: 569
Flags: W
Fore
375 1556 m 1,0,-1
 559 1556 l 1,1,-1
 256 0 l 1,2,-1
 72 0 l 1,3,-1
 375 1556 l 1,0,-1
EndSplineSet
EndChar
StartChar: m
Encoding: 109 109 109
Width: 1995
Flags: W
Fore
1839 676 m 2,0,-1
 1708 0 l 1,1,-1
 1524 0 l 1,2,-1
 1653 670 l 1,3,4
 1661 713 1661 713 1665 744 c 128,-1,5
 1669 775 1669 775 1669 797 c 0,6,7
 1669 887 1669 887 1619 937 c 128,-1,8
 1569 987 1569 987 1479 987 c 0,9,10
 1345 987 1345 987 1240 886.5 c 128,-1,11
 1135 786 1135 786 1104 625 c 1,12,-1
 981 0 l 1,13,-1
 797 0 l 1,14,-1
 928 670 l 1,15,16
 936 707 936 707 940 738.5 c 128,-1,17
 944 770 944 770 944 795 c 0,18,19
 944 886 944 886 894 936.5 c 128,-1,20
 844 987 844 987 756 987 c 0,21,22
 620 987 620 987 515 886.5 c 128,-1,23
 410 786 410 786 379 625 c 1,24,-1
 256 0 l 1,25,-1
 72 0 l 1,26,-1
 291 1120 l 1,27,-1
 475 1120 l 1,28,-1
 440 946 l 1,29,30
 515 1044 515 1044 615.5 1095.5 c 128,-1,31
 716 1147 716 1147 831 1147 c 0,32,33
 953 1147 953 1147 1031.5 1083 c 128,-1,34
 1110 1019 1110 1019 1126 905 c 1,35,36
 1210 1023 1210 1023 1320.5 1085 c 128,-1,37
 1431 1147 1431 1147 1554 1147 c 0,38,39
 1698 1147 1698 1147 1776.5 1064 c 128,-1,40
 1855 981 1855 981 1855 829 c 0,41,42
 1855 796 1855 796 1851 756.5 c 128,-1,43
 1847 717 1847 717 1839 676 c 2,0,-1
EndSplineSet
EndChar
StartChar: n
Encoding: 110 110 110
Width: 1298
Flags: HW
AnchorPoint: "above" 749 1147 basechar 0
Fore
1141 676 m 1,0,-1
 1010 0 l 1,1,-1
 825 0 l 1,2,-1
 956 669 l 2,3,4
 965 716 965 716 970 752 c 128,-1,5
 975 788 975 788 975 809 c 0,6,7
 975 893 975 893 922 940 c 128,-1,8
 869 987 869 987 774 987 c 0,9,10
 626 987 626 987 519 888.5 c 128,-1,11
 412 790 412 790 379 621 c 1,12,-1
 256 0 l 1,13,-1
 72 0 l 1,14,-1
 289 1120 l 1,15,-1
 473 1120 l 1,16,-1
 436 944 l 1,17,18
 513 1041 513 1041 621 1094 c 128,-1,19
 729 1147 729 1147 848 1147 c 0,20,21
 996 1147 996 1147 1077.5 1067 c 128,-1,22
 1159 987 1159 987 1159 842 c 0,23,24
 1159 806 1159 806 1154.5 765 c 128,-1,25
 1150 724 1150 724 1141 676 c 1,0,-1
EndSplineSet
EndChar
StartChar: o
Encoding: 111 111 111
Width: 1253
Flags: W
AnchorPoint: "above" 733 1147 basechar 0
Fore
520 -29 m 0,0,1
 323 -29 323 -29 208.5 92.5 c 128,-1,2
 94 214 94 214 94 424 c 0,3,4
 94 546 94 546 133.5 672.5 c 128,-1,5
 173 799 173 799 236 885 c 0,6,7
 335 1019 335 1019 457 1083 c 128,-1,8
 579 1147 579 1147 733 1147 c 0,9,10
 924 1147 924 1147 1041.5 1028 c 128,-1,11
 1159 909 1159 909 1159 717 c 0,12,13
 1159 584 1159 584 1120 452 c 128,-1,14
 1081 320 1081 320 1018 233 c 0,15,16
 920 99 920 99 798 35 c 128,-1,17
 676 -29 676 -29 520 -29 c 0,0,1
285 430 m 0,18,19
 285 278 285 278 348.5 202.5 c 128,-1,20
 412 127 412 127 541 127 c 0,21,22
 726 127 726 127 847.5 288.5 c 128,-1,23
 969 450 969 450 969 698 c 0,24,25
 969 843 969 843 904 917 c 128,-1,26
 839 991 839 991 713 991 c 0,27,28
 609 991 609 991 528 942.5 c 128,-1,29
 447 894 447 894 383 795 c 0,30,31
 336 721 336 721 310.5 626 c 128,-1,32
 285 531 285 531 285 430 c 0,18,19
EndSplineSet
EndChar
StartChar: p
Encoding: 112 112 112
Width: 1300
Flags: W
Fore
1016 690 m 0,0,1
 1016 837 1016 837 952 915 c 128,-1,2
 888 993 888 993 768 993 c 0,3,4
 686 993 686 993 611.5 951 c 128,-1,5
 537 909 537 909 479 829 c 0,6,7
 422 750 422 750 388 638 c 128,-1,8
 354 526 354 526 354 416 c 0,9,10
 354 276 354 276 418 200.5 c 128,-1,11
 482 125 482 125 600 125 c 0,12,13
 687 125 687 125 761.5 166 c 128,-1,14
 836 207 836 207 889 285 c 0,15,16
 946 367 946 367 981 478 c 128,-1,17
 1016 589 1016 589 1016 690 c 0,0,1
446 950 m 1,18,19
 520 1047 520 1047 620.5 1097 c 128,-1,20
 721 1147 721 1147 844 1147 c 0,21,22
 1016 1147 1016 1147 1111 1034.5 c 128,-1,23
 1206 922 1206 922 1206 719 c 0,24,25
 1206 553 1206 553 1147 402.5 c 128,-1,26
 1088 252 1088 252 977 133 c 0,27,28
 903 54 903 54 810 12.5 c 128,-1,29
 717 -29 717 -29 614 -29 c 0,30,31
 495 -29 495 -29 414 20.5 c 128,-1,32
 333 70 333 70 293 168 c 1,33,-1
 178 -426 l 1,34,-1
 -6 -426 l 1,35,-1
 295 1120 l 1,36,-1
 479 1120 l 1,37,-1
 446 950 l 1,18,19
EndSplineSet
EndChar
StartChar: q
Encoding: 113 113 113
Width: 1300
Flags: W
Fore
854 168 m 1,0,1
 780 71 780 71 679.5 21 c 128,-1,2
 579 -29 579 -29 457 -29 c 0,3,4
 287 -29 287 -29 190.5 85.5 c 128,-1,5
 94 200 94 200 94 401 c 0,6,7
 94 563 94 563 153.5 714 c 128,-1,8
 213 865 213 865 324 985 c 0,9,10
 396 1063 396 1063 489.5 1105 c 128,-1,11
 583 1147 583 1147 686 1147 c 0,12,13
 810 1147 810 1147 890 1098 c 128,-1,14
 970 1049 970 1049 1006 950 c 1,15,-1
 1038 1118 l 1,16,-1
 1223 1118 l 1,17,-1
 924 -422 l 1,18,-1
 739 -422 l 1,19,-1
 854 168 l 1,0,1
285 428 m 0,20,21
 285 280 285 280 347 202.5 c 128,-1,22
 409 125 409 125 526 125 c 0,23,24
 700 125 700 125 823 291.5 c 128,-1,25
 946 458 946 458 946 696 c 0,26,27
 946 840 946 840 882.5 916.5 c 128,-1,28
 819 993 819 993 700 993 c 0,29,30
 613 993 613 993 539 952.5 c 128,-1,31
 465 912 465 912 410 834 c 0,32,33
 352 752 352 752 318.5 642 c 128,-1,34
 285 532 285 532 285 428 c 0,20,21
EndSplineSet
EndChar
StartChar: r
Encoding: 114 114 114
Width: 842
Flags: HW
AnchorPoint: "above" 588 1147 basechar 0
Fore
913 950 m 1,0,1
 885 965 885 965 849 973 c 128,-1,2
 813 981 813 981 772 981 c 0,3,4
 625 981 625 981 515 869.5 c 128,-1,5
 405 758 405 758 369 571 c 1,6,-1
 256 0 l 1,7,-1
 72 0 l 1,8,-1
 291 1120 l 1,9,-1
 475 1120 l 1,10,-1
 440 946 l 1,11,12
 513 1043 513 1043 614.5 1095 c 128,-1,13
 716 1147 716 1147 831 1147 c 0,14,15
 861 1147 861 1147 890 1143.5 c 128,-1,16
 919 1140 919 1140 948 1132 c 1,17,-1
 913 950 l 1,0,1
EndSplineSet
KernsSLIFO: 46 -188 0 0 45 -112 0 0 44 -188 0 0
EndChar
StartChar: s
Encoding: 115 115 115
Width: 1067
Flags: HW
AnchorPoint: "above" 660 1147 basechar 0
Fore
1024 1087 m 1,0,-1
 989 913 l 1,1,2
 916 953 916 953 835 973 c 128,-1,3
 754 993 754 993 668 993 c 0,4,5
 523 993 523 993 439.5 943.5 c 128,-1,6
 356 894 356 894 356 809 c 0,7,8
 356 710 356 710 550 657 c 0,9,10
 565 653 565 653 572 651 c 2,11,-1
 631 633 l 1,12,13
 815 582 815 582 876.5 526 c 128,-1,14
 938 470 938 470 938 373 c 0,15,16
 938 195 938 195 796.5 83 c 128,-1,17
 655 -29 655 -29 426 -29 c 0,18,19
 337 -29 337 -29 239 -12 c 128,-1,20
 141 5 141 5 23 41 c 1,21,-1
 59 231 l 1,22,23
 160 179 160 179 258 152 c 128,-1,24
 356 125 356 125 446 125 c 0,25,26
 581 125 581 125 665.5 183 c 128,-1,27
 750 241 750 241 750 330 c 0,28,29
 750 426 750 426 528 485 c 2,30,-1
 509 490 l 1,31,-1
 446 506 l 2,32,33
 306 543 306 543 241 603.5 c 128,-1,34
 176 664 176 664 176 758 c 0,35,36
 176 937 176 937 310.5 1042 c 128,-1,37
 445 1147 445 1147 676 1147 c 0,38,39
 767 1147 767 1147 853.5 1132 c 128,-1,40
 940 1117 940 1117 1024 1087 c 1,0,-1
EndSplineSet
EndChar
StartChar: t
Encoding: 116 116 116
Width: 803
Flags: W
Fore
866 1120 m 1,0,-1
 838 977 l 1,1,-1
 471 977 l 1,2,-1
 352 369 l 1,3,4
 346 335 346 335 343 312 c 128,-1,5
 340 289 340 289 340 276 c 0,6,7
 340 212 340 212 378.5 183 c 128,-1,8
 417 154 417 154 502 154 c 2,9,-1
 688 154 l 1,10,-1
 657 0 l 1,11,-1
 481 0 l 2,12,13
 317 0 317 0 236.5 64 c 128,-1,14
 156 128 156 128 156 258 c 0,15,16
 156 281 156 281 159 308.5 c 128,-1,17
 162 336 162 336 168 369 c 1,18,-1
 287 977 l 1,19,-1
 131 977 l 1,20,-1
 160 1120 l 1,21,-1
 313 1120 l 1,22,-1
 375 1438 l 1,23,-1
 559 1438 l 1,24,-1
 498 1120 l 1,25,-1
 866 1120 l 1,0,-1
EndSplineSet
EndChar
StartChar: u
Encoding: 117 117 117
Width: 1298
Flags: HW
AnchorPoint: "above" 724 1147 basechar 0
Fore
137 444 m 1,0,-1
 268 1120 l 1,1,-1
 453 1120 l 1,2,-1
 322 451 l 1,3,4
 312 402 312 402 307.5 367 c 128,-1,5
 303 332 303 332 303 309 c 0,6,7
 303 224 303 224 355 177.5 c 128,-1,8
 407 131 407 131 502 131 c 0,9,10
 650 131 650 131 758 231 c 128,-1,11
 866 331 866 331 899 500 c 1,12,-1
 1022 1120 l 1,13,-1
 1206 1120 l 1,14,-1
 989 0 l 1,15,-1
 805 0 l 1,16,-1
 842 176 l 1,17,18
 764 78 764 78 656.5 24.5 c 128,-1,19
 549 -29 549 -29 428 -29 c 0,20,21
 281 -29 281 -29 199 51.5 c 128,-1,22
 117 132 117 132 117 276 c 0,23,24
 117 306 117 306 122 351 c 128,-1,25
 127 396 127 396 137 444 c 1,0,-1
EndSplineSet
EndChar
StartChar: v
Encoding: 118 118 118
Width: 1212
Flags: W
Fore
147 1120 m 1,0,-1
 342 1120 l 1,1,-1
 506 168 l 1,2,-1
 1042 1120 l 1,3,-1
 1237 1120 l 1,4,-1
 600 0 l 1,5,-1
 352 0 l 1,6,-1
 147 1120 l 1,0,-1
EndSplineSet
KernsSLIFO: 46 -167 0 0 44 -167 0 0
EndChar
StartChar: w
Encoding: 119 119 119
Width: 1675
Flags: HW
AnchorPoint: "above" 915 1147 basechar 0
Fore
174 1120 m 1,0,-1
 356 1120 l 1,1,-1
 403 219 l 1,2,-1
 821 1120 l 1,3,-1
 1034 1120 l 1,4,-1
 1096 219 l 1,5,-1
 1493 1120 l 1,6,-1
 1677 1120 l 1,7,-1
 1165 0 l 1,8,-1
 950 0 l 1,9,-1
 895 928 l 1,10,-1
 467 0 l 1,11,-1
 250 0 l 1,12,-1
 174 1120 l 1,0,-1
EndSplineSet
KernsSLIFO: 46 -131 0 0 44 -131 0 0
EndChar
StartChar: x
Encoding: 120 120 120
Width: 1212
Flags: W
Fore
1229 1120 m 1,0,-1
 715 571 l 1,1,-1
 1030 0 l 1,2,-1
 819 0 l 1,3,-1
 582 444 l 1,4,-1
 170 0 l 1,5,-1
 -53 0 l 1,6,-1
 498 590 l 1,7,-1
 205 1120 l 1,8,-1
 416 1120 l 1,9,-1
 631 715 l 1,10,-1
 1006 1120 l 1,11,-1
 1229 1120 l 1,0,-1
EndSplineSet
EndChar
StartChar: y
Encoding: 121 121 121
Width: 1212
Flags: HW
AnchorPoint: "above" 680 1147 basechar 0
Fore
508 -104 m 2,0,1
 380 -319 380 -319 299.5 -372.5 c 128,-1,2
 219 -426 219 -426 94 -426 c 2,3,-1
 -51 -426 l 1,4,-1
 -20 -272 l 1,5,-1
 86 -272 l 2,6,7
 163 -272 163 -272 217 -230 c 128,-1,8
 271 -188 271 -188 338 -66 c 1,9,-1
 395 41 l 1,10,-1
 147 1120 l 1,11,-1
 342 1120 l 1,12,-1
 528 262 l 1,13,-1
 1042 1120 l 1,14,-1
 1235 1120 l 1,15,-1
 508 -104 l 2,0,1
EndSplineSet
KernsSLIFO: 46 -159 0 0 45 -73 0 0 44 -159 0 0
EndChar
StartChar: z
Encoding: 122 122 122
Width: 1075
Flags: HW
AnchorPoint: "above" 657 1147 basechar 0
Fore
238 1120 m 1,0,-1
 1112 1120 l 1,1,-1
 1079 952 l 1,2,-1
 236 147 l 1,3,-1
 932 147 l 1,4,-1
 903 0 l 1,5,-1
 -6 0 l 1,6,-1
 27 168 l 1,7,-1
 870 973 l 1,8,-1
 209 973 l 1,9,-1
 238 1120 l 1,0,-1
EndSplineSet
EndChar
StartChar: braceleft
Encoding: 123 123 123
Width: 1303
Flags: W
Fore
1239 1556 m 1,0,-1
 1210 1413 l 1,1,-1
 1133 1413 l 2,2,3
 997 1413 997 1413 950 1373.5 c 128,-1,4
 903 1334 903 1334 872 1184 c 1,5,-1
 821 932 l 1,6,7
 789 772 789 772 728.5 699.5 c 128,-1,8
 668 627 668 627 557 606 c 1,9,10
 630 588 630 588 670.5 536.5 c 128,-1,11
 711 485 711 485 711 410 c 0,12,13
 711 386 711 386 707 353 c 128,-1,14
 703 320 703 320 696 282 c 1,15,-1
 649 38 l 1,16,17
 644 7 644 7 641.5 -19.5 c 128,-1,18
 639 -46 639 -46 639 -70 c 0,19,20
 639 -133 639 -133 681.5 -161.5 c 128,-1,21
 724 -190 724 -190 821 -190 c 2,22,-1
 899 -190 l 1,23,-1
 870 -334 l 1,24,-1
 799 -334 l 2,25,26
 611 -334 611 -334 530 -279.5 c 128,-1,27
 449 -225 449 -225 449 -102 c 0,28,29
 449 -70 449 -70 452.5 -36 c 128,-1,30
 456 -2 456 -2 463 35 c 2,31,-1
 508 270 l 1,32,33
 508 273 508 273 510 282 c 0,34,35
 520 332 520 332 520 377 c 0,36,37
 520 462 520 462 471 499.5 c 128,-1,38
 422 537 422 537 309 537 c 2,39,-1
 248 537 l 1,40,-1
 276 684 l 1,41,-1
 338 684 l 2,42,43
 482 684 482 684 545.5 738.5 c 128,-1,44
 609 793 609 793 641 944 c 1,45,-1
 688 1188 l 1,46,47
 714 1311 714 1311 749.5 1382.5 c 128,-1,48
 785 1454 785 1454 840 1493 c 0,49,50
 886 1527 886 1527 955 1541.5 c 128,-1,51
 1024 1556 1024 1556 1157 1556 c 2,52,-1
 1239 1556 l 1,0,-1
EndSplineSet
EndChar
StartChar: bar
Encoding: 124 124 124
Width: 690
Flags: W
Fore
430 1565 m 1,0,-1
 430 -483 l 1,1,-1
 260 -483 l 1,2,-1
 260 1565 l 1,3,-1
 430 1565 l 1,0,-1
EndSplineSet
EndChar
StartChar: braceright
Encoding: 125 125 125
Width: 1303
Flags: W
Fore
14 -334 m 1,0,-1
 43 -190 l 1,1,-1
 121 -190 l 2,2,3
 257 -190 257 -190 304 -150.5 c 128,-1,4
 351 -111 351 -111 381 39 c 1,5,-1
 432 291 l 1,6,7
 465 451 465 451 525 523.5 c 128,-1,8
 585 596 585 596 696 616 c 1,9,10
 623 635 623 635 583 686 c 128,-1,11
 543 737 543 737 543 813 c 0,12,13
 543 838 543 838 546.5 870 c 128,-1,14
 550 902 550 902 557 940 c 1,15,-1
 604 1183 l 1,16,17
 610 1217 610 1217 612 1242 c 128,-1,18
 614 1267 614 1267 614 1292 c 0,19,20
 614 1356 614 1356 571.5 1384.5 c 128,-1,21
 529 1413 529 1413 432 1413 c 2,22,-1
 354 1413 l 1,23,-1
 381 1556 l 1,24,-1
 455 1556 l 2,25,26
 642 1556 642 1556 723.5 1502 c 128,-1,27
 805 1448 805 1448 805 1325 c 0,28,29
 805 1294 805 1294 801.5 1260 c 128,-1,30
 798 1226 798 1226 790 1187 c 1,31,-1
 745 952 l 1,32,33
 745 949 745 949 743 940 c 0,34,35
 733 891 733 891 733 846 c 0,36,37
 733 760 733 760 782 723 c 128,-1,38
 831 686 831 686 944 686 c 2,39,-1
 1006 686 l 1,40,-1
 977 539 l 1,41,-1
 915 539 l 2,42,43
 771 539 771 539 708 484 c 128,-1,44
 645 429 645 429 616 279 c 1,45,-1
 563 35 l 1,46,47
 537 -91 537 -91 502 -161.5 c 128,-1,48
 467 -232 467 -232 414 -270 c 0,49,50
 367 -304 367 -304 298 -319 c 128,-1,51
 229 -334 229 -334 96 -334 c 2,52,-1
 14 -334 l 1,0,-1
EndSplineSet
EndChar
StartChar: asciitilde
Encoding: 126 126 126
Width: 1716
Flags: W
Fore
1499 817 m 1,0,-1
 1499 639 l 1,1,2
 1394 560 1394 560 1304.5 526 c 128,-1,3
 1215 492 1215 492 1118 492 c 0,4,5
 1008 492 1008 492 862 551 c 0,6,7
 851 555 851 555 846 557 c 0,8,9
 839 560 839 560 824 565 c 0,10,11
 669 627 669 627 575 627 c 0,12,13
 487 627 487 627 401 588.5 c 128,-1,14
 315 550 315 550 217 467 c 1,15,-1
 217 645 l 1,16,17
 322 724 322 724 411.5 758.5 c 128,-1,18
 501 793 501 793 598 793 c 0,19,20
 708 793 708 793 855 733 c 0,21,22
 865 729 865 729 870 727 c 0,23,24
 878 724 878 724 892 719 c 0,25,26
 1047 657 1047 657 1141 657 c 0,27,28
 1227 657 1227 657 1311.5 695 c 128,-1,29
 1396 733 1396 733 1499 817 c 1,0,-1
EndSplineSet
EndChar
StartChar: exclamdown
Encoding: 161 161 161
Width: 821
Flags: W
Fore
377 0 m 1,0,-1
 174 0 l 1,1,-1
 301 655 l 1,2,-1
 391 1012 l 1,3,-1
 553 1012 l 1,4,-1
 504 655 l 1,5,-1
 377 0 l 1,0,-1
616 1239 m 1,6,-1
 414 1239 l 1,7,-1
 463 1493 l 1,8,-1
 668 1493 l 1,9,-1
 616 1239 l 1,6,-1
EndSplineSet
EndChar
StartChar: cent
Encoding: 162 162 162
Width: 1303
Flags: W
Fore
758 985 m 1,0,1
 580 962 580 962 460 801.5 c 128,-1,2
 340 641 340 641 340 426 c 0,3,4
 340 292 340 292 401 218.5 c 128,-1,5
 462 145 462 145 590 125 c 1,6,-1
 758 985 l 1,0,1
889 1145 m 1,7,8
 962 1138 962 1138 1026.5 1121.5 c 128,-1,9
 1091 1105 1091 1105 1153 1077 c 1,10,-1
 1118 895 l 1,11,12
 1071 932 1071 932 1009 954.5 c 128,-1,13
 947 977 947 977 858 989 c 1,14,-1
 690 127 l 1,15,16
 756 132 756 132 830 154.5 c 128,-1,17
 904 177 904 177 987 219 c 1,18,-1
 952 37 l 1,19,20
 887 9 887 9 814 -7.5 c 128,-1,21
 741 -24 741 -24 664 -29 c 1,22,-1
 604 -313 l 1,23,-1
 504 -313 l 1,24,-1
 563 -29 l 1,25,26
 366 -16 366 -16 259 95.5 c 128,-1,27
 152 207 152 207 152 401 c 0,28,29
 152 707 152 707 329 914.5 c 128,-1,30
 506 1122 506 1122 788 1145 c 1,31,-1
 844 1430 l 1,32,-1
 944 1430 l 1,33,-1
 889 1145 l 1,7,8
EndSplineSet
EndChar
StartChar: sterling
Encoding: 163 163 163
Width: 1303
Flags: W
Fore
1305 1460 m 1,0,-1
 1270 1278 l 1,1,2
 1209 1318 1209 1318 1143.5 1339 c 128,-1,3
 1078 1360 1078 1360 1014 1360 c 0,4,5
 867 1360 867 1360 793 1280.5 c 128,-1,6
 719 1201 719 1201 678 993 c 1,7,-1
 637 778 l 1,8,-1
 1028 778 l 1,9,-1
 999 635 l 1,10,-1
 608 635 l 1,11,-1
 518 170 l 1,12,-1
 1055 170 l 1,13,-1
 1022 0 l 1,14,-1
 49 0 l 1,15,-1
 82 170 l 1,16,-1
 317 170 l 1,17,-1
 408 635 l 1,18,-1
 209 635 l 1,19,-1
 238 778 l 1,20,-1
 436 778 l 1,21,-1
 481 1016 l 1,22,23
 533 1278 533 1278 663.5 1399 c 128,-1,24
 794 1520 794 1520 1026 1520 c 0,25,26
 1096 1520 1096 1520 1166 1505 c 128,-1,27
 1236 1490 1236 1490 1305 1460 c 1,0,-1
EndSplineSet
EndChar
StartChar: currency
Encoding: 164 164 164
Width: 1303
Flags: W
Fore
891 993 m 1,0,-1
 1098 1202 l 1,1,-1
 1212 1087 l 1,2,-1
 1006 881 l 1,3,4
 1043 822 1043 822 1061 762.5 c 128,-1,5
 1079 703 1079 703 1079 641 c 0,6,7
 1079 578 1079 578 1060 520.5 c 128,-1,8
 1041 463 1041 463 1001 406 c 1,9,-1
 1210 199 l 1,10,-1
 1096 86 l 1,11,-1
 889 293 l 1,12,13
 830 253 830 253 772 234 c 128,-1,14
 714 215 714 215 653 215 c 0,15,16
 595 215 595 215 535 233.5 c 128,-1,17
 475 252 475 252 414 289 c 1,18,-1
 207 82 l 1,19,-1
 94 197 l 1,20,-1
 301 403 l 1,21,22
 264 465 264 465 245.5 524 c 128,-1,23
 227 583 227 583 227 641 c 0,24,25
 227 705 227 705 246 763 c 128,-1,26
 265 821 265 821 303 877 c 1,27,-1
 96 1083 l 1,28,-1
 211 1198 l 1,29,-1
 418 991 l 1,30,31
 473 1030 473 1030 531 1048.5 c 128,-1,32
 589 1067 589 1067 653 1067 c 0,33,34
 713 1067 713 1067 771.5 1049 c 128,-1,35
 830 1031 830 1031 891 993 c 1,0,-1
922 643 m 0,36,37
 922 755 922 755 844.5 832 c 128,-1,38
 767 909 767 909 653 909 c 0,39,40
 541 909 541 909 462 832 c 128,-1,41
 383 755 383 755 383 643 c 0,42,43
 383 529 383 529 461.5 451 c 128,-1,44
 540 373 540 373 653 373 c 0,45,46
 766 373 766 373 844 451.5 c 128,-1,47
 922 530 922 530 922 643 c 0,36,37
EndSplineSet
EndChar
StartChar: yen
Encoding: 165 165 165
Width: 1303
Flags: W
Fore
1122 455 m 1,0,-1
 711 455 l 1,1,-1
 623 0 l 1,2,-1
 420 0 l 1,3,-1
 508 455 l 1,4,-1
 92 455 l 1,5,-1
 115 578 l 1,6,-1
 532 578 l 1,7,-1
 543 629 l 1,8,-1
 489 784 l 1,9,-1
 156 784 l 1,10,-1
 180 907 l 1,11,-1
 446 907 l 1,12,-1
 242 1493 l 1,13,-1
 432 1493 l 1,14,-1
 672 793 l 1,15,-1
 1184 1493 l 1,16,-1
 1378 1493 l 1,17,-1
 948 907 l 1,18,-1
 1210 907 l 1,19,-1
 1186 784 l 1,20,-1
 858 784 l 1,21,-1
 745 629 l 1,22,-1
 735 578 l 1,23,-1
 1145 578 l 1,24,-1
 1122 455 l 1,0,-1
EndSplineSet
EndChar
StartChar: brokenbar
Encoding: 166 166 166
Width: 690
Flags: W
Fore
430 408 m 1,0,-1
 430 -350 l 1,1,-1
 260 -350 l 1,2,-1
 260 408 l 1,3,-1
 430 408 l 1,0,-1
430 1432 m 1,4,-1
 430 674 l 1,5,-1
 260 674 l 1,6,-1
 260 1432 l 1,7,-1
 430 1432 l 1,4,-1
EndSplineSet
EndChar
StartChar: section
Encoding: 167 167 167
Width: 1024
Flags: W
Fore
602 410 m 1,0,1
 684 459 684 459 727 514.5 c 128,-1,2
 770 570 770 570 770 627 c 0,3,4
 770 681 770 681 716.5 737.5 c 128,-1,5
 663 794 663 794 520 885 c 2,6,-1
 440 936 l 1,7,8
 359 885 359 885 316.5 829 c 128,-1,9
 274 773 274 773 274 717 c 0,10,11
 274 667 274 667 316.5 618.5 c 128,-1,12
 359 570 359 570 485 487 c 2,13,-1
 602 410 l 1,0,1
993 1462 m 1,14,-1
 961 1298 l 1,15,16
 889 1337 889 1337 820.5 1356.5 c 128,-1,17
 752 1376 752 1376 694 1376 c 0,18,19
 591 1376 591 1376 525 1327.5 c 128,-1,20
 459 1279 459 1279 459 1206 c 0,21,22
 459 1127 459 1127 594 1037 c 0,23,24
 624 1017 624 1017 641 1006 c 2,25,-1
 729 946 l 2,26,27
 851 861 851 861 893.5 802.5 c 128,-1,28
 936 744 936 744 936 674 c 0,29,30
 936 573 936 573 870 483 c 128,-1,31
 804 393 804 393 690 340 c 1,32,33
 731 305 731 305 751.5 260 c 128,-1,34
 772 215 772 215 772 160 c 0,35,36
 772 3 772 3 650.5 -96 c 128,-1,37
 529 -195 529 -195 330 -195 c 0,38,39
 261 -195 261 -195 184 -180.5 c 128,-1,40
 107 -166 107 -166 25 -137 c 1,41,-1
 57 27 l 1,42,43
 133 -11 133 -11 205 -31 c 128,-1,44
 277 -51 277 -51 336 -51 c 0,45,46
 448 -51 448 -51 515 -3.5 c 128,-1,47
 582 44 582 44 582 123 c 0,48,49
 582 221 582 221 402 342 c 2,50,-1
 387 352 l 1,51,-1
 311 403 l 2,52,53
 188 487 188 487 147 543.5 c 128,-1,54
 106 600 106 600 106 674 c 0,55,56
 106 770 106 770 170 856.5 c 128,-1,57
 234 943 234 943 352 1006 c 1,58,59
 309 1044 309 1044 289.5 1084.5 c 128,-1,60
 270 1125 270 1125 270 1176 c 0,61,62
 270 1323 270 1323 391.5 1421.5 c 128,-1,63
 513 1520 513 1520 700 1520 c 0,64,65
 771 1520 771 1520 843.5 1505.5 c 128,-1,66
 916 1491 916 1491 993 1462 c 1,14,-1
EndSplineSet
EndChar
StartChar: dieresis
Encoding: 168 168 168
Width: 1024
Flags: W
Fore
416 1552 m 1,0,-1
 621 1552 l 1,1,-1
 580 1350 l 1,2,-1
 377 1350 l 1,3,-1
 416 1552 l 1,0,-1
807 1552 m 1,4,-1
 1010 1552 l 1,5,-1
 971 1350 l 1,6,-1
 768 1350 l 1,7,-1
 807 1552 l 1,4,-1
EndSplineSet
Ligature: 0 1 'liga' space uni0308
EndChar
StartChar: copyright
Encoding: 169 169 169
Width: 2048
Flags: W
Fore
1024 1485 m 0,0,1
 1176 1485 1176 1485 1307.5 1430 c 128,-1,2
 1439 1375 1439 1375 1548 1266 c 0,3,4
 1657 1157 1657 1157 1711 1026 c 128,-1,5
 1765 895 1765 895 1765 741 c 0,6,7
 1765 589 1765 589 1711 458.5 c 128,-1,8
 1657 328 1657 328 1548 219 c 0,9,10
 1439 110 1439 110 1307.5 55 c 128,-1,11
 1176 0 1176 0 1024 0 c 0,12,13
 872 0 872 0 740.5 55 c 128,-1,14
 609 110 609 110 500 219 c 0,15,16
 391 328 391 328 337 458.5 c 128,-1,17
 283 589 283 589 283 741 c 0,18,19
 283 895 283 895 337 1026 c 128,-1,20
 391 1157 391 1157 500 1266 c 0,21,22
 609 1375 609 1375 740.5 1430 c 128,-1,23
 872 1485 872 1485 1024 1485 c 0,0,1
1024 1382 m 0,24,25
 893 1382 893 1382 780 1335 c 128,-1,26
 667 1288 667 1288 573 1194 c 0,27,28
 479 1100 479 1100 431 985.5 c 128,-1,29
 383 871 383 871 383 741 c 0,30,31
 383 612 383 612 431 498.5 c 128,-1,32
 479 385 479 385 573 291 c 0,33,34
 667 197 667 197 780 149.5 c 128,-1,35
 893 102 893 102 1024 102 c 0,36,37
 1156 102 1156 102 1269.5 149.5 c 128,-1,38
 1383 197 1383 197 1477 291 c 0,39,40
 1570 384 1570 384 1616.5 497 c 128,-1,41
 1663 610 1663 610 1663 741 c 0,42,43
 1663 874 1663 874 1616 987.5 c 128,-1,44
 1569 1101 1569 1101 1477 1194 c 0,45,46
 1383 1288 1383 1288 1269.5 1335 c 128,-1,47
 1156 1382 1156 1382 1024 1382 c 0,24,25
1323 1137 m 1,48,-1
 1323 1008 l 1,49,50
 1257 1041 1257 1041 1192 1057 c 128,-1,51
 1127 1073 1127 1073 1061 1073 c 0,52,53
 912 1073 912 1073 828.5 985.5 c 128,-1,54
 745 898 745 898 745 741 c 0,55,56
 745 582 745 582 830.5 495 c 128,-1,57
 916 408 916 408 1071 408 c 0,58,59
 1135 408 1135 408 1196 423.5 c 128,-1,60
 1257 439 1257 439 1323 473 c 1,61,-1
 1323 346 l 1,62,63
 1256 317 1256 317 1187.5 303 c 128,-1,64
 1119 289 1119 289 1049 289 c 0,65,66
 833 289 833 289 707.5 411 c 128,-1,67
 582 533 582 533 582 741 c 0,68,69
 582 950 582 950 707.5 1071 c 128,-1,70
 833 1192 833 1192 1049 1192 c 0,71,72
 1122 1192 1122 1192 1190 1178 c 128,-1,73
 1258 1164 1258 1164 1323 1137 c 1,48,-1
EndSplineSet
EndChar
StartChar: ordfeminine
Encoding: 170 170 170
Width: 965
Flags: W
Fore
594 1104 m 2,0,1
 437 1104 437 1104 366 1066.5 c 128,-1,2
 295 1029 295 1029 295 946 c 0,3,4
 295 887 295 887 333 852 c 128,-1,5
 371 817 371 817 436 817 c 0,6,7
 551 817 551 817 629.5 884.5 c 128,-1,8
 708 952 708 952 735 1075 c 1,9,-1
 741 1104 l 1,10,-1
 594 1104 l 2,0,1
903 1165 m 1,11,-1
 815 717 l 1,12,-1
 666 717 l 1,13,-1
 688 829 l 1,14,15
 630 764 630 764 553.5 731 c 128,-1,16
 477 698 477 698 381 698 c 0,17,18
 274 698 274 698 208.5 759 c 128,-1,19
 143 820 143 820 143 920 c 0,20,21
 143 1060 143 1060 258.5 1139.5 c 128,-1,22
 374 1219 374 1219 582 1219 c 2,23,-1
 764 1219 l 1,24,-1
 764 1223 l 1,25,26
 766 1242 766 1242 767 1252.5 c 128,-1,27
 768 1263 768 1263 768 1270 c 0,28,29
 768 1340 768 1340 721.5 1372.5 c 128,-1,30
 675 1405 675 1405 575 1405 c 0,31,32
 505 1405 505 1405 432.5 1388 c 128,-1,33
 360 1371 360 1371 287 1337 c 1,34,-1
 311 1464 l 1,35,36
 390 1492 390 1492 466 1506 c 128,-1,37
 542 1520 542 1520 610 1520 c 0,38,39
 760 1520 760 1520 836.5 1458 c 128,-1,40
 913 1396 913 1396 913 1276 c 0,41,42
 913 1249 913 1249 910.5 1221.5 c 128,-1,43
 908 1194 908 1194 903 1165 c 1,11,-1
104 592 m 1,44,-1
 793 592 l 1,45,-1
 770 469 l 1,46,-1
 82 469 l 1,47,-1
 104 592 l 1,44,-1
EndSplineSet
EndChar
StartChar: guillemotleft
Encoding: 171 171 171
Width: 1264
Flags: W
Fore
692 1059 m 1,0,-1
 653 858 l 1,1,-1
 299 588 l 1,2,-1
 551 322 l 1,3,-1
 514 141 l 1,4,-1
 127 559 l 1,5,-1
 143 641 l 1,6,-1
 692 1059 l 1,0,-1
1137 1059 m 1,7,-1
 1098 858 l 1,8,-1
 743 588 l 1,9,-1
 995 322 l 1,10,-1
 958 141 l 1,11,-1
 571 559 l 1,12,-1
 588 641 l 1,13,-1
 1137 1059 l 1,7,-1
EndSplineSet
EndChar
StartChar: logicalnot
Encoding: 172 172 172
Width: 1716
Flags: W
Fore
217 862 m 1,0,-1
 1499 862 l 1,1,-1
 1499 287 l 1,2,-1
 1331 287 l 1,3,-1
 1331 692 l 1,4,-1
 217 692 l 1,5,-1
 217 862 l 1,0,-1
EndSplineSet
EndChar
StartChar: sfthyphen
Encoding: 173 173 173
Width: 739
Flags: W
Fore
125 643 m 1,0,-1
 664 643 l 1,1,-1
 633 479 l 1,2,-1
 92 479 l 1,3,-1
 125 643 l 1,0,-1
EndSplineSet
EndChar
StartChar: registered
Encoding: 174 174 174
Width: 2048
Flags: W
Fore
1024 1382 m 0,0,1
 893 1382 893 1382 780 1335 c 128,-1,2
 667 1288 667 1288 573 1194 c 0,3,4
 479 1100 479 1100 431 985.5 c 128,-1,5
 383 871 383 871 383 741 c 0,6,7
 383 612 383 612 431 498.5 c 128,-1,8
 479 385 479 385 573 291 c 0,9,10
 667 197 667 197 780 149.5 c 128,-1,11
 893 102 893 102 1024 102 c 0,12,13
 1156 102 1156 102 1269.5 149.5 c 128,-1,14
 1383 197 1383 197 1477 291 c 0,15,16
 1570 384 1570 384 1616.5 497 c 128,-1,17
 1663 610 1663 610 1663 741 c 0,18,19
 1663 874 1663 874 1616 987.5 c 128,-1,20
 1569 1101 1569 1101 1477 1194 c 0,21,22
 1383 1288 1383 1288 1269.5 1335 c 128,-1,23
 1156 1382 1156 1382 1024 1382 c 0,0,1
1024 1485 m 0,24,25
 1176 1485 1176 1485 1307.5 1430 c 128,-1,26
 1439 1375 1439 1375 1548 1266 c 0,27,28
 1657 1157 1657 1157 1711 1026 c 128,-1,29
 1765 895 1765 895 1765 741 c 0,30,31
 1765 589 1765 589 1711 458.5 c 128,-1,32
 1657 328 1657 328 1548 219 c 0,33,34
 1439 110 1439 110 1307.5 55 c 128,-1,35
 1176 0 1176 0 1024 0 c 0,36,37
 872 0 872 0 740.5 55 c 128,-1,38
 609 110 609 110 500 219 c 0,39,40
 391 328 391 328 337 458.5 c 128,-1,41
 283 589 283 589 283 741 c 0,42,43
 283 895 283 895 337 1026 c 128,-1,44
 391 1157 391 1157 500 1266 c 0,45,46
 609 1375 609 1375 740.5 1430 c 128,-1,47
 872 1485 872 1485 1024 1485 c 0,24,25
997 1071 m 2,48,-1
 874 1071 l 1,49,-1
 874 795 l 1,50,-1
 997 795 l 2,51,52
 1107 795 1107 795 1150.5 826 c 128,-1,53
 1194 857 1194 857 1194 932 c 0,54,55
 1194 1008 1194 1008 1150 1039.5 c 128,-1,56
 1106 1071 1106 1071 997 1071 c 2,48,-1
1004 1174 m 2,57,58
 1180 1174 1180 1174 1267 1114.5 c 128,-1,59
 1354 1055 1354 1055 1354 934 c 0,60,61
 1354 848 1354 848 1301.5 792 c 128,-1,62
 1249 736 1249 736 1153 719 c 1,63,64
 1177 711 1177 711 1210.5 672.5 c 128,-1,65
 1244 634 1244 634 1290 561 c 1,66,-1
 1427 338 l 1,67,-1
 1255 338 l 1,68,-1
 1126 547 l 2,69,70
 1067 643 1067 643 1030.5 668.5 c 128,-1,71
 994 694 994 694 940 694 c 2,72,-1
 874 694 l 1,73,-1
 874 338 l 1,74,-1
 719 338 l 1,75,-1
 719 1174 l 1,76,-1
 1004 1174 l 2,57,58
EndSplineSet
EndChar
StartChar: macron
Encoding: 175 175 175
Width: 1024
Flags: W
Fore
410 1526 m 1,0,-1
 1008 1526 l 1,1,-1
 979 1378 l 1,2,-1
 381 1378 l 1,3,-1
 410 1526 l 1,0,-1
EndSplineSet
Ligature: 0 1 'liga' space uni0304
EndChar
StartChar: degree
Encoding: 176 176 176
Width: 1024
Flags: W
Fore
512 1391 m 0,0,1
 432 1391 432 1391 377 1335.5 c 128,-1,2
 322 1280 322 1280 322 1200 c 0,3,4
 322 1121 322 1121 377 1066.5 c 128,-1,5
 432 1012 432 1012 512 1012 c 0,6,7
 592 1012 592 1012 647 1066.5 c 128,-1,8
 702 1121 702 1121 702 1200 c 0,9,10
 702 1279 702 1279 646.5 1335 c 128,-1,11
 591 1391 591 1391 512 1391 c 0,0,1
512 1520 m 0,12,13
 576 1520 576 1520 635 1495.5 c 128,-1,14
 694 1471 694 1471 737 1425 c 1,15,16
 783 1380 783 1380 806 1323 c 128,-1,17
 829 1266 829 1266 829 1200 c 0,18,19
 829 1068 829 1068 736.5 976.5 c 128,-1,20
 644 885 644 885 510 885 c 0,21,22
 375 885 375 885 285 975 c 128,-1,23
 195 1065 195 1065 195 1200 c 0,24,25
 195 1334 195 1334 287 1427 c 128,-1,26
 379 1520 379 1520 512 1520 c 0,12,13
EndSplineSet
EndChar
StartChar: plusminus
Encoding: 177 177 177
Width: 1716
Flags: W
Fore
942 1284 m 1,0,-1
 942 897 l 1,1,-1
 1499 897 l 1,2,-1
 1499 727 l 1,3,-1
 942 727 l 1,4,-1
 942 340 l 1,5,-1
 774 340 l 1,6,-1
 774 727 l 1,7,-1
 217 727 l 1,8,-1
 217 897 l 1,9,-1
 774 897 l 1,10,-1
 774 1284 l 1,11,-1
 942 1284 l 1,0,-1
217 170 m 1,12,-1
 1499 170 l 1,13,-1
 1499 0 l 1,14,-1
 217 0 l 1,15,-1
 217 170 l 1,12,-1
EndSplineSet
EndChar
StartChar: twosuperior
Encoding: 178 178 178
Width: 821
Flags: W
Fore
659 1090 m 2,0,-1
 274 782 l 1,1,-1
 715 782 l 1,2,-1
 692 668 l 1,3,-1
 74 668 l 1,4,-1
 96 778 l 1,5,-1
 518 1118 l 1,6,7
 577 1164 577 1164 606 1207 c 128,-1,8
 635 1250 635 1250 635 1290 c 0,9,10
 635 1344 635 1344 593 1377.5 c 128,-1,11
 551 1411 551 1411 481 1411 c 0,12,13
 426 1411 426 1411 360 1394 c 128,-1,14
 294 1377 294 1377 211 1341 c 1,15,-1
 236 1464 l 1,16,17
 312 1492 312 1492 380 1506 c 128,-1,18
 448 1520 448 1520 512 1520 c 0,19,20
 635 1520 635 1520 711.5 1463 c 128,-1,21
 788 1406 788 1406 788 1317 c 0,22,23
 788 1255 788 1255 756 1198.5 c 128,-1,24
 724 1142 724 1142 659 1090 c 2,0,-1
EndSplineSet
EndChar
StartChar: threesuperior
Encoding: 179 179 179
Width: 821
Flags: W
Fore
215 1485 m 1,0,1
 298 1503 298 1503 361 1511.5 c 128,-1,2
 424 1520 424 1520 479 1520 c 0,3,4
 604 1520 604 1520 679 1467.5 c 128,-1,5
 754 1415 754 1415 754 1329 c 0,6,7
 754 1252 754 1252 697 1195 c 128,-1,8
 640 1138 640 1138 543 1120 c 1,9,10
 618 1104 618 1104 658 1057 c 128,-1,11
 698 1010 698 1010 698 938 c 0,12,13
 698 811 698 811 586.5 732 c 128,-1,14
 475 653 475 653 291 653 c 0,15,16
 227 653 227 653 162 663.5 c 128,-1,17
 97 674 97 674 33 694 c 1,18,-1
 57 815 l 1,19,20
 110 788 110 788 166 775 c 128,-1,21
 222 762 222 762 285 762 c 0,22,23
 408 762 408 762 477.5 808 c 128,-1,24
 547 854 547 854 547 936 c 0,25,26
 547 998 547 998 498.5 1029.5 c 128,-1,27
 450 1061 450 1061 352 1061 c 2,28,-1
 266 1061 l 1,29,-1
 289 1169 l 1,30,-1
 381 1169 l 2,31,32
 483 1169 483 1169 540.5 1205 c 128,-1,33
 598 1241 598 1241 598 1305 c 0,34,35
 598 1358 598 1358 557 1384.5 c 128,-1,36
 516 1411 516 1411 434 1411 c 0,37,38
 378 1411 378 1411 316 1400.5 c 128,-1,39
 254 1390 254 1390 193 1370 c 1,40,-1
 215 1485 l 1,0,1
EndSplineSet
EndChar
StartChar: acute
Encoding: 180 180 180
Width: 1024
Flags: W
Fore
870 1638 m 1,0,-1
 1069 1638 l 1,1,-1
 670 1262 l 1,2,-1
 516 1262 l 1,3,-1
 870 1638 l 1,0,-1
EndSplineSet
LCarets: 0 65535 '    ' 1 0 
Ligature: 0 1 'liga' space acutecomb
EndChar
StartChar: mu
Encoding: 181 181 181
Width: 1303
Flags: W
Fore
-27 -426 m 1,0,-1
 274 1120 l 1,1,-1
 459 1120 l 1,2,-1
 323 423 l 2,3,4
 319 402 319 402 316 376 c 128,-1,5
 313 350 313 350 313 324 c 0,6,7
 313 231 313 231 371.5 181 c 128,-1,8
 430 131 430 131 539 131 c 0,9,10
 687 131 687 131 778 215 c 128,-1,11
 869 299 869 299 901 467 c 1,12,-1
 1028 1120 l 1,13,-1
 1212 1120 l 1,14,-1
 1045 259 l 1,15,16
 1041 240 1041 240 1039.5 226 c 128,-1,17
 1038 212 1038 212 1038 201 c 0,18,19
 1038 170 1038 170 1050.5 155.5 c 128,-1,20
 1063 141 1063 141 1090 141 c 0,21,22
 1100 141 1100 141 1117.5 146 c 128,-1,23
 1135 151 1135 151 1167 164 c 1,24,-1
 1139 16 l 1,25,26
 1095 -6 1095 -6 1055 -17.5 c 128,-1,27
 1015 -29 1015 -29 977 -29 c 0,28,29
 911 -29 911 -29 873.5 13 c 128,-1,30
 836 55 836 55 836 129 c 1,31,32
 780 49 780 49 702.5 10 c 128,-1,33
 625 -29 625 -29 520 -29 c 0,34,35
 427 -29 427 -29 357.5 14 c 128,-1,36
 288 57 288 57 266 127 c 1,37,-1
 158 -426 l 1,38,-1
 -27 -426 l 1,0,-1
EndSplineSet
EndChar
StartChar: paragraph
Encoding: 182 182 182
Width: 1303
Flags: W
Fore
768 1493 m 2,0,-1
 1174 1493 l 1,1,-1
 846 -197 l 1,2,-1
 707 -197 l 1,3,-1
 1012 1370 l 1,4,-1
 821 1370 l 1,5,-1
 516 -197 l 1,6,-1
 375 -197 l 1,7,-1
 539 649 l 1,8,9
 361 655 361 655 260.5 749 c 128,-1,10
 160 843 160 843 160 1001 c 0,11,12
 160 1212 160 1212 332 1352.5 c 128,-1,13
 504 1493 504 1493 768 1493 c 2,0,-1
EndSplineSet
EndChar
StartChar: periodcentered
Encoding: 183 183 183
Width: 651
Flags: W
Fore
283 838 m 1,0,-1
 494 838 l 1,1,-1
 444 584 l 1,2,-1
 233 584 l 1,3,-1
 283 838 l 1,0,-1
EndSplineSet
EndChar
StartChar: cedilla
Encoding: 184 184 184
Width: 1024
Flags: W
Fore
477 0 m 1,0,1
 513 -51 513 -51 530 -94.5 c 128,-1,2
 547 -138 547 -138 547 -180 c 0,3,4
 547 -280 547 -280 473.5 -337.5 c 128,-1,5
 400 -395 400 -395 272 -395 c 0,6,7
 229 -395 229 -395 186 -389 c 128,-1,8
 143 -383 143 -383 100 -371 c 1,9,-1
 123 -240 l 1,10,11
 162 -256 162 -256 201.5 -264 c 128,-1,12
 241 -272 241 -272 283 -272 c 0,13,14
 343 -272 343 -272 378.5 -241.5 c 128,-1,15
 414 -211 414 -211 414 -158 c 0,16,17
 414 -129 414 -129 401.5 -93 c 128,-1,18
 389 -57 389 -57 358 0 c 1,19,-1
 477 0 l 1,0,1
EndSplineSet
Ligature: 0 1 'liga' space uni0327
EndChar
StartChar: onesuperior
Encoding: 185 185 185
Width: 821
Flags: W
Fore
156 778 m 1,0,-1
 360 778 l 1,1,-1
 479 1389 l 1,2,-1
 250 1348 l 1,3,-1
 272 1464 l 1,4,-1
 502 1503 l 1,5,-1
 647 1503 l 1,6,-1
 506 778 l 1,7,-1
 711 778 l 1,8,-1
 688 668 l 1,9,-1
 135 668 l 1,10,-1
 156 778 l 1,0,-1
EndSplineSet
EndChar
StartChar: ordmasculine
Encoding: 186 186 186
Width: 965
Flags: W
Fore
788 1180 m 0,0,1
 788 1290 788 1290 738.5 1347.5 c 128,-1,2
 689 1405 689 1405 592 1405 c 0,3,4
 476 1405 476 1405 391.5 1298 c 128,-1,5
 307 1191 307 1191 307 1040 c 0,6,7
 307 931 307 931 356.5 872 c 128,-1,8
 406 813 406 813 498 813 c 0,9,10
 620 813 620 813 704 918.5 c 128,-1,11
 788 1024 788 1024 788 1180 c 0,0,1
621 1520 m 0,12,13
 769 1520 769 1520 857.5 1434 c 128,-1,14
 946 1348 946 1348 946 1204 c 0,15,16
 946 984 946 984 813 841 c 128,-1,17
 680 698 680 698 477 698 c 0,18,19
 327 698 327 698 239.5 788 c 128,-1,20
 152 878 152 878 152 1032 c 0,21,22
 152 1100 152 1100 171 1166.5 c 128,-1,23
 190 1233 190 1233 227 1296 c 0,24,25
 289 1402 289 1402 393 1461 c 128,-1,26
 497 1520 497 1520 621 1520 c 0,12,13
104 592 m 1,27,-1
 793 592 l 1,28,-1
 770 469 l 1,29,-1
 82 469 l 1,30,-1
 104 592 l 1,27,-1
EndSplineSet
EndChar
StartChar: guillemotright
Encoding: 187 187 187
Width: 1264
Flags: W
Fore
569 141 m 1,0,-1
 608 342 l 1,1,-1
 963 612 l 1,2,-1
 711 879 l 1,3,-1
 750 1059 l 1,4,-1
 1135 641 l 1,5,-1
 1120 559 l 1,6,-1
 569 141 l 1,0,-1
127 141 m 1,7,-1
 166 342 l 1,8,-1
 518 612 l 1,9,-1
 268 879 l 1,10,-1
 305 1059 l 1,11,-1
 690 641 l 1,12,-1
 676 559 l 1,13,-1
 127 141 l 1,7,-1
EndSplineSet
EndChar
StartChar: questiondown
Encoding: 191 191 191
Width: 1087
Flags: W
Fore
612 1239 m 1,0,-1
 662 1493 l 1,1,-1
 864 1493 l 1,2,-1
 815 1239 l 1,3,-1
 612 1239 l 1,0,-1
834 86 m 1,4,5
 731 29 731 29 630 1 c 128,-1,6
 529 -27 529 -27 422 -27 c 0,7,8
 261 -27 261 -27 168.5 48 c 128,-1,9
 76 123 76 123 76 252 c 0,10,11
 76 355 76 355 129.5 445 c 128,-1,12
 183 535 183 535 303 633 c 2,13,-1
 406 717 l 2,14,15
 491 785 491 785 519.5 832 c 128,-1,16
 548 879 548 879 565 969 c 1,17,-1
 590 1092 l 1,18,-1
 780 1092 l 1,19,-1
 750 938 l 1,20,21
 731 844 731 844 692 778.5 c 128,-1,22
 653 713 653 713 543 621 c 2,23,-1
 436 532 l 2,24,25
 352 462 352 462 318.5 409 c 128,-1,26
 285 356 285 356 285 299 c 0,27,28
 285 223 285 223 339.5 180 c 128,-1,29
 394 137 394 137 489 137 c 0,30,31
 570 137 570 137 668 172.5 c 128,-1,32
 766 208 766 208 870 274 c 1,33,-1
 834 86 l 1,4,5
EndSplineSet
EndChar
StartChar: Aring
Encoding: 197 197 197
Width: 1401
Flags: W
Fore
1020 1626 m 0,0,1
 1020 1689 1020 1689 975.5 1733.5 c 128,-1,2
 931 1778 931 1778 868 1778 c 0,3,4
 804 1778 804 1778 760.5 1734.5 c 128,-1,5
 717 1691 717 1691 717 1626 c 0,6,7
 717 1563 717 1563 760.5 1519 c 128,-1,8
 804 1475 804 1475 868 1475 c 0,9,10
 931 1475 931 1475 975.5 1519 c 128,-1,11
 1020 1563 1020 1563 1020 1626 c 0,0,1
705 1407 m 1,12,13
 651 1444 651 1444 622.5 1500.5 c 128,-1,14
 594 1557 594 1557 594 1626 c 0,15,16
 594 1740 594 1740 674 1820.5 c 128,-1,17
 754 1901 754 1901 868 1901 c 0,18,19
 982 1901 982 1901 1062.5 1820.5 c 128,-1,20
 1143 1740 1143 1740 1143 1626 c 0,21,22
 1143 1547 1143 1547 1106.5 1486 c 128,-1,23
 1070 1425 1070 1425 1001 1389 c 1,24,-1
 1260 0 l 1,25,-1
 1049 0 l 1,26,-1
 987 383 l 1,27,-1
 315 383 l 1,28,-1
 104 0 l 1,29,-1
 -109 0 l 1,30,-1
 705 1407 l 1,12,13
827 1294 m 1,31,-1
 408 551 l 1,32,-1
 956 551 l 1,33,-1
 827 1294 l 1,31,-1
EndSplineSet
Ligature: 0 0 'liga' A uni030A
EndChar
StartChar: AE
Encoding: 198 198 198
Width: 1995
Flags: W
Fore
932 1335 m 1,0,-1
 449 551 l 1,1,-1
 907 551 l 1,2,-1
 1061 1335 l 1,3,-1
 932 1335 l 1,0,-1
2036 1493 m 1,4,-1
 2003 1323 l 1,5,-1
 1262 1323 l 1,6,-1
 1174 881 l 1,7,-1
 1886 881 l 1,8,-1
 1853 711 l 1,9,-1
 1141 711 l 1,10,-1
 1036 170 l 1,11,-1
 1796 170 l 1,12,-1
 1763 0 l 1,13,-1
 801 0 l 1,14,-1
 874 383 l 1,15,-1
 348 383 l 1,16,-1
 113 0 l 1,17,-1
 -92 0 l 1,18,-1
 823 1493 l 1,19,-1
 2036 1493 l 1,4,-1
EndSplineSet
KernsSLIFO: 45 -36 0 0
EndChar
StartChar: Eth
Encoding: 208 208 208
Width: 1587
Flags: W
Fore
356 1493 m 1,0,-1
 791 1493 l 2,1,2
 1136 1493 1136 1493 1312.5 1346.5 c 128,-1,3
 1489 1200 1489 1200 1489 911 c 0,4,5
 1489 721 1489 721 1421.5 544.5 c 128,-1,6
 1354 368 1354 368 1235 246 c 0,7,8
 1116 122 1116 122 934 61 c 128,-1,9
 752 0 752 0 502 0 c 2,10,-1
 66 0 l 1,11,-1
 201 700 l 1,12,-1
 0 700 l 1,13,-1
 29 844 l 1,14,-1
 229 844 l 1,15,-1
 356 1493 l 1,0,-1
526 1327 m 1,16,-1
 432 844 l 1,17,-1
 768 844 l 1,18,-1
 739 700 l 1,19,-1
 403 700 l 1,20,-1
 301 166 l 1,21,-1
 565 166 l 2,22,23
 905 166 905 166 1090.5 361 c 128,-1,24
 1276 556 1276 556 1276 911 c 0,25,26
 1276 1126 1276 1126 1156 1226.5 c 128,-1,27
 1036 1327 1036 1327 780 1327 c 2,28,-1
 526 1327 l 1,16,-1
EndSplineSet
KernsSLIFO: 45 38 0 0
EndChar
StartChar: multiply
Encoding: 215 215 215
Width: 1716
Flags: W
Fore
1436 1100 m 1,0,-1
 979 641 l 1,1,-1
 1436 184 l 1,2,-1
 1317 63 l 1,3,-1
 858 522 l 1,4,-1
 399 63 l 1,5,-1
 281 184 l 1,6,-1
 737 641 l 1,7,-1
 281 1100 l 1,8,-1
 399 1221 l 1,9,-1
 858 762 l 1,10,-1
 1317 1221 l 1,11,-1
 1436 1100 l 1,0,-1
EndSplineSet
EndChar
StartChar: Oslash
Encoding: 216 216 216
Width: 1612
Flags: W
Fore
1223 1235 m 1,0,1
 1178 1295 1178 1295 1105 1325.5 c 128,-1,2
 1032 1356 1032 1356 934 1356 c 0,3,4
 769 1356 769 1356 641.5 1275 c 128,-1,5
 514 1194 514 1194 422 1032 c 0,6,7
 360 923 360 923 327.5 804 c 128,-1,8
 295 685 295 685 295 571 c 0,9,10
 295 526 295 526 301 482.5 c 128,-1,11
 307 439 307 439 319 395 c 1,12,-1
 1223 1235 l 1,0,1
1288 1116 m 1,13,-1
 381 270 l 1,14,15
 432 202 432 202 505.5 168.5 c 128,-1,16
 579 135 579 135 678 135 c 0,17,18
 842 135 842 135 970.5 216.5 c 128,-1,19
 1099 298 1099 298 1190 459 c 0,20,21
 1252 571 1252 571 1283.5 688.5 c 128,-1,22
 1315 806 1315 806 1315 928 c 0,23,24
 1315 984 1315 984 1308.5 1030.5 c 128,-1,25
 1302 1077 1302 1077 1288 1116 c 1,13,-1
160 246 m 1,26,27
 121 326 121 326 101.5 408 c 128,-1,28
 82 490 82 490 82 575 c 0,29,30
 82 741 82 741 143 909 c 128,-1,31
 204 1077 204 1077 313 1212 c 0,32,33
 438 1366 438 1366 594.5 1443 c 128,-1,34
 751 1520 751 1520 940 1520 c 0,35,36
 1070 1520 1070 1520 1175 1481.5 c 128,-1,37
 1280 1443 1280 1443 1364 1366 c 1,38,-1
 1567 1559 l 1,39,-1
 1657 1460 l 1,40,-1
 1448 1262 l 1,41,42
 1488 1189 1488 1189 1508 1104.5 c 128,-1,43
 1528 1020 1528 1020 1528 922 c 0,44,45
 1528 745 1528 745 1469 579.5 c 128,-1,46
 1410 414 1410 414 1298 279 c 0,47,48
 1170 123 1170 123 1015.5 47 c 128,-1,49
 861 -29 861 -29 672 -29 c 0,50,51
 533 -29 533 -29 424.5 13 c 128,-1,52
 316 55 316 55 240 137 c 1,53,-1
 20 -66 l 1,54,-1
 -70 33 l 1,55,-1
 160 246 l 1,26,27
EndSplineSet
KernsSLIFO: 88 -36 0 0 59 38 0 0 58 38 0 0 46 -83 0 0 45 38 0 0 44 -83 0 0
EndChar
StartChar: Thorn
Encoding: 222 222 222
Width: 1245
Flags: W
Fore
580 338 m 2,0,-1
 324 338 l 1,1,-1
 258 0 l 1,2,-1
 55 0 l 1,3,-1
 346 1493 l 1,4,-1
 549 1493 l 1,5,-1
 498 1229 l 1,6,-1
 764 1229 l 2,7,8
 968 1229 968 1229 1075 1134 c 128,-1,9
 1182 1039 1182 1039 1182 856 c 0,10,11
 1182 610 1182 610 1024 474 c 128,-1,12
 866 338 866 338 580 338 c 2,0,-1
467 1063 m 1,13,-1
 358 504 l 1,14,-1
 612 504 l 2,15,16
 784 504 784 504 876.5 591.5 c 128,-1,17
 969 679 969 679 969 844 c 0,18,19
 969 948 969 948 907 1005.5 c 128,-1,20
 845 1063 845 1063 731 1063 c 2,21,-1
 467 1063 l 1,13,-1
EndSplineSet
KernsSLIFO: 46 -149 0 0 45 75 0 0 44 -149 0 0
EndChar
StartChar: germandbls
Encoding: 223 223 223
Width: 1290
Flags: W
Fore
317 1137 m 1,0,1
 355 1334 355 1334 487.5 1445 c 128,-1,2
 620 1556 620 1556 817 1556 c 0,3,4
 991 1556 991 1556 1099.5 1463 c 128,-1,5
 1208 1370 1208 1370 1208 1223 c 0,6,7
 1208 1198 1208 1198 1205 1167.5 c 128,-1,8
 1202 1137 1202 1137 1196 1100 c 1,9,10
 1034 1092 1034 1092 934 1024.5 c 128,-1,11
 834 957 834 957 834 860 c 0,12,13
 834 820 834 820 855 784 c 128,-1,14
 876 748 876 748 924 711 c 2,15,-1
 973 672 l 2,16,17
 1092 578 1092 578 1133 512.5 c 128,-1,18
 1174 447 1174 447 1174 367 c 0,19,20
 1174 195 1174 195 1035 83 c 128,-1,21
 896 -29 896 -29 678 -29 c 0,22,23
 602 -29 602 -29 532 -16.5 c 128,-1,24
 462 -4 462 -4 399 20 c 1,25,-1
 430 184 l 1,26,27
 495 155 495 155 564.5 140 c 128,-1,28
 634 125 634 125 705 125 c 0,29,30
 829 125 829 125 906 182 c 128,-1,31
 983 239 983 239 983 330 c 0,32,33
 983 375 983 375 959.5 414 c 128,-1,34
 936 453 936 453 858 520 c 2,35,-1
 807 563 l 2,36,37
 710 645 710 645 676.5 700.5 c 128,-1,38
 643 756 643 756 643 823 c 0,39,40
 643 949 643 949 749 1050 c 128,-1,41
 855 1151 855 1151 1028 1188 c 1,42,43
 1030 1196 1030 1196 1031 1206 c 128,-1,44
 1032 1216 1032 1216 1032 1235 c 0,45,46
 1032 1313 1032 1313 975.5 1358 c 128,-1,47
 919 1403 919 1403 819 1403 c 0,48,49
 686 1403 686 1403 606 1335 c 128,-1,50
 526 1267 526 1267 500 1133 c 2,51,-1
 281 0 l 1,52,-1
 96 0 l 1,53,-1
 317 1137 l 1,0,1
EndSplineSet
EndChar
StartChar: ae
Encoding: 230 230 230
Width: 2038
Flags: W
Fore
1763 660 m 1,0,1
 1766 676 1766 676 1767.5 693 c 128,-1,2
 1769 710 1769 710 1769 727 c 0,3,4
 1769 849 1769 849 1698 920 c 128,-1,5
 1627 991 1627 991 1503 991 c 0,6,7
 1366 991 1366 991 1261 904.5 c 128,-1,8
 1156 818 1156 818 1102 659 c 1,9,-1
 1763 660 l 1,0,1
319 1069 m 1,10,11
 423 1108 423 1108 522.5 1127.5 c 128,-1,12
 622 1147 622 1147 715 1147 c 0,13,14
 859 1147 859 1147 952 1102 c 128,-1,15
 1045 1057 1045 1057 1090 965 c 1,16,17
 1176 1055 1176 1055 1288 1101 c 128,-1,18
 1400 1147 1400 1147 1532 1147 c 0,19,20
 1722 1147 1722 1147 1835 1033 c 128,-1,21
 1948 919 1948 919 1948 727 c 0,22,23
 1948 681 1948 681 1941.5 628.5 c 128,-1,24
 1935 576 1935 576 1923 516 c 1,25,-1
 1067 516 l 1,26,27
 1061 478 1061 478 1059 456 c 128,-1,28
 1057 434 1057 434 1057 418 c 0,29,30
 1057 279 1057 279 1142.5 203 c 128,-1,31
 1228 127 1228 127 1384 127 c 0,32,33
 1504 127 1504 127 1611.5 154 c 128,-1,34
 1719 181 1719 181 1810 233 c 1,35,-1
 1776 51 l 1,36,37
 1676 11 1676 11 1570.5 -9 c 128,-1,38
 1465 -29 1465 -29 1356 -29 c 0,39,40
 1188 -29 1188 -29 1074.5 28.5 c 128,-1,41
 961 86 961 86 905 199 c 1,42,43
 803 81 803 81 693 26 c 128,-1,44
 583 -29 583 -29 451 -29 c 0,45,46
 277 -29 277 -29 180.5 53 c 128,-1,47
 84 135 84 135 84 283 c 0,48,49
 84 479 84 479 240.5 593 c 128,-1,50
 397 707 397 707 672 707 c 2,51,-1
 928 707 l 1,52,-1
 938 756 l 1,53,54
 940 764 940 764 941 773.5 c 128,-1,55
 942 783 942 783 942 803 c 0,56,57
 942 892 942 892 869.5 941.5 c 128,-1,58
 797 991 797 991 666 991 c 0,59,60
 576 991 576 991 481.5 968 c 128,-1,61
 387 945 387 945 287 899 c 1,62,-1
 319 1069 l 1,10,11
901 563 m 1,63,-1
 717 563 l 2,64,65
 491 563 491 563 382.5 502.5 c 128,-1,66
 274 442 274 442 274 315 c 0,67,68
 274 227 274 227 329.5 177 c 128,-1,69
 385 127 385 127 483 127 c 0,70,71
 633 127 633 127 745 234.5 c 128,-1,72
 857 342 857 342 893 522 c 2,73,-1
 901 563 l 1,63,-1
EndSplineSet
EndChar
StartChar: eth
Encoding: 240 240 240
Width: 1253
Flags: W
Fore
1016 1141 m 1,0,1
 1084 1039 1084 1039 1118.5 928.5 c 128,-1,2
 1153 818 1153 818 1153 700 c 0,3,4
 1153 564 1153 564 1113.5 437.5 c 128,-1,5
 1074 311 1074 311 999 211 c 1,6,7
 915 95 915 95 792.5 33 c 128,-1,8
 670 -29 670 -29 526 -29 c 0,9,10
 328 -29 328 -29 210 88.5 c 128,-1,11
 92 206 92 206 92 401 c 0,12,13
 92 521 92 521 133 639 c 128,-1,14
 174 757 174 757 250 858 c 0,15,16
 338 974 338 974 459 1036 c 128,-1,17
 580 1098 580 1098 719 1098 c 0,18,19
 739 1098 739 1098 768 1095.5 c 128,-1,20
 797 1093 797 1093 837 1088 c 1,21,-1
 713 1268 l 1,22,-1
 362 1161 l 1,23,-1
 330 1255 l 1,24,-1
 657 1352 l 1,25,-1
 518 1556 l 1,26,-1
 735 1556 l 1,27,-1
 831 1411 l 1,28,-1
 1167 1520 l 1,29,-1
 1202 1425 l 1,30,-1
 889 1327 l 1,31,-1
 1016 1141 l 1,0,1
913 915 m 1,32,33
 870 932 870 932 826.5 940 c 128,-1,34
 783 948 783 948 739 948 c 0,35,36
 537 948 537 948 410 797.5 c 128,-1,37
 283 647 283 647 283 408 c 0,38,39
 283 270 283 270 348.5 198.5 c 128,-1,40
 414 127 414 127 541 127 c 0,41,42
 723 127 723 127 845 288.5 c 128,-1,43
 967 450 967 450 967 694 c 0,44,45
 967 762 967 762 954 816 c 128,-1,46
 941 870 941 870 913 915 c 1,32,33
EndSplineSet
EndChar
StartChar: divide
Encoding: 247 247 247
Width: 1716
Flags: W
Fore
735 1135 m 1,0,-1
 981 1135 l 1,1,-1
 981 889 l 1,2,-1
 735 889 l 1,3,-1
 735 1135 l 1,0,-1
735 395 m 1,4,-1
 981 395 l 1,5,-1
 981 150 l 1,6,-1
 735 150 l 1,7,-1
 735 395 l 1,4,-1
217 727 m 1,8,-1
 1499 727 l 1,9,-1
 1499 557 l 1,10,-1
 217 557 l 1,11,-1
 217 727 l 1,8,-1
EndSplineSet
EndChar
StartChar: oslash
Encoding: 248 248 248
Width: 1253
Flags: W
Fore
901 922 m 1,0,1
 864 957 864 957 817.5 974 c 128,-1,2
 771 991 771 991 713 991 c 0,3,4
 527 991 527 991 407 830.5 c 128,-1,5
 287 670 287 670 287 420 c 0,6,7
 287 373 287 373 288.5 352.5 c 128,-1,8
 290 332 290 332 295 315 c 1,9,-1
 901 922 l 1,0,1
154 172 m 1,10,11
 124 221 124 221 109 284 c 128,-1,12
 94 347 94 347 94 422 c 0,13,14
 94 544 94 544 133.5 671.5 c 128,-1,15
 173 799 173 799 236 885 c 0,16,17
 334 1019 334 1019 455.5 1083 c 128,-1,18
 577 1147 577 1147 733 1147 c 0,19,20
 820 1147 820 1147 894 1121 c 128,-1,21
 968 1095 968 1095 1026 1044 c 1,22,-1
 1188 1208 l 1,23,-1
 1274 1122 l 1,24,-1
 1102 950 l 1,25,26
 1130 895 1130 895 1144.5 832.5 c 128,-1,27
 1159 770 1159 770 1159 702 c 0,28,29
 1159 578 1159 578 1119.5 448.5 c 128,-1,30
 1080 319 1080 319 1018 233 c 0,31,32
 921 99 921 99 799.5 35 c 128,-1,33
 678 -29 678 -29 520 -29 c 0,34,35
 433 -29 433 -29 359.5 -2.5 c 128,-1,36
 286 24 286 24 229 76 c 1,37,-1
 57 -94 l 1,38,-1
 -29 -10 l 1,39,-1
 154 172 l 1,10,11
961 809 m 1,40,-1
 352 199 l 1,41,42
 391 162 391 162 436.5 144.5 c 128,-1,43
 482 127 482 127 541 127 c 0,44,45
 730 127 730 127 849.5 290.5 c 128,-1,46
 969 454 969 454 969 717 c 0,47,48
 969 756 969 756 967 775 c 128,-1,49
 965 794 965 794 961 809 c 1,40,-1
EndSplineSet
EndChar
StartChar: thorn
Encoding: 254 254 254
Width: 1300
Flags: W
Fore
1016 690 m 0,0,1
 1016 837 1016 837 952 915 c 128,-1,2
 888 993 888 993 768 993 c 0,3,4
 686 993 686 993 611.5 951 c 128,-1,5
 537 909 537 909 479 829 c 0,6,7
 422 750 422 750 388 638 c 128,-1,8
 354 526 354 526 354 416 c 0,9,10
 354 276 354 276 418 200.5 c 128,-1,11
 482 125 482 125 600 125 c 0,12,13
 687 125 687 125 761.5 166 c 128,-1,14
 836 207 836 207 889 285 c 0,15,16
 946 367 946 367 981 478 c 128,-1,17
 1016 589 1016 589 1016 690 c 0,0,1
446 950 m 1,18,19
 520 1047 520 1047 620.5 1097 c 128,-1,20
 721 1147 721 1147 844 1147 c 0,21,22
 1016 1147 1016 1147 1111 1034.5 c 128,-1,23
 1206 922 1206 922 1206 719 c 0,24,25
 1206 553 1206 553 1147 402.5 c 128,-1,26
 1088 252 1088 252 977 133 c 0,27,28
 903 54 903 54 810 12.5 c 128,-1,29
 717 -29 717 -29 614 -29 c 0,30,31
 495 -29 495 -29 414 20.5 c 128,-1,32
 333 70 333 70 293 168 c 1,33,-1
 178 -426 l 1,34,-1
 -6 -426 l 1,35,-1
 375 1556 l 1,36,-1
 559 1556 l 1,37,-1
 446 950 l 1,18,19
EndSplineSet
EndChar
StartChar: Dcroat
Encoding: 272 272 272
Width: 1587
Flags: W
Fore
356 1493 m 1,0,-1
 791 1493 l 2,1,2
 1136 1493 1136 1493 1312.5 1346.5 c 128,-1,3
 1489 1200 1489 1200 1489 911 c 0,4,5
 1489 721 1489 721 1421.5 544.5 c 128,-1,6
 1354 368 1354 368 1235 246 c 0,7,8
 1116 122 1116 122 934 61 c 128,-1,9
 752 0 752 0 502 0 c 2,10,-1
 66 0 l 1,11,-1
 201 700 l 1,12,-1
 0 700 l 1,13,-1
 29 844 l 1,14,-1
 229 844 l 1,15,-1
 356 1493 l 1,0,-1
526 1327 m 1,16,-1
 432 844 l 1,17,-1
 768 844 l 1,18,-1
 739 700 l 1,19,-1
 403 700 l 1,20,-1
 301 166 l 1,21,-1
 565 166 l 2,22,23
 905 166 905 166 1090.5 361 c 128,-1,24
 1276 556 1276 556 1276 911 c 0,25,26
 1276 1126 1276 1126 1156 1226.5 c 128,-1,27
 1036 1327 1036 1327 780 1327 c 2,28,-1
 526 1327 l 1,16,-1
EndSplineSet
EndChar
StartChar: dcroat
Encoding: 273 273 273
Width: 1300
Flags: W
Fore
856 168 m 1,0,1
 782 71 782 71 681 21 c 128,-1,2
 580 -29 580 -29 457 -29 c 0,3,4
 289 -29 289 -29 191.5 85.5 c 128,-1,5
 94 200 94 200 94 399 c 0,6,7
 94 565 94 565 153 715.5 c 128,-1,8
 212 866 212 866 324 985 c 0,9,10
 398 1064 398 1064 491 1105.5 c 128,-1,11
 584 1147 584 1147 686 1147 c 0,12,13
 794 1147 794 1147 876.5 1095 c 128,-1,14
 959 1043 959 1043 1004 946 c 1,15,-1
 1071 1284 l 1,16,-1
 745 1284 l 1,17,-1
 772 1407 l 1,18,-1
 1098 1407 l 1,19,-1
 1124 1556 l 1,20,-1
 1309 1556 l 1,21,-1
 1282 1407 l 1,22,-1
 1436 1407 l 1,23,-1
 1409 1284 l 1,24,-1
 1255 1284 l 1,25,-1
 1006 0 l 1,26,-1
 821 0 l 1,27,-1
 856 168 l 1,0,1
285 432 m 0,28,29
 285 287 285 287 350.5 206 c 128,-1,30
 416 125 416 125 532 125 c 0,31,32
 618 125 618 125 691.5 166.5 c 128,-1,33
 765 208 765 208 821 289 c 0,34,35
 880 373 880 373 914 483 c 128,-1,36
 948 593 948 593 948 700 c 0,37,38
 948 839 948 839 882.5 917 c 128,-1,39
 817 995 817 995 702 995 c 0,40,41
 615 995 615 995 540 954 c 128,-1,42
 465 913 465 913 412 836 c 0,43,44
 354 753 354 753 319.5 643 c 128,-1,45
 285 533 285 533 285 432 c 0,28,29
EndSplineSet
EndChar
StartChar: Hbar
Encoding: 294 294 294
Width: 1876
Flags: W
Fore
514 1493 m 1,0,-1
 716 1493 l 1,1,-1
 673 1269 l 1,2,-1
 1407 1269 l 1,3,-1
 1450 1493 l 1,4,-1
 1652 1493 l 1,5,-1
 1609 1269 l 1,6,-1
 1777 1269 l 1,7,-1
 1745 1105 l 1,8,-1
 1577 1105 l 1,9,-1
 1362 0 l 1,10,-1
 1160 0 l 1,11,-1
 1298 711 l 1,12,-1
 564 711 l 1,13,-1
 426 0 l 1,14,-1
 224 0 l 1,15,-1
 439 1105 l 1,16,-1
 271 1105 l 1,17,-1
 303 1269 l 1,18,-1
 471 1269 l 1,19,-1
 514 1493 l 1,0,-1
641 1105 m 1,20,-1
 597 881 l 1,21,-1
 1331 881 l 1,22,-1
 1375 1105 l 1,23,-1
 641 1105 l 1,20,-1
EndSplineSet
EndChar
StartChar: hbar
Encoding: 295 295 295
Width: 1423
Flags: W
Fore
1163 676 m 2,0,-1
 1032 0 l 1,1,-1
 848 0 l 1,2,-1
 978 670 l 17,3,4
 990 733 990 733 990 784 c 0,5,6
 990 860.5 990 860.5 962.5 908 c 0,7,8
 915.5 987 915.5 987 791.5 987 c 0,9,10
 643 987 643 987 538 892 c 0,11,12
 434 797 434 797 402 633 c 9,13,-1
 279 0 l 1,14,-1
 94 0 l 1,15,-1
 341 1270 l 1,16,-1
 216 1270 l 1,17,-1
 248 1434 l 1,18,-1
 373 1434 l 1,19,-1
 396 1556 l 1,20,-1
 581 1556 l 1,21,-1
 558 1434 l 1,22,-1
 910 1434 l 1,23,-1
 878 1270 l 1,24,-1
 526 1270 l 1,25,-1
 463 946 l 1,26,27
 548 1047 548 1047 647.5 1097 c 0,28,29
 746.5 1147 746.5 1147 863.5 1147 c 0,30,31
 1056.5 1147 1056.5 1147 1132.5 1027.5 c 0,32,33
 1180 952.5 1180 952.5 1180 833.5 c 0,34,35
 1180 762.5 1180 762.5 1163 676 c 2,0,-1
EndSplineSet
EndChar
StartChar: dotlessi
Encoding: 305 305 305
Width: 569
Flags: HW
AnchorPoint: "above" 360 1147 basechar 0
Fore
291 1120 m 1,0,-1
 475 1120 l 1,1,-1
 256 0 l 1,2,-1
 72 0 l 1,3,-1
 291 1120 l 1,0,-1
EndSplineSet
EndChar
StartChar: kgreenlandic
Encoding: 312 312 312
Width: 1186
Flags: W
Fore
295 1120 m 1,0,-1
 480 1120 l 1,1,-1
 386 635 l 1,2,-1
 1029 1120 l 1,3,-1
 1264 1120 l 1,4,-1
 568 594 l 1,5,-1
 1071 0 l 1,6,-1
 831 0 l 1,7,-1
 368 545 l 1,8,-1
 262 0 l 1,9,-1
 77 0 l 1,10,-1
 295 1120 l 1,0,-1
EndSplineSet
EndChar
StartChar: Lslash
Encoding: 321 321 321
Width: 1151
Flags: W
Fore
354 1493 m 1,0,-1
 557 1493 l 1,1,-1
 432 860 l 1,2,-1
 784 1016 l 1,3,-1
 840 891 l 1,4,-1
 401 698 l 1,5,-1
 301 168 l 1,6,-1
 1028 168 l 1,7,-1
 995 0 l 1,8,-1
 66 0 l 1,9,-1
 180 600 l 1,10,-1
 16 524 l 1,11,-1
 -41 647 l 1,12,-1
 211 760 l 1,13,-1
 354 1493 l 1,0,-1
EndSplineSet
KernsSLIFO: 356 -139 0 0 253 -73 0 0 221 -196 0 0 210 -63 0 0 212 -63 0 0 211 -63 0 0 376 -196 0 0 255 -73 0 0 8217 -368 0 0 8216 -188 0 0 8221 -368 0 0 8220 -188 0 0 338 -63 0 0 213 -63 0 0 216 -63 0 0 214 -63 0 0 121 -73 0 0 89 -196 0 0 87 -83 0 0 86 -149 0 0 84 -139 0 0 79 -63 0 0 45 -159 0 0
EndChar
StartChar: lslash
Encoding: 322 322 322
Width: 588
Flags: W
Fore
389 1556 m 1,0,-1
 573 1556 l 1,1,-1
 457 950 l 1,2,-1
 598 1014 l 1,3,-1
 651 895 l 1,4,-1
 428 793 l 1,5,-1
 270 0 l 1,6,-1
 86 0 l 1,7,-1
 223 700 l 1,8,-1
 88 639 l 1,9,-1
 35 758 l 1,10,-1
 254 856 l 1,11,-1
 389 1556 l 1,0,-1
EndSplineSet
EndChar
StartChar: Eng
Encoding: 330 330 330
Width: 1532
Flags: W
Fore
368 1493 m 1,0,-1
 552 1493 l 1,1,-1
 1066 344 l 1,2,-1
 1290 1493 l 1,3,-1
 1474 1493 l 1,4,-1
 1179.5 -20 l 18,5,-1
 1137.5 -234 1137.5 -234 1037 -330 c 128,-1,4
 937.5 -426 937.5 -426 756.5 -426 c 2,5,-1
 502.5 -426 l 1,6,-1
 532.5 -270 l 1,7,-1
 765.5 -270 l 2,8,9
 870.5 -270 870.5 -270 918 -222 c 128,-1,10
 971 -157 971 -157 999 0 c 1,6,-1
 485 1149 l 1,7,-1
 261 0 l 1,8,-1
 77 0 l 1,9,-1
 368 1493 l 1,0,-1
EndSplineSet
EndChar
StartChar: eng
Encoding: 331 331 331
Width: 1298
Flags: W
Fore
1185 676 m 2,0,-1
 1050 -20 l 2,2,3
 1008 -234 1008 -234 908 -330 c 128,-1,4
 808 -426 808 -426 627 -426 c 2,5,-1
 373 -426 l 1,6,-1
 403 -270 l 1,7,-1
 636 -270 l 2,8,9
 741 -270 741 -270 789 -222 c 128,-1,10
 836 -173 836 -173 866 -20 c 2,11,-1
 1000 670 l 2,3,4
 1012 733 1012 733 1012 784 c 0,0,0
 1012 860 1012 860 984 908 c 128,-1,5
 938 987 938 987 814 987 c 0,6,7
 665 987 665 987 560 892 c 128,-1,8
 456 797 456 797 424 633 c 2,9,-1
 301 0 l 1,10,-1
 116 0 l 1,11,-1
 334 1120 l 1,12,-1
 519 1120 l 1,13,-1
 485 946 l 1,14,15
 570 1047 570 1047 670 1097 c 128,-1,16
 769 1147 769 1147 886 1147 c 0,17,18
 1079 1147 1079 1147 1155 1028 c 128,-1,19
 1202 953 1202 953 1202 833 c 0,0,0
 1202 763 1202 763 1185 676 c 2,0,-1
EndSplineSet
EndChar
StartChar: OE
Encoding: 338 338 338
Width: 2191
Flags: W
Fore
1210 1323 m 1,0,-1
 1090 1323 l 2,1,2
 924 1323 924 1323 794.5 1285 c 128,-1,3
 665 1247 665 1247 578 1174 c 0,4,5
 445 1064 445 1064 376 913.5 c 128,-1,6
 307 763 307 763 307 582 c 0,7,8
 307 379 307 379 433.5 274.5 c 128,-1,9
 560 170 560 170 807 170 c 2,10,-1
 856 170 l 1,11,-1
 985 170 l 1,12,-1
 1210 1323 l 1,0,-1
2185 1493 m 1,13,-1
 2152 1323 l 1,14,-1
 1413 1323 l 1,15,-1
 1325 881 l 1,16,-1
 2036 881 l 1,17,-1
 2003 711 l 1,18,-1
 1292 711 l 1,19,-1
 1188 170 l 1,20,-1
 1948 170 l 1,21,-1
 1915 0 l 1,22,-1
 825 0 l 2,23,24
 663 0 663 0 574.5 15.5 c 128,-1,25
 486 31 486 31 408 66 c 0,26,27
 251 136 251 136 172.5 265 c 128,-1,28
 94 394 94 394 94 582 c 0,29,30
 94 791 94 791 186.5 977 c 128,-1,31
 279 1163 279 1163 451 1298 c 0,32,33
 574 1396 574 1396 749 1444.5 c 128,-1,34
 924 1493 924 1493 1149 1493 c 2,35,-1
 2185 1493 l 1,13,-1
EndSplineSet
EndChar
StartChar: oe
Encoding: 339 339 339
Width: 2105
Flags: W
Fore
1991 516 m 1,0,-1
 1135 516 l 1,1,2
 1131 489 1131 489 1128.5 464 c 128,-1,3
 1126 439 1126 439 1126 418 c 0,4,5
 1126 279 1126 279 1211 203 c 128,-1,6
 1296 127 1296 127 1452 127 c 0,7,8
 1572 127 1572 127 1680.5 154 c 128,-1,9
 1789 181 1789 181 1880 233 c 1,10,-1
 1843 51 l 1,11,12
 1744 12 1744 12 1639 -8.5 c 128,-1,13
 1534 -29 1534 -29 1425 -29 c 0,14,15
 1264 -29 1264 -29 1149 26 c 128,-1,16
 1034 81 1034 81 987 180 c 1,17,18
 886 75 886 75 770.5 23 c 128,-1,19
 655 -29 655 -29 520 -29 c 0,20,21
 329 -29 329 -29 211.5 90 c 128,-1,22
 94 209 94 209 94 401 c 0,23,24
 94 538 94 538 132 667.5 c 128,-1,25
 170 797 170 797 236 885 c 0,26,27
 335 1019 335 1019 457 1083 c 128,-1,28
 579 1147 579 1147 733 1147 c 0,29,30
 863 1147 863 1147 962.5 1088.5 c 128,-1,31
 1062 1030 1062 1030 1116 922 c 1,32,33
 1215 1034 1215 1034 1336 1090.5 c 128,-1,34
 1457 1147 1457 1147 1599 1147 c 0,35,36
 1790 1147 1790 1147 1902.5 1033 c 128,-1,37
 2015 919 2015 919 2015 727 c 0,38,39
 2015 681 2015 681 2009 628.5 c 128,-1,40
 2003 576 2003 576 1991 516 c 1,0,-1
1831 660 m 1,41,42
 1834 676 1834 676 1835.5 693 c 128,-1,43
 1837 710 1837 710 1837 727 c 0,44,45
 1837 849 1837 849 1765.5 920 c 128,-1,46
 1694 991 1694 991 1571 991 c 0,47,48
 1433 991 1433 991 1328.5 904.5 c 128,-1,49
 1224 818 1224 818 1169 659 c 1,50,-1
 1831 660 l 1,41,42
285 430 m 0,51,52
 285 278 285 278 348.5 202.5 c 128,-1,53
 412 127 412 127 541 127 c 0,54,55
 726 127 726 127 847.5 287 c 128,-1,56
 969 447 969 447 969 696 c 0,57,58
 969 843 969 843 904.5 917 c 128,-1,59
 840 991 840 991 713 991 c 0,60,61
 609 991 609 991 528 942.5 c 128,-1,62
 447 894 447 894 383 795 c 0,63,64
 336 721 336 721 310.5 626 c 128,-1,65
 285 531 285 531 285 430 c 0,51,52
EndSplineSet
EndChar
StartChar: Tbar
Encoding: 358 358 358
Width: 1251
Flags: W
TeX: 0 0 0 0
Fore
139 1493 m 1,0,-1
 1402 1493 l 1,1,-1
 1369 1323 l 1,2,-1
 839 1323 l 1,3,-1
 727 747 l 1,4,-1
 992 747 l 1,5,-1
 959 577 l 1,6,-1
 694 577 l 1,7,-1
 582 0 l 1,8,-1
 379 0 l 1,9,-1
 491 577 l 1,10,-1
 222 577 l 1,11,-1
 255 747 l 1,12,-1
 524 747 l 1,13,-1
 636 1323 l 1,14,-1
 106 1323 l 1,15,-1
 139 1493 l 1,0,-1
EndSplineSet
EndChar
StartChar: tbar
Encoding: 359 359 359
Width: 803
Flags: W
TeX: 0 0 0 0
Fore
515 1438 m 1,0,-1
 453 1120 l 1,1,-1
 832 1120 l 1,2,-1
 804 977 l 1,3,-1
 425 977 l 1,4,-1
 380 744 l 1,0,0
 570 744 l 1,0,0
 542 602 l 1,0,0
 352 602 l 1,0,0
 307 369 l 2,5,6
 294 304 294 304 294 261 c 0,0,0
 294 214 294 214 310 193 c 128,-1,7
 340 154 340 154 455 154 c 2,8,-1
 644 154 l 1,9,-1
 614 0 l 1,10,-1
 425 0 l 2,11,12
 212 0 212 0 147 80 c 128,-1,13
 106 129 106 129 106 227 c 0,0,0
 106 289 106 289 122 369 c 2,14,-1
 167 602 l 1,0,0
 32 602 l 1,0,0
 60 744 l 1,0,0
 195 744 l 1,0,0
 240 977 l 1,15,-1
 105 977 l 1,16,-1
 133 1120 l 1,17,-1
 268 1120 l 1,18,-1
 330 1438 l 1,19,-1
 515 1438 l 1,0,-1
EndSplineSet
EndChar
StartChar: longs
Encoding: 383 383 383
Width: 721
Flags: W
TeX: 0 0 0 0
Fore
324 0 m 1,10,-1
 139 0 l 1,11,-1
 330 977 l 1,12,-1
 154 977 l 1,13,-1
 180 1120 l 1,14,-1
 356 1120 l 1,15,-1
 371 1198 l 2,16,17
 409.092 1396.08 409.092 1396.08 504.5 1476 c 128,-1,18
 600 1556 600 1556 805 1556 c 2,19,-1
 979 1556 l 1,0,-1
 950 1403 l 1,1,-1
 774 1403 l 2,2,3
 674 1403 674 1403 628.5 1363.5 c 128,-1,4
 583 1324 583 1324 561 1219 c 1,5,-1
 324 0 l 1,10,-1
EndSplineSet
EndChar
StartChar: uni0186
Encoding: 390 390 390
Width: 1430
Flags: W
TeX: 117 0 0 0
Fore
237.945 1378 m 1,0,-1
 355.746 1449 355.746 1449 481.147 1484.5 c 128,-1,25
 606.548 1520 606.548 1520 740.548 1520 c 0,23,24
 1079.55 1520 1079.55 1520 1234.21 1312.5 c 128,-1,22
 1388.88 1105 1388.88 1105 1318.9 745 c 0,20,21
 1249.12 386 1249.12 386 1013.79 178.5 c 128,-1,19
 778.452 -29 778.452 -29 439.452 -29 c 0,17,18
 307.452 -29 307.452 -29 195.95 7 c 128,-1,16
 84.4482 43 84.4482 43 -7.55664 115 c 1,14,15
 33.457 326 l 1,13,-1
 116.991 231 116.991 231 223.355 184 c 128,-1,12
 329.72 137 329.72 137 459.72 137 c 0,10,11
 715.72 137 715.72 137 882.14 293.5 c 128,-1,9
 1048.56 450 1048.56 450 1105.9 745 c 0,7,8
 1163.44 1041 1163.44 1041 1057.86 1197.5 c 128,-1,6
 952.28 1354 952.28 1354 696.28 1354 c 0,4,5
 566.28 1354 566.28 1354 441.645 1307 c 128,-1,3
 317.009 1260 317.009 1260 196.543 1165 c 1,1,2
 237.945 1378 l 1,0,-1
EndSplineSet
EndChar
StartChar: uni0190
Encoding: 400 400 400
Width: 1303
Flags: W
TeX: 117 0 0 0
Fore
475.565 805 m 1,0,1
 350.98 838 350.98 838 296.6 923.5 c 128,-1,40
 242.219 1009 242.219 1009 266.322 1133 c 0,38,39
 300.922 1311 300.922 1311 455.234 1415.5 c 128,-1,37
 609.548 1520 609.548 1520 839.548 1520 c 0,35,36
 928.548 1520 928.548 1520 1025.94 1504 c 128,-1,34
 1123.33 1488 1123.33 1488 1232.11 1456 c 1,32,33
 1197.12 1276 l 1,31,-1
 1090.5 1314 1090.5 1314 999.004 1332 c 128,-1,30
 907.503 1350 907.503 1350 824.503 1350 c 0,28,29
 672.503 1350 672.503 1350 579.049 1288.5 c 128,-1,27
 485.594 1227 485.594 1227 463.24 1112 c 0,25,26
 441.47 1000 441.47 1000 508.904 940.5 c 128,-1,24
 576.339 881 576.339 881 725.339 881 c 2,22,23
 907.339 881 l 1,21,-1
 875.071 715 l 1,20,-1
 701.071 715 l 2,19,-1
 536.071 715 536.071 715 429.09 640.5 c 128,-1,18
 322.108 566 322.108 566 296.45 434 c 0,16,17
 268.654 291 268.654 291 353.575 216 c 128,-1,15
 438.497 141 438.497 141 628.497 141 c 0,13,14
 737.497 141 737.497 141 842.356 166 c 128,-1,12
 947.216 191 947.216 191 1040.74 240 c 1,10,11
 1002.84 45 l 1,9,-1
 889.645 8 889.645 8 786.549 -10.5 c 128,-1,8
 683.452 -29 683.452 -29 589.452 -29 c 0,6,7
 309.452 -29 309.452 -29 180.973 92 c 128,-1,5
 52.4922 213 52.4922 213 95.4502 434 c 0,3,4
 123.441 578 123.441 578 223.99 676 c 128,-1,2
 324.54 774 324.54 774 475.565 805 c 1,0,1
EndSplineSet
EndChar
StartChar: florin
Encoding: 402 402 402
Width: 1303
Flags: W
Fore
1266 1509 m 1,0,-1
 1235 1356 l 1,1,2
 1197 1385 1197 1385 1157 1399 c 128,-1,3
 1117 1413 1117 1413 1073 1413 c 0,4,5
 977 1413 977 1413 920 1352 c 128,-1,6
 863 1291 863 1291 838 1159 c 1,7,-1
 778 848 l 1,8,-1
 1096 848 l 1,9,-1
 1065 705 l 1,10,-1
 748 705 l 1,11,-1
 621 70 l 1,12,13
 564 -209 564 -209 471 -317.5 c 128,-1,14
 378 -426 378 -426 205 -426 c 0,15,16
 131 -426 131 -426 69.5 -413.5 c 128,-1,17
 8 -401 8 -401 -47 -375 c 1,18,-1
 -16 -217 l 1,19,20
 36 -250 36 -250 84.5 -266.5 c 128,-1,21
 133 -283 133 -283 180 -283 c 0,22,23
 277 -283 277 -283 331.5 -214.5 c 128,-1,24
 386 -146 386 -146 420 20 c 1,25,-1
 557 705 l 1,26,-1
 279 705 l 1,27,-1
 309 848 l 1,28,-1
 588 848 l 1,29,-1
 651 1178 l 1,30,31
 688 1369 688 1369 789 1462.5 c 128,-1,32
 890 1556 890 1556 1059 1556 c 0,33,34
 1105 1556 1105 1556 1154.5 1545 c 128,-1,35
 1204 1534 1204 1534 1266 1509 c 1,0,-1
EndSplineSet
EndChar
StartChar: uni0194
Encoding: 404 404 404
Width: 1403
Flags: W
TeX: 0 0 0 0
Fore
868.641 650 m 1,0,1
 1108.36 201 1108.36 201 1028.58 -194 c 8,2,3
 979.71 -430 979.71 -430 566.71 -430 c 8,4,5
 158.71 -430 158.71 -430 172.584 -194 c 16,6,7
 194.727 172 194.727 172 632.001 657 c 1,8,-1
 302.29 1353 l 1,9,-1
 519.29 1353 l 1,10,-1
 782.409 798 l 1,11,-1
 1263.29 1353 l 1,12,-1
 1480.29 1353 l 1,13,-1
 868.641 650 l 1,0,1
708.512 495 m 1,14,15
 444.003 194 444.003 194 388.024 -130 c 8,16,17
 364.199 -268 364.199 -268 577.199 -268 c 16,18,19
 782.199 -268 782.199 -268 808.024 -130 c 16,20,21
 869.17 200 869.17 200 708.512 495 c 1,14,15
EndSplineSet
EndChar
StartChar: dotlessj
Encoding: 567 567 567
Width: 569
Flags: HW
AnchorPoint: "above" 379 1147 basechar 0
Fore
297 1120 m 1,0,-1
 481 1120 l 1,1,-1
 260 -20 l 1,2,-1
 259 -25 l 2,3,4
 222 -216 222 -216 174 -287 c 0,5,6
 129 -354 129 -354 42.5 -390 c 128,-1,7
 -44 -426 -44 -426 -162 -426 c 2,8,-1
 -231 -426 l 1,9,-1
 -201 -270 l 1,10,-1
 -154 -270 l 2,11,12
 -46 -270 -46 -270 -0.5 -225 c 128,-1,13
 45 -180 45 -180 76 -20 c 2,14,-1
 297 1120 l 1,0,-1
EndSplineSet
EndChar
StartChar: uni0250
Encoding: 592 592 592
Width: 1255
Flags: W
Fore
489.223 555 m 2,0,1
 712.223 555 712.223 555 808.136 606 c 128,-1,2
 904.049 657 904.049 657 927.958 780 c 0,3,4
 947.007 878 947.007 878 893.281 936 c 0,5,6
 840.361 993 840.361 993 729.361 993 c 0,7,8
 576.361 993 576.361 993 463.174 884 c 0,9,10
 349.181 776 349.181 776 314.192 596 c 2,11,-1
 306.223 555 l 1,12,-1
 489.223 555 l 2,0,1
107.449 479 m 2,13,-1
 231.658 1118 l 1,14,-1
 415.658 1118 l 1,15,-1
 382.614 948 l 1,16,17
 465.44 1050 465.44 1050 568.771 1098 c 0,18,19
 672.296 1147 672.296 1147 808.296 1147 c 0,20,21
 980.296 1147 980.296 1147 1063.44 1050 c 0,22,23
 1145.78 954 1145.78 954 1114.29 792 c 0,24,25
 1077.55 603 1077.55 603 931.893 507 c 0,26,27
 787.231 411 787.231 411 536.231 411 c 2,28,-1
 278.231 411 l 1,29,-1
 274.732 393 l 2,30,31
 250.047 266 250.047 266 319.44 196 c 0,32,33
 390.027 127 390.027 127 541.027 127 c 0,34,35
 637.027 127 637.027 127 732.498 150 c 128,-1,36
 827.969 173 827.969 173 920.911 219 c 1,37,-1
 887.866 49 l 1,38,39
 779.285 10 779.285 10 680.397 -10 c 0,40,41
 581.704 -29 581.704 -29 491.704 -29 c 0,42,43
 248.704 -29 248.704 -29 153.196 97 c 128,-1,44
 57.6885 223 57.6885 223 107.449 479 c 2,13,-1
EndSplineSet
EndChar
StartChar: uni0251
Encoding: 593 593 593
Width: 1300
Flags: HW
TeX: 0 0 0 0
AnchorPoint: "above" 718 1147 basechar 0
Fore
1006 950 m 1,0,-1
 1039.05 1120 l 1,1,-1
 1223.05 1120 l 1,2,-1
 1005.34 0 l 1,3,-1
 821.342 0 l 1,4,-1
 853.997 168 l 1,5,6
 776.56 68 776.56 68 679.229 20 c 0,7,8
 580.704 -29 580.704 -29 456.704 -29 c 0,9,10
 253.704 -29 253.704 -29 157.194 133 c 0,11,12
 61.6836 295 61.6836 295 113 559 c 128,-1,13
 164.316 823 164.316 823 322.806 985 c 0,14,15
 482.296 1147 482.296 1147 685.296 1147 c 0,16,17
 809.296 1147 809.296 1147 888.771 1098 c 0,18,19
 967.44 1050 967.44 1050 1006 950 c 1,0,-1
303 559 m 0,20,21
 263.541 356 263.541 356 323.993 240 c 0,22,23
 385.639 125 385.639 125 531.639 125 c 128,-1,24
 677.639 125 677.639 125 783.993 240 c 0,25,26
 890.541 356 890.541 356 930 559 c 128,-1,27
 969.459 762 969.459 762 908.007 878 c 0,28,29
 846.361 993 846.361 993 700.361 993 c 128,-1,30
 554.361 993 554.361 993 448.007 878 c 0,31,32
 342.459 762 342.459 762 303 559 c 0,20,21
EndSplineSet
EndChar
StartChar: uni0252
Encoding: 594 594 594
Width: 1300
Flags: HW
TeX: 0 0 0 0
AnchorPoint: "above" 718 1147 basechar 0
Fore
220.997 168 m 1,0,-1
 187.953 -2 l 1,1,-1
 3.95312 -2 l 1,2,-1
 221.658 1118 l 1,3,-1
 405.658 1118 l 1,4,-1
 373.003 950 l 1,5,6
 450.44 1050 450.44 1050 548.771 1098 c 0,7,8
 646.296 1147 646.296 1147 770.296 1147 c 0,9,10
 973.296 1147 973.296 1147 1068.81 985 c 0,11,12
 1165.32 823 1165.32 823 1114 559 c 128,-1,13
 1062.68 295 1062.68 295 903.194 133 c 0,14,15
 744.704 -29 744.704 -29 541.704 -29 c 0,16,17
 417.704 -29 417.704 -29 339.229 20 c 0,18,19
 259.56 68 259.56 68 220.997 168 c 1,0,-1
924 559 m 0,20,21
 963.459 762 963.459 762 902.007 878 c 0,22,23
 841.361 993 841.361 993 695.361 993 c 128,-1,24
 549.361 993 549.361 993 443.007 878 c 0,25,26
 336.459 762 336.459 762 297 559 c 128,-1,27
 257.541 356 257.541 356 318.993 240 c 0,28,29
 380.639 125 380.639 125 526.639 125 c 128,-1,30
 672.639 125 672.639 125 777.993 240 c 0,31,32
 884.541 356 884.541 356 924 559 c 0,20,21
EndSplineSet
EndChar
StartChar: uni0253
Encoding: 595 595 595
Width: 1300
Flags: W
TeX: 0 0 0 0
Fore
957.249 559 m 0,0,1
 996.708 762 996.708 762 936.257 878 c 0,2,3
 874.61 993 874.61 993 728.61 993 c 128,-1,4
 582.61 993 582.61 993 476.257 878 c 0,5,6
 370.708 762 370.708 762 331.249 559 c 128,-1,7
 291.79 356 291.79 356 352.242 240 c 0,8,9
 413.888 125 413.888 125 559.888 125 c 128,-1,10
 705.888 125 705.888 125 812.242 240 c 0,11,12
 917.79 356 917.79 356 957.249 559 c 0,0,1
406.252 950 m 1,13,14
 483.69 1050 483.69 1050 583.021 1098 c 0,15,16
 680.545 1147 680.545 1147 803.545 1147 c 0,17,18
 1007.54 1147 1007.54 1147 1103.06 985 c 0,19,20
 1199.57 823 1199.57 823 1148.25 559 c 128,-1,21
 1096.93 295 1096.93 295 937.443 133 c 0,22,23
 778.953 -29 778.953 -29 574.953 -29 c 0,24,25
 451.953 -29 451.953 -29 373.479 20 c 0,26,27
 293.809 68 293.809 68 255.246 168 c 1,28,-1
 222.591 0 l 1,29,-1
 37.5908 0 l 1,30,-1
 232.359 1002 l 1,31,-1
 261.128 1150 l 2,32,33
 302.726 1364 302.726 1364 403.386 1460 c 0,34,35
 503.047 1556 503.047 1556 684.047 1556 c 2,36,-1
 938.047 1556 l 1,37,-1
 907.723 1400 l 1,38,-1
 674.723 1400 l 2,39,40
 565.723 1400 565.723 1400 522.393 1352 c 0,41,42
 474.285 1300 474.285 1300 445.128 1150 c 2,43,-1
 416.359 1002 l 1,44,-1
 406.252 950 l 1,13,14
EndSplineSet
EndChar
StartChar: uni0254
Encoding: 596 596 596
Width: 1126
Flags: HW
AnchorPoint: "above" 606 1147 basechar 0
Fore
213.689 1077 m 1,0,1
 296.492 1112 296.492 1112 380.991 1130 c 0,2,3
 465.296 1147 465.296 1147 550.296 1147 c 0,4,5
 812.296 1147 812.296 1147 931.778 990 c 0,6,7
 1052.26 833 1052.26 833 999 559 c 0,8,9
 946.518 289 946.518 289 766.611 130 c 128,-1,10
 586.704 -29 586.704 -29 333.704 -29 c 0,11,12
 240.704 -29 240.704 -29 161.203 -11 c 0,13,14
 82.7021 7 82.7021 7 12.7002 43 c 1,15,-1
 45.7441 213 l 1,16,17
 115.386 170 115.386 170 190.109 148 c 0,18,19
 264.027 127 264.027 127 344.027 127 c 0,20,21
 523.027 127 523.027 127 643.993 240 c 0,22,23
 765.152 354 765.152 354 805 559 c 128,-1,24
 844.848 764 844.848 764 768.007 878 c 0,25,26
 690.973 991 690.973 991 511.973 991 c 0,27,28
 431.973 991 431.973 991 349.891 970 c 0,29,30
 266.614 948 266.614 948 180.256 905 c 1,31,-1
 213.689 1077 l 1,0,1
EndSplineSet
EndChar
StartChar: uni0255
Encoding: 597 597 597
Width: 1126
Flags: HW
TeX: 0 0 0 0
AnchorPoint: "above" 770 1147 basechar 0
Fore
479.897 146 m 1,0,1
 534.667 127 534.667 127 611.204 127 c 0,2,3
 757.205 127 757.205 127 768.284 184 c 0,4,5
 781.363 259 781.363 259 650.862 259 c 0,6,7
 550.076 259 550.076 259 479.897 146 c 1,0,1
412.408 -16 m 1,8,9
 395.328 -73 395.328 -73 382.11 -141 c 1,10,-1
 228.527 -144 l 1,11,12
 248.743 -40 248.743 -40 277.071 44 c 1,13,14
 226.69 78.5596 226.69 78.5596 189.788 130 c 0,15,16
 72.0908 291.04 72.0908 291.04 124.177 559 c 0,17,18
 177.441 833.02 177.441 833.02 358.955 990 c 0,19,20
 538.996 1147 538.996 1147 801.473 1147 c 0,21,22
 884.018 1147 884.018 1147 964.168 1130 c 0,23,24
 1038.63 1112.7 1038.63 1112.7 1110.87 1077 c 1,25,-1
 1077.43 905 l 1,26,27
 1010.67 946.757 1010.67 946.757 933.067 970 c 0,28,29
 859.149 991 859.149 991 779.149 991 c 0,30,31
 600.589 991 600.589 991 479.185 878 c 0,32,33
 358.024 764 358.024 764 318.177 559 c 0,34,35
 278.329 354 278.329 354 355.17 240 c 0,36,37
 358.197 235 358.197 235 365.448 226 c 1,38,39
 483.898 402 483.898 402 679.659 402 c 0,40,41
 978.159 402 978.159 402 931.842 156 c 0,42,43
 896.604 -33 896.604 -33 562.104 -33 c 0,44,45
 481.739 -33 481.739 -33 412.408 -16 c 1,8,9
EndSplineSet
EndChar
StartChar: uni0256
Encoding: 598 598 598
Width: 1300
Flags: W
TeX: 0 0 0 0
Fore
301.834 559 m 0,0,1
 262.375 356 262.375 356 322.826 240 c 0,2,3
 384.474 125 384.474 125 530.473 125 c 0,4,5
 676.472 125 676.472 125 782.826 240 c 0,6,7
 889.375 356.001 889.375 356.001 928.834 559 c 0,8,9
 968.293 761.999 968.293 761.999 906.841 878 c 0,10,11
 845.193 993 845.193 993 699.194 993 c 0,12,13
 553.195 993 553.195 993 446.841 878 c 0,14,15
 341.293 762 341.293 762 301.834 559 c 0,0,1
1004.84 950 m 1,16,-1
 1122.63 1556 l 1,17,-1
 1306.63 1556 l 1,18,-1
 1000.29 -20 l 2,19,20
 970.547 -173.002 970.547 -173.002 999.022 -222 c 0,21,22
 1027.69 -270 1027.69 -270 1132.69 -270 c 2,23,-1
 1181.69 -270 l 1,24,-1
 1151.37 -426 l 1,25,-1
 1081.37 -426 l 2,26,27
 900.369 -426 900.369 -426 838.029 -330 c 0,28,29
 774.69 -233.999 774.69 -233.999 816.287 -20 c 2,30,-1
 845.056 128 l 1,31,-1
 852.831 168 l 1,32,33
 775.395 68.001 775.395 68.001 678.062 20 c 0,34,35
 579.535 -29 579.535 -29 455.538 -29 c 0,36,37
 252.539 -29 252.539 -29 156.027 133 c 0,38,39
 60.5176 295.001 60.5176 295.001 111.834 559 c 0,40,41
 163.15 822.999 163.15 822.999 321.64 985 c 0,42,43
 481.13 1147 481.13 1147 684.129 1147 c 0,44,45
 808.126 1147 808.126 1147 887.604 1098 c 0,46,47
 966.275 1050 966.275 1050 1004.84 950 c 1,16,-1
EndSplineSet
EndChar
StartChar: uni0257
Encoding: 599 599 599
Width: 1489
Flags: W
TeX: 0 0 0 0
Fore
1160.36 1002 m 1,0,-1
 965.591 0 l 1,1,-1
 781.591 0 l 1,2,-1
 814.246 168 l 1,3,4
 736.809 68 736.809 68 639.479 20 c 0,5,6
 540.953 -29 540.953 -29 416.953 -29 c 0,7,8
 213.953 -29 213.953 -29 117.443 133 c 0,9,10
 21.9326 295 21.9326 295 73.249 559 c 128,-1,11
 124.565 823 124.565 823 283.056 985 c 0,12,13
 442.545 1147 442.545 1147 645.545 1147 c 0,14,15
 769.545 1147 769.545 1147 849.021 1098 c 0,16,17
 927.69 1050 927.69 1050 966.252 950 c 1,18,-1
 976.359 1002 l 1,19,-1
 1005.13 1150 l 2,20,21
 1046.73 1364 1046.73 1364 1147.39 1460 c 0,22,23
 1247.05 1556 1247.05 1556 1428.05 1556 c 2,24,-1
 1682.05 1556 l 1,25,-1
 1651.72 1400 l 1,26,-1
 1418.72 1400 l 2,27,28
 1309.72 1400 1309.72 1400 1266.39 1352 c 0,29,30
 1218.29 1300 1218.29 1300 1189.13 1150 c 2,31,-1
 1160.36 1002 l 1,0,-1
263.249 559 m 0,32,33
 223.79 356 223.79 356 284.242 240 c 0,34,35
 345.888 125 345.888 125 491.888 125 c 128,-1,36
 637.888 125 637.888 125 744.242 240 c 0,37,38
 850.79 356 850.79 356 890.249 559 c 128,-1,39
 929.708 762 929.708 762 868.257 878 c 0,40,41
 806.61 993 806.61 993 660.61 993 c 128,-1,42
 514.61 993 514.61 993 408.257 878 c 0,43,44
 302.708 762 302.708 762 263.249 559 c 0,32,33
EndSplineSet
EndChar
StartChar: uni0258
Encoding: 600 600 600
Width: 1260
Flags: HW
AnchorPoint: "above" 754 1147 basechar 0
Fore
122.136 606 m 2,0,1
 170.73 856 170.73 856 330.11 1002 c 0,2,3
 490.296 1147 490.296 1147 716.296 1147 c 0,4,5
 968.296 1147 968.296 1147 1085 986 c 0,6,7
 1202.51 824 1202.51 824 1149.06 549 c 0,8,9
 1097.35 283 1097.35 283 910.027 127 c 0,10,11
 723.704 -29 723.704 -29 455.704 -29 c 0,12,13
 348.704 -29 348.704 -29 248.98 -7 c 128,-1,14
 149.257 15 149.257 15 58.4209 57 c 1,15,-1
 92.2432 231 l 1,16,17
 180.136 179 180.136 179 275.082 153 c 0,18,19
 369.027 127 369.027 127 475.027 127 c 0,20,21
 658.027 127 658.027 127 779.271 226 c 0,22,23
 901.709 326 901.709 326 950.642 516 c 1,24,-1
 104.642 516 l 1,25,-1
 122.136 606 l 2,0,1
316.633 660 m 1,26,-1
 972.438 659 l 1,27,28
 989.15 817 989.15 817 913.062 904 c 0,29,30
 837.973 991 837.973 991 683.973 991 c 0,31,32
 547.973 991 547.973 991 448.479 901 c 0,33,34
 347.983 811 347.983 811 316.633 660 c 1,26,-1
EndSplineSet
EndChar
StartChar: uni0259
Encoding: 601 601 601
Width: 1260
Flags: HW
AnchorPoint: "above" 754 1147 basechar 0
Fore
103.864 512 m 2,0,-1
 121.358 602 l 1,1,-1
 967.358 602 l 1,2,3
 992.291 792 992.291 792 908.729 892 c 0,4,5
 825.973 991 825.973 991 642.973 991 c 0,6,7
 536.973 991 536.973 991 432.918 965 c 0,8,9
 327.864 939 327.864 939 219.757 887 c 1,10,-1
 253.579 1061 l 1,11,12
 360.743 1103 360.743 1103 469.02 1125 c 128,-1,13
 577.296 1147 577.296 1147 684.296 1147 c 0,14,15
 952.296 1147 952.296 1147 1077.97 991 c 0,16,17
 1204.65 835 1204.65 835 1152.94 569 c 0,18,19
 1099.49 294 1099.49 294 919 132 c 0,20,21
 739.704 -29 739.704 -29 487.704 -29 c 0,22,23
 261.704 -29 261.704 -29 157.89 116 c 0,24,25
 55.2695 262 55.2695 262 103.864 512 c 2,0,-1
277.367 458 m 1,26,27
 250.017 307 250.017 307 315.521 217 c 0,28,29
 380.027 127 380.027 127 516.027 127 c 0,30,31
 670.027 127 670.027 127 778.938 214 c 0,32,33
 888.85 301 888.85 301 933.562 459 c 1,34,-1
 277.367 458 l 1,26,27
EndSplineSet
EndChar
StartChar: uni025A
Encoding: 602 602 602
Width: 1629
Flags: HW
TeX: 0 0 0 0
AnchorPoint: "above" 754 1147 basechar 0
Fore
778.938 214 m 1,0,1
 907.765 352.001 907.765 352.001 946 559 c 0,2,3
 958.699 621.088 958.699 621.088 959.691 677.116 c 1,4,-1
 273.485 320.668 l 1,5,6
 290.127 252.429 290.127 252.429 315.521 217 c 0,7,8
 380.026 127 380.026 127 516.027 127 c 0,9,10
 683.693 127 683.693 127 778.938 214 c 1,0,1
1163.74 783.111 m 1,11,12
 1175.85 686.852 1175.85 686.852 1152.94 569 c 0,13,14
 1099.49 293.999 1099.49 293.999 919 132 c 0,15,16
 739.706 -29 739.706 -29 487.704 -29 c 0,17,18
 259.807 -29 259.807 -29 157.89 116 c 0,19,20
 85.6133 219.33 85.6133 219.33 88.6699 375.314 c 1,21,-1
 940.755 818.253 l 1,22,23
 928.616 857.132 928.616 857.132 908.729 892 c 0,24,25
 852.502 991.984 852.502 991.984 642.973 991 c 0,26,27
 534.942 990.493 534.942 990.493 432.918 965 c 0,28,29
 327.865 938.999 327.865 938.999 219.757 887 c 1,30,-1
 253.579 1061 l 1,31,32
 360.749 1103 360.749 1103 469.02 1125 c 0,33,34
 577.302 1147 577.302 1147 684.296 1147 c 0,35,36
 952.296 1147 952.296 1147 1077.97 991 c 0,37,38
 1106.67 955.655 1106.67 955.655 1126.21 914.662 c 1,39,-1
 1351.94 1032 l 1,40,-1
 1535.94 1032 l 1,41,-1
 1507.17 884 l 2,42,43
 1477.43 730.998 1477.43 730.998 1505.91 682 c 0,44,45
 1534.58 634 1534.58 634 1639.58 634 c 2,46,-1
 1682.58 634 l 1,47,-1
 1652.25 478 l 1,48,-1
 1588.25 478 l 2,49,50
 1413.73 478 1413.73 478 1344.92 574 c 0,51,52
 1280.41 664 1280.41 664 1319.47 864 c 1,53,-1
 1163.74 783.111 l 1,11,12
EndSplineSet
EndChar
StartChar: uni025B
Encoding: 603 603 603
Width: 1116
Flags: HW
TeX: 0 0 0 0
AnchorPoint: "above" 720 1147 basechar 0
Fore
401.65 607 m 1,0,1
 287.51 632 287.51 632 235.145 697 c 0,2,3
 183.585 761 183.585 761 201.856 855 c 0,4,5
 227.903 989 227.903 989 365.259 1068 c 128,-1,6
 502.615 1147 502.615 1147 711.615 1147 c 0,7,8
 792.615 1147 792.615 1147 881.283 1135 c 0,9,10
 970.95 1123 970.95 1123 1071.29 1099 c 1,11,-1
 1038.82 932 l 1,12,13
 940.072 959 940.072 959 855.599 972 c 0,14,15
 771.932 984 771.932 984 695.932 984 c 0,16,17
 557.932 984 557.932 984 475.573 941 c 128,-1,18
 393.215 898 393.215 898 378.83 824 c 0,19,20
 366.974 763 366.974 763 430.615 720 c 0,21,22
 494.062 676 494.062 676 629.062 676 c 2,23,-1
 795.062 676 l 1,24,-1
 767.071 532 l 1,25,-1
 608.071 532 l 2,26,27
 458.071 532 458.071 532 363.381 477 c 128,-1,28
 268.689 422 268.689 422 252.944 341 c 0,29,30
 233.896 243 233.896 243 313.594 190 c 0,31,32
 394.485 138 394.485 138 567.485 138 c 0,33,34
 666.485 138 666.485 138 760.984 156 c 0,35,36
 855.289 173 855.289 173 938.897 207 c 1,37,-1
 905.27 34 l 1,38,39
 802.827 6 802.827 6 710.106 -8 c 0,40,41
 616.385 -22 616.385 -22 530.385 -22 c 0,42,43
 276.385 -22 276.385 -22 155.073 69 c 0,44,45
 34.9561 161 34.9561 161 67.2236 327 c 0,46,47
 88.4111 436 88.4111 436 176.795 510 c 128,-1,48
 265.179 584 265.179 584 401.65 607 c 1,0,1
EndSplineSet
EndChar
StartChar: uni025C
Encoding: 604 604 604
Width: 1116
Flags: HW
TeX: 0 0 0 0
AnchorPoint: "above" 666 1147 basechar 0
Fore
735.65 607 m 1,0,1
 863.179 584 863.179 584 922.795 510 c 0,2,3
 983.411 436 983.411 436 962.224 327 c 0,4,5
 929.956 161 929.956 161 773.073 69 c 0,6,7
 617.385 -22 617.385 -22 362.385 -22 c 0,8,9
 277.385 -22 277.385 -22 189.106 -8 c 128,-1,10
 100.827 6 100.827 6 10.2695 34 c 1,11,-1
 43.8975 207 l 1,12,13
 113.289 173 113.289 173 200.984 156 c 0,14,15
 288.485 138 288.485 138 388.485 138 c 0,16,17
 561.485 138 561.485 138 661.594 190 c 0,18,19
 762.896 243 762.896 243 781.944 341 c 0,20,21
 797.689 422 797.689 422 723.381 477 c 0,22,23
 650.071 532 650.071 532 500.071 532 c 2,24,-1
 342.071 532 l 1,25,-1
 370.062 676 l 1,26,-1
 535.062 676 l 2,27,28
 671.062 676 671.062 676 751.615 720 c 0,29,30
 831.974 763 831.974 763 843.83 824 c 0,31,32
 858.215 898 858.215 898 792.573 941 c 0,33,34
 725.932 984 725.932 984 587.932 984 c 0,35,36
 512.932 984 512.932 984 423.599 972 c 0,37,38
 335.072 959 335.072 959 225.823 932 c 1,39,-1
 258.285 1099 l 1,40,41
 367.95 1123 367.95 1123 461.283 1135 c 0,42,43
 555.615 1147 555.615 1147 635.615 1147 c 0,44,45
 845.615 1147 845.615 1147 952.259 1068 c 128,-1,46
 1058.9 989 1058.9 989 1032.86 855 c 0,47,48
 1014.58 761 1014.58 761 937.145 697 c 0,49,50
 859.51 632 859.51 632 735.65 607 c 1,0,1
EndSplineSet
EndChar
StartChar: uni025D
Encoding: 605 605 605
Width: 1567
Flags: W
TeX: 0 0 0 0
Fore
735.65 607 m 1,0,1
 863.18 583.999 863.18 583.999 922.795 510 c 0,2,3
 983.411 435.999 983.411 435.999 962.224 327 c 0,4,5
 929.957 161.002 929.957 161.002 773.073 69 c 0,6,7
 617.384 -22 617.384 -22 362.385 -22 c 0,8,9
 277.378 -22 277.378 -22 189.106 -8 c 0,10,11
 100.826 6.00098 100.826 6.00098 10.2695 34 c 1,12,-1
 43.8975 207 l 1,13,14
 113.287 173.002 113.287 173.002 200.984 156 c 0,15,16
 288.484 138 288.484 138 388.485 138 c 0,17,18
 561.483 138 561.483 138 661.594 190 c 0,19,20
 762.896 243.002 762.896 243.002 781.944 341 c 0,21,22
 797.689 422 797.689 422 723.381 477 c 0,23,24
 650.07 532 650.07 532 500.071 532 c 2,25,-1
 342.071 532 l 1,26,-1
 370.062 676 l 1,27,-1
 535.062 676 l 2,28,29
 671.064 676 671.064 676 751.615 720 c 0,30,31
 831.973 762.999 831.973 762.999 843.83 824 c 0,32,33
 858.215 898.002 858.215 898.002 792.573 941 c 0,34,35
 725.93 984 725.93 984 587.932 984 c 0,36,37
 512.932 984 512.932 984 423.599 972 c 0,38,39
 335.085 959.003 335.085 959.003 225.823 932 c 1,40,-1
 258.285 1099 l 1,41,42
 367.949 1123 367.949 1123 461.283 1135 c 0,43,44
 555.616 1147 555.616 1147 635.615 1147 c 0,45,46
 845.612 1147 845.612 1147 952.259 1068 c 0,47,48
 1039.75 1003.19 1039.75 1003.19 1037.93 901.352 c 1,49,-1
 1289.26 1032 l 1,50,-1
 1473.26 1032 l 1,51,-1
 1444.49 884 l 2,52,53
 1414.75 730.998 1414.75 730.998 1443.23 682 c 0,54,55
 1471.9 634 1471.9 634 1576.9 634 c 2,56,-1
 1619.9 634 l 1,57,-1
 1589.58 478 l 1,58,-1
 1525.58 478 l 2,59,60
 1351.04 478 1351.04 478 1282.24 574 c 0,61,62
 1217.73 664 1217.73 664 1256.79 864 c 1,63,-1
 945.139 702.115 l 1,64,-1
 944.655 703.401 l 1,65,-1
 937.145 697 l 2,66,67
 859.507 631.998 859.507 631.998 735.65 607 c 1,0,1
EndSplineSet
EndChar
StartChar: uni025E
Encoding: 606 606 606
Width: 1396
Flags: W
TeX: 0 0 0 0
Fore
857.075 984 m 0,0,1
 405.075 984 405.075 984 322.824 566 c 1,2,3
 236.131 120 236.131 120 688.937 119 c 0,4,5
 845.937 119 845.937 119 929.434 173 c 0,6,7
 1026.87 237 1026.87 237 1041.26 311 c 0,8,9
 1056.42 389 1056.42 389 987.916 443 c 0,10,11
 950.747 473 950.747 473 765.747 473 c 2,12,-1
 583.747 473 l 9,13,-1
 614.265 630 l 1,14,-1
 796.265 630 l 2,15,16
 981.265 630 981.265 630 1030.1 660 c 0,17,18
 1119.79 715 1119.79 715 1134.75 792 c 128,-1,19
 1149.72 869 1149.72 869 1076.58 930 c 0,20,21
 1011.08 984 1011.08 984 857.075 984 c 0,0,1
586.43 1099 m 0,22,23
 707.177 1144 707.177 1144 906.371 1145 c 0,24,25
 1136.37 1145 1136.37 1145 1253.65 1059 c 0,26,27
 1370.74 972 1370.74 972 1341.97 824 c 0,28,29
 1321.95 721 1321.95 721 1237.15 650 c 128,-1,30
 1152.35 579 1152.35 579 1016.1 552 c 1,31,32
 1141.66 524 1141.66 524 1198.86 453 c 128,-1,33
 1256.06 382 1256.06 382 1236.04 279 c 0,34,35
 1207.27 131 1207.27 131 1056.55 45 c 0,36,37
 905.642 -42 905.642 -42 675.642 -42 c 0,38,39
 479.253 -44 479.253 -44 376.304 18 c 0,40,41
 47.0137 212 47.0137 212 113.881 556 c 0,42,43
 191.05 953 191.05 953 586.43 1099 c 0,22,23
EndSplineSet
EndChar
StartChar: uni025F
Encoding: 607 607 607
Width: 744
Flags: W
Fore
125.55 0 m 1,0,-1
 -55.4502 0 l 1,1,-1
 -27.3887 143 l 1,2,-1
 153.611 143 l 1,3,-1
 343.256 1120 l 1,4,-1
 527.256 1120 l 1,5,-1
 337.314 143 l 1,6,-1
 513.314 143 l 1,7,-1
 485.253 0 l 1,8,-1
 309.518 0 l 1,9,-1
 309.55 0 l 1,10,-1
 305.662 -20 l 2,11,12
 264.065 -234 264.065 -234 164.404 -330 c 0,13,14
 63.7451 -426 63.7451 -426 -117.256 -426 c 2,15,-1
 -187.256 -426 l 1,16,-1
 -156.933 -270 l 1,17,-1
 -107.933 -270 l 2,18,19
 -2.93359 -270 -2.93359 -270 44.3975 -222 c 0,20,21
 92.1162 -172 92.1162 -172 121.662 -20 c 2,22,-1
 125.55 -0 l 1,23,-1
 125.55 0 l 1,0,-1
EndSplineSet
EndChar
StartChar: uni0260
Encoding: 608 608 608
Width: 1305
Flags: W
TeX: 0 0 0 0
Fore
931.555 573 m 2,0,-1
 1013.19 993 l 1,1,-1
 699.194 993 l 2,2,3
 551.194 993 551.194 993 447.812 883 c 0,4,5
 343.431 773 343.431 773 304.555 573 c 0,6,7
 265.873 374 265.873 374 327.491 264 c 0,8,9
 388.109 154 388.109 154 536.109 154 c 0,10,11
 685.109 154 685.109 154 789.491 264 c 0,12,13
 892.873 374 892.873 374 931.555 573 c 2,0,-1
1037.88 1120 m 1,14,-1
 1043.71 1150 l 2,15,16
 1085.31 1364 1085.31 1364 1185.97 1460 c 0,17,18
 1285.63 1556 1285.63 1556 1466.63 1556 c 2,19,-1
 1536.63 1556 l 1,20,-1
 1506.31 1400 l 1,21,-1
 1457.31 1400 l 2,22,23
 1352.31 1400 1352.31 1400 1304.98 1352 c 0,24,25
 1257.45 1303 1257.45 1303 1227.71 1150 c 2,26,-1
 1221.88 1120 l 1,27,-1
 1213.52 1077 l 1,28,-1
 1031.19 139 l 2,29,30
 975.698 -146.501 975.698 -146.501 821.582 -286 c 0,31,32
 666.913 -426 666.913 -426 405.369 -426 c 0,33,34
 308.369 -426 308.369 -426 225.091 -412 c 0,35,36
 142.006 -397 142.006 -397 66.8379 -367 c 1,37,-1
 101.632 -188 l 1,38,39
 174.079 -232 174.079 -232 248.997 -253 c 0,40,41
 323.915 -274 323.915 -274 405.915 -274 c 0,42,43
 586.915 -274 586.915 -274 695.187 -180 c 0,44,45
 803.652 -85 803.652 -85 840.779 106 c 2,46,-1
 858.468 197 l 1,47,48
 782.225 98 782.225 98 683.7 49 c 0,49,50
 585.175 0 585.175 0 461.175 0 c 0,51,52
 255.175 0 255.175 0 159.692 157 c 0,53,54
 64.2109 314 64.2109 314 114.555 573 c 0,55,56
 159.846 805.999 159.846 805.999 316.363 963 c 0,57,58
 472.88 1120 472.88 1120 678.881 1120 c 2,59,-1
 1037.88 1120 l 1,14,-1
EndSplineSet
EndChar
StartChar: uni0261
Encoding: 609 609 609
Width: 1300
Flags: W
TeX: 0 0 0 0
Fore
973.93 573 m 1,0,-1
 1055.57 993 l 1,1,-1
 741.569 993 l 1,2,3
 593.569 993 593.569 993 490.188 883 c 0,4,5
 385.806 773 385.806 773 346.93 573 c 0,6,7
 308.248 374 308.248 374 369.866 264 c 0,8,9
 430.484 154 430.484 154 578.484 154 c 0,10,11
 727.484 154 727.484 154 831.866 264 c 0,12,13
 935.248 374 935.248 374 973.93 573 c 1,0,-1
1264.26 1120 m 1,14,-1
 1073.57 139 l 2,15,16
 1017.98 -147 1017.98 -147 863.957 -286 c 0,17,18
 709.744 -426 709.744 -426 447.744 -426 c 0,19,20
 350.744 -426 350.744 -426 267.466 -412 c 0,21,22
 184.381 -397 184.381 -397 109.213 -367 c 1,23,-1
 144.007 -188 l 1,24,25
 216.454 -232 216.454 -232 291.372 -253 c 128,-1,26
 366.29 -274 366.29 -274 448.29 -274 c 0,27,28
 629.29 -274 629.29 -274 737.562 -180 c 0,29,30
 846.027 -85 846.027 -85 883.154 106 c 2,31,-1
 900.843 197 l 1,32,33
 824.6 98 824.6 98 726.074 49 c 128,-1,34
 627.55 0 627.55 0 503.55 0 c 0,35,36
 297.55 0 297.55 0 202.067 157 c 128,-1,37
 106.586 314 106.586 314 156.93 573 c 0,38,39
 202.221 806 202.221 806 358.738 963 c 0,40,41
 515.254 1120 515.254 1120 721.256 1120 c 2,42,-1
 1264.26 1120 l 1,14,-1
EndSplineSet
EndChar
StartChar: uni0262
Encoding: 610 610 610
Width: 1289
Flags: W
TeX: 0 0 0 0
Fore
857.304 178 m 0,1,-1
 912.119 460 l 1,2,-1
 757.119 460 l 1,3,-1
 784.333 600 l 1,4,-1
 1105.33 600 l 1,5,-1
 1002.7 72 l 1,6,7
 924.091 38 924.091 38 833.203 18 c 0,8,9
 751.704 0 751.704 0 549.704 0 c 0,10,11
 296.704 0 296.704 0 178.611 159 c 128,-1,12
 60.5176 318 60.5176 318 113 588 c 0,13,14
 166.26 862 166.26 862 347.778 1019 c 0,15,16
 528.296 1176 528.296 1176 790.296 1176 c 0,17,18
 852.296 1176 852.296 1176 952.797 1158 c 0,19,20
 1053.49 1141 1053.49 1141 1165.91 1066 c 1,21,-1
 1132.48 894 l 1,22,23
 1027.45 971 1027.45 971 921.696 998 c 0,24,25
 838.973 1020 838.973 1020 767.973 1020 c 0,26,27
 588.973 1020 588.973 1020 467.812 906 c 0,28,29
 346.848 793 346.848 793 307 588 c 128,-1,30
 267.152 383 267.152 383 344.188 270 c 0,31,32
 421.027 156 421.027 156 600.027 156 c 0,33,34
 773.027 156 773.027 156 857.304 178 c 0,1,-1
EndSplineSet
EndChar
StartChar: uni0263
Encoding: 611 611 611
Width: 1403
Flags: W
TeX: 0 0 0 0
Fore
885.134 572 m 1,0,1
 1081.47 126.136 1081.47 126.136 1019.24 -194 c 0,2,3
 974.191 -425.749 974.191 -425.749 589.364 -430 c 0,4,5
 165.842 -434.857 165.842 -434.857 211.238 -194 c 0,6,7
 275.513 147.713 275.513 147.713 648.494 579 c 1,8,-1
 356.654 1120 l 1,9,-1
 573.654 1120 l 1,10,-1
 798.902 720 l 1,11,-1
 1167.65 1120 l 1,12,-1
 1384.65 1120 l 1,13,-1
 885.134 572 l 1,0,1
740.808 452 m 1,14,15
 460.938 144 460.938 144 410.679 -130 c 0,16,17
 386.342 -268.01 386.342 -268.01 599.854 -268 c 16,18,19
 803.305 -267.986 803.305 -267.986 830.679 -130 c 0,20,21
 880.273 120 880.273 120 740.808 452 c 1,14,15
EndSplineSet
EndChar
StartChar: uni0264
Encoding: 612 612 612
Width: 1212
Flags: W
TeX: 0 0 0 0
Fore
499.054 586 m 1,0,-1
 204.853 1120 l 1,1,-1
 421.853 1120 l 1,2,-1
 641.295 721 l 1,3,-1
 1015.85 1120 l 1,4,-1
 1232.85 1120 l 1,5,-1
 721.916 575 l 1,6,7
 854.07 334 854.07 334 821.657 167.25 c 0,8,9
 790.546 0.000976562 790.546 0.000976562 503.397 0 c 0,10,11
 201.147 0 201.147 0 233.657 167.25 c 0,12,13
 268.014 344 268.014 344 499.054 586 c 1,0,-1
578.675 440 m 1,14,15
 430.337 282 430.337 282 418.82 222.75 c 0,16,17
 398.229 119.241 398.229 119.241 521.327 119.25 c 16,18,19
 634.952 119.25 634.952 119.25 655.07 222.75 c 0,20,21
 667.365 286 667.365 286 578.675 440 c 1,14,15
EndSplineSet
EndChar
StartChar: uni0265
Encoding: 613 613 613
Width: 1298
Flags: W
Fore
192.466 442 m 2,0,-1
 324.256 1120 l 1,1,-1
 508.256 1120 l 1,2,-1
 377.827 449 l 2,3,4
 346.92 290 346.92 290 393.37 210 c 0,5,6
 440.014 131 440.014 131 564.014 131 c 0,7,8
 713.014 131 713.014 131 818.48 226 c 0,9,10
 922.946 321 922.946 321 954.824 485 c 2,11,-1
 1078.26 1120 l 1,12,-1
 1262.26 1120 l 1,13,-1
 961.744 -426 l 1,14,-1
 777.744 -426 l 1,15,-1
 893.983 172 l 1,16,17
 807.156 70 807.156 70 708.438 20 c 0,18,19
 610.913 -29 610.913 -29 493.913 -29 c 0,20,21
 300.913 -29 300.913 -29 224.238 91 c 128,-1,22
 147.564 211 147.564 211 192.466 442 c 2,0,-1
EndSplineSet
EndChar
StartChar: uni0266
Encoding: 614 614 614
Width: 1298
Flags: W
Fore
402.656 946 m 1,0,-1
 403.656 946 l 1,1,2
 489.288 1047 489.288 1047 588.007 1097 c 0,3,4
 687.727 1147 687.727 1147 804.727 1147 c 0,5,6
 997.727 1147 997.727 1147 1073.59 1028 c 0,7,8
 1149.27 908 1149.27 908 1104.17 676 c 2,9,-1
 972.772 0 l 1,10,-1
 788.772 0 l 1,11,-1
 919.007 670 l 2,12,13
 949.913 829 949.913 829 903.27 908 c 128,-1,14
 856.625 987 856.625 987 732.625 987 c 0,15,16
 583.625 987 583.625 987 479.159 892 c 128,-1,17
 374.693 797 374.693 797 342.814 633 c 2,18,-1
 219.772 0 l 1,19,-1
 34.7725 0 l 1,20,-1
 229.541 1002 l 1,21,-1
 258.31 1150 l 2,22,23
 299.907 1364 299.907 1364 400.567 1460 c 0,24,25
 500.228 1556 500.228 1556 681.228 1556 c 2,26,-1
 935.228 1556 l 1,27,-1
 904.904 1400 l 1,28,-1
 671.904 1400 l 2,29,30
 566.904 1400 566.904 1400 519.574 1352 c 0,31,32
 472.05 1303 472.05 1303 442.31 1150 c 2,33,-1
 402.656 946 l 1,0,-1
EndSplineSet
EndChar
StartChar: uni0267
Encoding: 615 615 615
Width: 1298
Flags: W
Fore
444.059 946 m 1,0,-1
 445.059 946 l 1,1,2
 530.69 1047 530.69 1047 629.41 1097 c 0,3,4
 729.127 1147 729.127 1147 846.129 1147 c 0,5,6
 1039.13 1147 1039.13 1147 1115 1028 c 0,7,8
 1190.67 908 1190.67 908 1145.58 676 c 2,9,-1
 1010.29 -20 l 2,10,11
 968.69 -233.999 968.69 -233.999 868.029 -330 c 0,12,13
 768.369 -426 768.369 -426 587.369 -426 c 2,14,-1
 333.369 -426 l 1,15,-1
 363.692 -270 l 1,16,-1
 596.692 -270 l 2,17,18
 701.691 -270 701.691 -270 749.022 -222 c 0,19,20
 796.547 -173.002 796.547 -173.002 826.287 -20 c 2,21,-1
 960.41 670 l 2,22,23
 991.316 829.002 991.316 829.002 944.673 908 c 0,24,25
 898.026 987 898.026 987 774.028 987 c 0,26,27
 625.028 987 625.028 987 520.562 892 c 0,28,29
 416.097 797 416.097 797 384.218 633 c 2,30,-1
 261.175 0 l 1,31,-1
 76.1748 0 l 1,32,-1
 270.944 1002 l 1,33,-1
 299.713 1150 l 2,34,35
 341.31 1364 341.31 1364 441.971 1460 c 0,36,37
 541.631 1556 541.631 1556 722.631 1556 c 2,38,-1
 976.631 1556 l 1,39,-1
 946.308 1400 l 1,40,-1
 713.308 1400 l 2,41,42
 608.309 1400 608.309 1400 560.978 1352 c 0,43,44
 513.453 1303 513.453 1303 483.713 1150 c 2,45,-1
 444.059 946 l 1,0,-1
EndSplineSet
EndChar
StartChar: uni0268
Encoding: 616 616 616
Width: 761
Flags: W
Fore
53.1318 452 m 1,0,-1
 85.0107 616 l 1,1,-1
 265.011 616 l 1,2,-1
 362.979 1120 l 1,3,-1
 546.979 1120 l 1,4,-1
 449.011 616 l 1,5,-1
 613.011 616 l 1,6,-1
 581.132 452 l 1,7,-1
 417.132 452 l 1,8,-1
 329.272 0 l 1,9,-1
 145.272 0 l 1,10,-1
 233.132 452 l 1,11,-1
 53.1318 452 l 1,0,-1
447.728 1556 m 1,12,-1
 631.728 1556 l 1,13,-1
 586.438 1323 l 1,14,-1
 402.438 1323 l 1,15,-1
 447.728 1556 l 1,12,-1
EndSplineSet
EndChar
StartChar: uni0269
Encoding: 617 617 617
Width: 793
Flags: W
TeX: 0 0 0 0
Fore
485.853 1120 m 1,0,-1
 301.853 1120 l 1,1,-1
 163.065 406 l 2,2,3
 121.468 192 121.468 192 183.808 96 c 0,4,5
 247.147 0 247.147 0 428.147 0 c 2,6,-1
 498.147 0 l 1,7,-1
 528.471 156 l 1,8,-1
 479.471 156 l 2,9,10
 374.471 156 374.471 156 345.801 204 c 0,11,12
 317.325 253 317.325 253 347.065 406 c 2,13,-1
 485.853 1120 l 1,0,-1
EndSplineSet
EndChar
StartChar: uni026A
Encoding: 618 618 618
Width: 761
Flags: HW
TeX: 0 0 0 0
AnchorPoint: "above" 510 1147 basechar 0
Fore
193.475 956 m 1,0,-1
 225.353 1120 l 1,1,-1
 753.353 1120 l 1,4,-1
 721.475 956 l 1,5,-1
 552.475 956 l 1,6,-1
 398.525 164 l 1,7,-1
 567.525 164 l 1,8,-1
 535.647 0 l 1,9,-1
 7.64746 0 l 1,12,-1
 39.5254 164 l 1,13,-1
 214.525 164 l 1,14,-1
 368.475 956 l 1,15,-1
 193.475 956 l 1,0,-1
EndSplineSet
EndChar
StartChar: uni026B
Encoding: 619 619 619
Width: 998
Flags: W
Fore
569.228 1556 m 1,0,-1
 753.228 1556 l 1,1,-1
 600.188 768.679 l 1,2,3
 601.547 767.776 601.547 767.776 602.861 767 c 0,4,5
 618.113 758 618.113 758 631.112 758 c 0,6,7
 669.112 758 669.112 758 694.305 795 c 0,8,9
 719.301 830.998 719.301 830.998 737.241 913 c 1,10,-1
 862.241 913 l 1,11,12
 833.999 777.998 833.999 777.998 768.811 705 c 0,13,14
 703.427 631 703.427 631 612.426 631 c 0,15,16
 592.064 631 592.064 631 574.207 635.019 c 1,17,-1
 450.772 0 l 1,18,-1
 266.772 0 l 1,19,-1
 416.461 770.082 l 1,20,21
 411.373 774.303 411.373 774.303 406.806 777 c 0,22,23
 391.554 786 391.554 786 378.555 786 c 0,24,25
 340.555 786 340.555 786 315.363 749 c 0,26,27
 290.366 713.002 290.366 713.002 272.426 631 c 1,28,-1
 147.426 631 l 1,29,30
 175.669 766.002 175.669 766.002 240.857 839 c 0,31,32
 306.24 913 306.24 913 397.241 913 c 0,33,34
 422.018 913 422.018 913 443.085 907.049 c 1,35,-1
 569.228 1556 l 1,0,-1
EndSplineSet
EndChar
StartChar: uni026C
Encoding: 620 620 620
Width: 998
Flags: W
TeX: 0 0 0 0
Fore
569.228 1556 m 1,0,-1
 753.228 1556 l 1,1,-1
 603.555 786 l 1,2,-1
 853.555 786 l 1,3,-1
 822.454 626 l 1,4,-1
 572.454 626 l 1,5,-1
 450.772 0 l 1,6,-1
 266.772 0 l 1,7,-1
 382.597 595.868 l 1,8,9
 385.179 611.304 385.179 611.304 387.44 626 c 1,10,-1
 326.454 626 l 2,11,12
 46.4551 626 46.4551 626 84.1924 815 c 0,13,14
 133.009 1061 133.009 1061 378.01 1061 c 0,15,16
 431.188 1061 431.188 1061 468.17 1036.1 c 1,17,-1
 569.228 1556 l 1,0,-1
403.352 786 m 1,18,19
 405.787 918 405.787 918 351.213 918 c 0,20,21
 274.212 918 274.212 918 258.635 843 c 0,22,23
 247.555 786 247.555 786 339.555 786 c 2,24,-1
 403.352 786 l 1,18,19
EndSplineSet
EndChar
StartChar: uni026D
Encoding: 621 621 621
Width: 570
Flags: W
Fore
108.056 128 m 1,0,-1
 385.631 1556 l 1,1,-1
 569.631 1556 l 1,2,-1
 292.056 128 l 1,3,-1
 263.287 -20 l 2,4,5
 233.547 -173 233.547 -173 262.022 -222 c 0,6,7
 290.692 -270 290.692 -270 395.692 -270 c 2,8,-1
 444.692 -270 l 1,9,-1
 414.369 -426 l 1,10,-1
 344.369 -426 l 2,11,12
 163.369 -426 163.369 -426 101.029 -330 c 0,13,14
 37.6904 -234 37.6904 -234 79.2871 -20 c 2,15,-1
 108.056 128 l 1,0,-1
EndSplineSet
EndChar
StartChar: uni026E
Encoding: 622 622 622
Width: 1446
Flags: W
TeX: 0 0 0 0
Fore
818.672 476 m 1,0,1
 923.351 476 923.351 476 1041.79 420 c 0,2,3
 1132.02 377.337 1132.02 377.337 1196.44 269 c 0,4,5
 1257.22 165 1257.22 165 1230.4 27 c 0,6,7
 1187.44 -194 1187.44 -194 1011.92 -315 c 0,8,9
 836.397 -436 836.397 -436 556.397 -436 c 0,10,11
 462.397 -436 462.397 -436 366.896 -418 c 0,12,13
 270.589 -399 270.589 -399 171.781 -362 c 1,14,-1
 209.686 -167 l 1,15,16
 284.161 -216 284.161 -216 379.302 -241 c 0,17,18
 474.441 -266 474.441 -266 583.441 -266 c 0,19,20
 772.943 -266 772.943 -266 887.021 -191 c 0,21,22
 1001.67 -115.622 1001.67 -115.622 1029.4 27 c 0,23,24
 1055.05 159 1055.05 159 977.632 234 c 0,25,26
 901.243 308 901.243 308 734.017 308 c 2,27,-1
 560.017 308 l 1,28,-1
 592.283 474 l 1,29,-1
 1119.28 973 l 1,30,-1
 457.279 973 l 1,31,-1
 268.147 0 l 1,32,-1
 84.1475 0 l 1,33,-1
 386.603 1556 l 1,34,-1
 570.603 1556 l 1,35,-1
 485.853 1120 l 1,36,-1
 1354.85 1120 l 1,37,-1
 1322.2 952 l 1,38,-1
 818.672 476 l 1,0,1
EndSplineSet
EndChar
StartChar: uni026F
Encoding: 623 623 623
Width: 1995
Flags: W
Fore
877.466 216 m 1,0,1
 784.362 92 784.362 92 677.089 34 c 0,2,3
 569.426 -26 569.426 -26 439.426 -26 c 0,4,5
 264.426 -26 264.426 -26 193.335 97 c 128,-1,6
 122.243 220 122.243 220 166.173 446 c 2,7,-1
 297.574 1122 l 1,8,-1
 482.574 1122 l 1,9,-1
 352.34 452 l 2,10,11
 320.85 290 320.85 290 362.688 212 c 128,-1,12
 404.526 134 404.526 134 521.526 134 c 0,13,14
 664.526 134 664.526 134 766.188 230 c 0,15,16
 867.459 324 867.459 324 899.337 488 c 2,17,-1
 1022.57 1122 l 1,18,-1
 1207.57 1122 l 1,19,-1
 1077.34 452 l 2,20,21
 1045.85 290 1045.85 290 1087.69 212 c 128,-1,22
 1129.53 134 1129.53 134 1248.53 134 c 0,23,24
 1389.53 134 1389.53 134 1491.19 230 c 128,-1,25
 1592.85 326 1592.85 326 1624.34 488 c 2,26,-1
 1747.57 1122 l 1,27,-1
 1932.57 1122 l 1,28,-1
 1714.87 2 l 1,29,-1
 1529.87 2 l 1,30,-1
 1563.69 176 l 1,31,32
 1480.47 72 1480.47 72 1383.14 24 c 0,33,34
 1285.43 -26 1285.43 -26 1164.43 -26 c 0,35,36
 1042.43 -26 1042.43 -26 968.478 36 c 0,37,38
 895.529 98 895.529 98 877.466 216 c 1,0,1
EndSplineSet
EndChar
StartChar: uni0270
Encoding: 624 624 624
Width: 1995
Flags: W
Fore
916.439 216 m 1,0,1
 823.336 92 823.336 92 715.867 33 c 128,-1,2
 608.399 -26 608.399 -26 478.399 -26 c 0,3,4
 303.399 -26 303.399 -26 232.113 96 c 0,5,6
 161.022 219 161.022 219 204.952 445 c 2,7,-1
 336.354 1121 l 1,8,-1
 521.354 1121 l 1,9,-1
 391.118 451 l 2,10,11
 359.823 290 359.823 290 401.661 212 c 128,-1,12
 443.5 134 443.5 134 560.5 134 c 0,13,14
 703.5 134 703.5 134 804.966 229 c 128,-1,15
 906.432 324 906.432 324 938.311 488 c 2,16,-1
 1061.35 1121 l 1,17,-1
 1246.35 1121 l 1,18,-1
 1116.12 451 l 2,19,20
 1084.63 289 1084.63 289 1126.66 212 c 0,21,22
 1168.5 134 1168.5 134 1287.5 134 c 0,23,24
 1428.5 134 1428.5 134 1530.16 230 c 0,25,26
 1631.63 325 1631.63 325 1663.31 488 c 2,27,-1
 1786.35 1121 l 1,28,-1
 1971.35 1121 l 1,29,-1
 1670.65 -426 l 1,30,-1
 1485.65 -426 l 1,31,-1
 1602.47 175 l 1,32,33
 1519.45 72 1519.45 72 1421.92 23 c 128,-1,34
 1324.4 -26 1324.4 -26 1203.4 -26 c 0,35,36
 1081.4 -26 1081.4 -26 1007.45 36 c 0,37,38
 934.502 98 934.502 98 916.439 216 c 1,0,1
EndSplineSet
EndChar
StartChar: uni0271
Encoding: 625 625 625
Width: 1995
Flags: W
Fore
1170.84 905 m 1,0,1
 1263.94 1029 1263.94 1029 1371.41 1088 c 0,2,3
 1478.88 1147 1478.88 1147 1608.88 1147 c 0,4,5
 1783.88 1147 1783.88 1147 1854.97 1024 c 0,6,7
 1926.26 902 1926.26 902 1882.33 676 c 2,8,-1
 1747.04 -20 l 2,9,10
 1705.44 -233.999 1705.44 -233.999 1604.78 -330 c 0,11,12
 1505.12 -426 1505.12 -426 1324.12 -426 c 2,13,-1
 1070.12 -426 l 1,14,-1
 1100.44 -270 l 1,15,-1
 1333.44 -270 l 2,16,17
 1438.44 -270 1438.44 -270 1485.77 -222 c 0,18,19
 1533.3 -173.002 1533.3 -173.002 1563.04 -20 c 1,20,21
 1577.44 65.957 1577.44 65.957 1660 480.41 c 0,22,23
 1681.83 590.006 1681.83 590.006 1696.16 670 c 0,24,25
 1727.46 831 1727.46 831 1685.62 909 c 0,26,27
 1643.78 987 1643.78 987 1526.78 987 c 0,28,29
 1383.78 987 1383.78 987 1282.31 892 c 0,30,31
 1180.85 797 1180.85 797 1148.97 633 c 2,32,-1
 1025.93 0 l 1,33,-1
 840.926 0 l 1,34,-1
 971.161 670 l 2,35,36
 1002.65 832 1002.65 832 960.812 910 c 0,37,38
 918.78 987 918.78 987 799.779 987 c 0,39,40
 658.779 987 658.779 987 557.313 892 c 0,41,42
 455.652 796.001 455.652 796.001 423.969 633 c 2,43,-1
 300.926 0 l 1,44,-1
 115.926 0 l 1,45,-1
 333.632 1120 l 1,46,-1
 518.632 1120 l 1,47,-1
 484.81 946 l 1,48,49
 567.832 1049 567.832 1049 665.355 1098 c 0,50,51
 762.881 1147 762.881 1147 883.88 1147 c 0,52,53
 1005.88 1147 1005.88 1147 1078.83 1085 c 0,54,55
 1152.78 1023 1152.78 1023 1170.84 905 c 1,0,1
EndSplineSet
EndChar
StartChar: uni0272
Encoding: 626 626 626
Width: 1323
Flags: W
Fore
303.038 -20 m 1,0,1
 261.44 -234 261.44 -234 161.78 -330 c 0,2,3
 61.1201 -426 61.1201 -426 -119.88 -426 c 2,4,-1
 -189.88 -426 l 1,5,-1
 -159.557 -270 l 1,6,-1
 -110.557 -270 l 2,7,8
 -5.55664 -270 -5.55664 -270 41.7734 -222 c 0,9,10
 89.2979 -173 89.2979 -173 119.038 -20 c 1,11,-1
 340.632 1120 l 1,12,-1
 525.632 1120 l 1,13,-1
 491.81 946 l 1,14,15
 577.442 1047 577.442 1047 677.161 1097 c 0,16,17
 775.88 1147 775.88 1147 892.88 1147 c 0,18,19
 1085.88 1147 1085.88 1147 1161.75 1028 c 0,20,21
 1237.42 908 1237.42 908 1192.33 676 c 2,22,-1
 1060.93 0 l 1,23,-1
 876.926 0 l 1,24,-1
 1007.16 670 l 2,25,26
 1038.07 829 1038.07 829 991.423 908 c 128,-1,27
 944.779 987 944.779 987 820.779 987 c 0,28,29
 671.779 987 671.779 987 567.313 892 c 128,-1,30
 462.847 797 462.847 797 430.969 633 c 2,31,-1
 303.038 -20 l 1,0,1
EndSplineSet
EndChar
StartChar: uni0273
Encoding: 627 627 627
Width: 1315
Flags: W
Fore
1000.16 670 m 2,0,1
 1031.07 829.002 1031.07 829.002 984.423 908 c 0,2,3
 937.777 987 937.777 987 813.779 987 c 0,4,5
 664.779 987 664.779 987 560.313 892 c 0,6,7
 455.847 797 455.847 797 423.969 633 c 2,8,-1
 300.926 0 l 1,9,-1
 115.926 0 l 1,10,-1
 333.632 1120 l 1,11,-1
 518.632 1120 l 1,12,-1
 484.81 946 l 1,13,14
 570.441 1047 570.441 1047 669.161 1097 c 0,15,16
 768.878 1147 768.878 1147 885.88 1147 c 0,17,18
 1078.88 1147 1078.88 1147 1154.75 1028 c 0,19,20
 1230.42 908 1230.42 908 1185.33 676 c 2,21,-1
 1050.04 -20 l 2,22,23
 1020.3 -173.002 1020.3 -173.002 1048.77 -222 c 0,24,25
 1077.44 -270 1077.44 -270 1182.44 -270 c 2,26,-1
 1231.44 -270 l 1,27,-1
 1201.12 -426 l 1,28,-1
 1131.12 -426 l 2,29,30
 950.12 -426 950.12 -426 887.78 -330 c 0,31,32
 824.441 -233.999 824.441 -233.999 866.038 -20 c 2,33,-1
 1000.16 670 l 2,0,1
EndSplineSet
EndChar
StartChar: uni0274
Encoding: 628 628 628
Width: 1298
Flags: W
TeX: 0 0 0 0
Fore
290.478 1147 m 1,0,-1
 562.478 1147 l 1,1,-1
 863.952 244 l 1,2,-1
 1039.48 1147 l 1,3,-1
 1235.48 1147 l 1,4,-1
 1012.52 0 l 1,5,-1
 740.522 0 l 1,6,-1
 439.048 903 l 1,7,-1
 263.522 0 l 1,8,-1
 67.5225 0 l 1,9,-1
 290.478 1147 l 1,0,-1
EndSplineSet
EndChar
StartChar: uni0275
Encoding: 629 629 629
Width: 1253
Flags: W
Fore
741.296 1147 m 0,0,1
 981.295 1147 981.295 1147 1087.97 991 c 0,2,3
 1194.65 835.001 1194.65 835.001 1141 559 c 0,4,5
 1087.54 283.999 1087.54 283.999 920.222 128 c 0,6,7
 752.702 -29 752.702 -29 512.704 -29 c 0,8,9
 271.704 -29 271.704 -29 166.222 128 c 0,10,11
 59.5449 283.999 59.5449 283.999 113 559 c 0,12,13
 166.649 835.001 166.649 835.001 333.973 991 c 0,14,15
 500.295 1147 500.295 1147 741.296 1147 c 0,0,1
710.973 991 m 0,16,17
 562.975 991 562.975 991 454.618 876 c 0,18,19
 360.518 775.44 360.518 775.44 318.631 611 c 1,20,-1
 954.554 611 l 1,21,22
 976.152 773.593 976.152 773.593 921.229 874 c 0,23,24
 857.972 991 857.972 991 710.973 991 c 0,16,17
916.555 447 m 1,25,-1
 292.742 447 l 1,26,27
 286.496 323.514 286.496 323.514 330.382 242 c 0,28,29
 394.029 127 394.029 127 543.027 127 c 0,30,31
 690.027 127 690.027 127 798.576 243 c 0,32,33
 874.697 324.346 874.697 324.346 916.555 447 c 1,25,-1
EndSplineSet
EndChar
StartChar: uni0276
Encoding: 630 630 630
Width: 1757
Flags: W
TeX: 0 0 0 0
Fore
1666.85 1120 m 1,0,-1
 1636.92 966 l 1,1,-1
 1080.92 966 l 1,2,-1
 1024.35 675 l 1,3,-1
 1557.35 675 l 1,4,-1
 1527.22 520 l 1,5,-1
 994.225 520 l 1,6,-1
 923.471 156 l 1,7,-1
 1493.47 156 l 1,8,-1
 1463.15 0 l 1,9,-1
 664.147 0 l 2,10,11
 339.147 0 339.147 0 199.749 142 c 0,12,13
 59.5459 285 59.5459 285 113.194 561 c 0,14,15
 166.455 835 166.455 835 362.057 977 c 0,16,17
 556.853 1120 556.853 1120 881.853 1120 c 2,18,-1
 1666.85 1120 l 1,0,-1
898.584 990 m 1,19,-1
 861.584 990 l 2,20,21
 621.584 990 621.584 990 480.591 882 c 0,22,23
 339.792 775 339.792 775 297.806 559 c 0,24,25
 255.625 342 255.625 342 354.632 234 c 0,26,27
 453.444 125 453.444 125 693.444 125 c 2,28,-1
 730.444 125 l 1,29,-1
 898.584 990 l 1,19,-1
EndSplineSet
EndChar
StartChar: uni0277
Encoding: 631 631 631
Width: 1491
Flags: W
TeX: 0 0 0 0
Fore
441.055 780 m 0,0,1
 363.395 684 363.395 684 356.507 664 c 0,2,3
 310.736 552 310.736 552 301.907 486 c 0,4,5
 278.445 319 278.445 319 311.199 256 c 0,6,7
 354.678 171 354.678 171 432.678 171 c 0,8,9
 509.678 171 509.678 171 580.033 250 c 0,10,11
 618.392 293 618.392 293 654.353 478 c 2,12,-1
 689.729 660 l 1,13,-1
 845.729 660 l 17,14,-1
 810.353 478 l 2,15,16
 774.392 293 774.392 293 796.033 250 c 0,17,18
 835.678 171 835.678 171 912.678 171 c 0,19,20
 987.678 171 987.678 171 1067.2 256 c 0,21,22
 1112.53 304 1112.53 304 1165.91 486 c 0,23,24
 1175.49 561 1175.49 561 1180.51 664 c 0,25,26
 1181.98 687 1181.98 687 1140.05 780 c 0,27,28
 1066.16 940 1066.16 940 812.156 940 c 0,29,30
 570.156 940 570.156 940 441.055 780 c 0,0,1
248.055 780 m 0,32,33
 414.587 1148 414.587 1148 862.393 1147 c 0,34,35
 1282 1145 1282 1145 1329.05 780 c 8,36,37
 1343.73 660 1343.73 660 1347.34 658 c 0,38,39
 1341.71 557 1341.71 557 1324.41 468 c 0,40,41
 1279.7 238 1279.7 238 1166.65 104 c 128,-1,42
 1053.61 -30 1053.61 -30 906.606 -30 c 0,43,44
 803.607 -30 803.607 -30 746.408 41 c 128,-1,45
 689.209 112 689.209 112 686.673 243 c 1,46,47
 633.209 112 633.209 112 548.408 41 c 128,-1,48
 463.607 -30 463.607 -30 360.606 -30 c 0,49,50
 213.606 -30 213.606 -30 152.654 104 c 0,51,52
 84.6162 253 84.6162 253 136.408 468 c 0,53,54
 143.102 487 143.102 487 187.341 658 c 0,55,56
 222.17 724 222.17 724 248.055 780 c 0,32,33
EndSplineSet
EndChar
StartChar: uni0278
Encoding: 632 632 632
Width: 1253
Flags: W
TeX: 0 0 0 0
Fore
692.559 1391 m 1,0,-1
 452.559 1391 l 1,1,-1
 484.437 1555 l 1,2,-1
 724.437 1555 l 1,3,-1
 908.437 1555 l 1,4,-1
 1148.44 1555 l 1,5,-1
 1116.56 1391 l 1,6,-1
 876.559 1391 l 1,7,-1
 827.994 1141.16 l 1,8,9
 1000.76 1116.82 1000.76 1116.82 1086.81 991 c 0,10,11
 1193.48 835.001 1193.48 835.001 1139.83 559 c 0,12,13
 1086.38 283.999 1086.38 283.999 919.056 128 c 0,14,15
 783.942 1.37109 783.942 1.37109 601.68 -23.125 c 1,16,-1
 555.441 -261 l 1,17,-1
 795.441 -261 l 1,18,-1
 763.563 -425 l 1,19,-1
 523.563 -425 l 1,20,-1
 339.563 -425 l 1,21,-1
 99.5635 -425 l 1,22,-1
 131.441 -261 l 1,23,-1
 371.441 -261 l 1,24,-1
 417.838 -22.3135 l 1,25,26
 248.77 3.40137 248.77 3.40137 165.056 128 c 0,27,28
 58.3789 283.999 58.3789 283.999 111.834 559 c 0,29,30
 165.482 835.001 165.482 835.001 332.806 991 c 0,31,32
 464.805 1114.81 464.805 1114.81 643.839 1140.36 c 1,33,-1
 692.559 1391 l 1,0,-1
796.41 978.674 m 1,34,-1
 633.237 139.221 l 1,35,36
 724.094 164.651 724.094 164.651 797.409 243 c 0,37,38
 905.958 359 905.958 359 944.834 559 c 0,39,40
 983.516 758 983.516 758 920.063 874 c 0,41,42
 877.337 953.024 877.337 953.024 796.41 978.674 c 1,34,-1
449.503 140.591 m 1,43,-1
 612.13 977.23 l 1,44,45
 524.312 951.206 524.312 951.206 453.452 876 c 0,46,47
 344.904 760 344.904 760 305.834 559 c 0,48,49
 266.764 358.002 266.764 358.002 329.215 242 c 0,50,51
 370.982 166.534 370.982 166.534 449.503 140.591 c 1,43,-1
EndSplineSet
EndChar
StartChar: uni0279
Encoding: 633 633 633
Width: 961
Flags: W
Fore
40.2041 172 m 1,0,1
 67.7061 154 67.7061 154 102.15 146 c 0,2,3
 137.401 137 137.401 137 181.401 137 c 0,4,5
 337.401 137 337.401 137 440.033 238 c 0,6,7
 543.86 340 543.86 340 580.793 530 c 2,8,-1
 695.478 1120 l 1,9,-1
 880.478 1120 l 1,10,-1
 662.771 0 l 1,11,-1
 477.771 0 l 1,12,-1
 511.594 174 l 1,13,14
 433.767 72 433.767 72 331.048 22 c 0,15,16
 228.522 -27 228.522 -27 95.5225 -27 c 0,17,18
 76.5225 -27 76.5225 -27 54.1064 -24 c 0,19,20
 31.4951 -22 31.4951 -22 4.4668 -17 c 1,21,-1
 40.2041 172 l 1,0,1
EndSplineSet
EndChar
StartChar: uni027A
Encoding: 634 634 634
Width: 961
Flags: W
Fore
-1.19824 172 m 1,0,1
 26.3027 154 26.3027 154 60.748 146 c 0,2,3
 95.998 137 95.998 137 139.998 137 c 0,4,5
 298.998 137 298.998 137 398.631 238 c 0,6,7
 503.041 343 503.041 343 539.39 530 c 2,8,-1
 736.88 1546 l 1,9,-1
 921.88 1546 l 1,10,-1
 621.368 0 l 1,11,-1
 436.368 0 l 1,12,-1
 470.19 174 l 1,13,14
 392.363 72 392.363 72 289.645 22 c 0,15,16
 187.12 -27 187.12 -27 54.1201 -27 c 0,17,18
 35.1201 -27 35.1201 -27 12.7031 -24 c 0,19,20
 -9.9082 -22 -9.9082 -22 -36.9365 -17 c 1,21,-1
 -1.19824 172 l 1,0,1
EndSplineSet
EndChar
StartChar: uni027B
Encoding: 635 635 635
Width: 960
Flags: W
Fore
78.9834 172 m 1,0,1
 106.481 154.002 106.481 154.002 140.93 146 c 0,2,3
 176.179 137 176.179 137 220.18 137 c 0,4,5
 376.18 137 376.18 137 478.812 238 c 0,6,7
 582.64 340 582.64 340 619.571 530 c 2,8,-1
 734.256 1120 l 1,9,-1
 919.256 1120 l 1,10,-1
 697.662 -20 l 2,11,12
 667.922 -173.002 667.922 -173.002 696.397 -222 c 0,13,14
 725.068 -270 725.068 -270 830.067 -270 c 2,15,-1
 879.067 -270 l 1,16,-1
 848.744 -426 l 1,17,-1
 778.744 -426 l 2,18,19
 597.744 -426 597.744 -426 535.404 -330 c 0,20,21
 472.065 -233.999 472.065 -233.999 513.662 -20 c 1,22,23
 550.372 174 l 1,24,25
 472.548 72.002 472.548 72.002 369.826 22 c 0,26,27
 267.3 -27 267.3 -27 134.302 -27 c 0,28,29
 115.303 -27 115.303 -27 92.8848 -24 c 0,30,31
 70.252 -21.9971 70.252 -21.9971 43.2451 -17 c 1,32,-1
 78.9834 172 l 1,0,1
EndSplineSet
EndChar
StartChar: uni027C
Encoding: 636 636 636
Width: 961
Flags: W
Fore
883.198 948 m 1,0,1
 855.697 966 855.697 966 821.252 974 c 0,2,3
 786.002 983 786.002 983 742.002 983 c 0,4,5
 586.002 983 586.002 983 483.369 882 c 0,6,7
 379.543 780 379.543 780 342.61 590 c 2,8,-1
 145.12 -426 l 1,9,-1
 -39.8799 -426 l 1,10,-1
 260.632 1120 l 1,11,-1
 445.632 1120 l 1,12,-1
 411.81 946 l 1,13,14
 489.637 1048 489.637 1048 592.355 1098 c 0,15,16
 694.88 1147 694.88 1147 827.88 1147 c 0,17,18
 846.88 1147 846.88 1147 869.297 1144 c 0,19,20
 891.908 1142 891.908 1142 918.937 1137 c 1,21,-1
 883.198 948 l 1,0,1
EndSplineSet
EndChar
StartChar: uni027D
Encoding: 637 637 637
Width: 961
Flags: W
Fore
883.198 948 m 1,0,1
 855.701 965.998 855.701 965.998 821.252 974 c 0,2,3
 786.003 983 786.003 983 742.002 983 c 0,4,5
 586.002 983 586.002 983 483.369 882 c 0,6,7
 379.736 780.999 379.736 780.999 342.61 590 c 2,8,-1
 227.926 0 l 1,9,-1
 225.926 -0 l 1,10,-1
 222.038 -20 l 2,11,12
 192.298 -173.002 192.298 -173.002 220.773 -222 c 0,13,14
 249.444 -270 249.444 -270 354.443 -270 c 2,15,-1
 587.443 -270 l 1,16,-1
 557.12 -426 l 1,17,-1
 303.12 -426 l 2,18,19
 122.12 -426 122.12 -426 59.7803 -330 c 0,20,21
 -3.55859 -233.999 -3.55859 -233.999 38.0381 -20 c 1,22,-1
 259.632 1120 l 1,23,-1
 445.632 1120 l 1,24,-1
 411.81 946 l 1,25,26
 489.635 1048 489.635 1048 592.355 1098 c 0,27,28
 694.882 1147 694.882 1147 827.88 1147 c 0,29,30
 846.879 1147 846.879 1147 869.297 1144 c 0,31,32
 891.93 1142 891.93 1142 918.937 1137 c 1,33,-1
 883.198 948 l 1,0,1
EndSplineSet
EndChar
StartChar: uni027E
Encoding: 638 638 638
Width: 902
Flags: W
Fore
117.151 600 m 1,0,-1
 144.559 741 l 2,1,2
 185.768 953 185.768 953 286.816 1051 c 0,3,4
 386.478 1147 386.478 1147 567.478 1147 c 2,5,-1
 821.478 1147 l 1,6,-1
 791.153 991 l 1,7,-1
 558.153 991 l 2,8,9
 453.153 991 453.153 991 405.823 943 c 0,10,11
 357.104 893 357.104 893 328.559 741 c 2,12,-1
 300.207 590 l 9,13,-1
 185.522 0 l 1,14,-1
 0.522461 0 l 1,15,-1
 117.151 600 l 1,0,-1
EndSplineSet
EndChar
StartChar: uni027F
Encoding: 639 639 639
Width: 902
Flags: W
Fore
715.151 600 m 1,0,-1
 598.522 0 l 1,1,-1
 413.522 0 l 1,2,-1
 528.207 590 l 17,3,-1
 558.559 741 l 2,4,5
 589.104 893 589.104 893 559.823 943 c 0,6,7
 531.154 991 531.154 991 426.153 991 c 2,8,-1
 193.153 991 l 1,9,-1
 223.478 1147 l 1,10,-1
 477.478 1147 l 2,11,12
 658.478 1147 658.478 1147 720.816 1051 c 0,13,14
 783.768 953 783.768 953 742.559 741 c 2,15,-1
 715.151 600 l 1,0,-1
EndSplineSet
EndChar
StartChar: uni0280
Encoding: 640 640 640
Width: 1232
Flags: W
Fore
645.196 525 m 1,0,1
 696.893 508 696.893 508 739.396 454 c 0,2,3
 780.899 400 780.899 400 815.627 306 c 1,4,-1
 930.147 0 l 1,5,-1
 735.147 0 l 1,6,-1
 628.935 287 l 1,7,8
 587.899 400 587.899 400 535.896 436 c 0,9,10
 484.089 473 484.089 473 387.089 473 c 2,11,-1
 218.089 473 l 1,12,-1
 126.147 0 l 1,13,-1
 -58.8525 0 l 1,14,-1
 158.853 1120 l 1,15,-1
 546.853 1120 l 2,16,17
 763.853 1120 763.853 1120 856.303 1040 c 0,18,19
 947.558 959 947.558 959 916.068 797 c 0,20,21
 895.658 692 895.658 692 826.052 622 c 128,-1,22
 756.445 552 756.445 552 645.196 525 c 1,0,1
313.724 965 m 1,23,-1
 248.218 628 l 1,24,-1
 446.218 628 l 2,25,26
 565.218 628 565.218 628 636.576 671 c 0,27,28
 708.935 714 708.935 714 725.068 797 c 0,29,30
 741.396 881 741.396 881 685.56 923 c 0,31,32
 630.724 965 630.724 965 511.724 965 c 2,33,-1
 313.724 965 l 1,23,-1
EndSplineSet
EndChar
StartChar: uni0281
Encoding: 641 641 641
Width: 1232
Flags: W
Fore
658.804 595 m 1,0,1
 759.555 568 759.555 568 801.948 498 c 128,-1,2
 844.342 428 844.342 428 823.932 323 c 0,3,4
 792.442 161 792.442 161 669.697 80 c 0,5,6
 546.147 0 546.147 0 329.147 0 c 2,7,-1
 -58.8525 0 l 1,8,-1
 158.853 1120 l 1,9,-1
 343.853 1120 l 1,10,-1
 251.911 647 l 1,11,-1
 420.911 647 l 2,12,13
 517.911 647 517.911 647 584.104 684 c 0,14,15
 650.101 720 650.101 720 735.065 833 c 1,16,-1
 952.853 1120 l 1,17,-1
 1147.85 1120 l 1,18,-1
 914.373 814 l 1,19,20
 843.101 720 843.101 720 780.604 666 c 0,21,22
 717.107 612 717.107 612 658.804 595 c 1,0,1
156.276 155 m 1,23,-1
 354.276 155 l 2,24,25
 473.276 155 473.276 155 544.44 197 c 0,26,27
 616.604 239 616.604 239 632.932 323 c 0,28,29
 649.065 406 649.065 406 593.424 449 c 0,30,31
 538.782 492 538.782 492 419.782 492 c 2,32,-1
 221.782 492 l 1,33,-1
 156.276 155 l 1,23,-1
EndSplineSet
EndChar
StartChar: uni0282
Encoding: 642 642 642
Width: 1067
Flags: W
TeX: 0 0 0 0
Fore
1048.22 1087 m 1,0,-1
 1014.4 913 l 1,1,2
 944.17 952.999 944.17 952.999 864.058 973 c 0,3,4
 783.949 993 783.949 993 693.945 993 c 0,5,6
 556.946 993 556.946 993 480.781 951 c 0,7,8
 403.617 909 403.617 909 387.29 825 c 0,9,10
 374.85 761 374.85 761 416.657 724 c 0,11,12
 458.658 688.001 458.658 688.001 600.245 655 c 2,13,-1
 660.523 641 l 2,14,15
 848.362 598.999 848.362 598.999 915.393 522 c 0,16,17
 983.62 446.002 983.62 446.002 956.989 309 c 0,18,19
 926.666 152.999 926.666 152.999 785.978 62 c 0,20,21
 644.289 -29 644.289 -29 428.289 -29 c 0,22,23
 338.284 -29 338.284 -29 243.594 -12 c 2,24,-1
 223.385 -7.92969 l 1,25,-1
 221.038 -20 l 2,26,27
 191.298 -173.002 191.298 -173.002 219.773 -222 c 0,28,29
 248.444 -270 248.444 -270 353.443 -270 c 2,30,-1
 586.443 -270 l 1,31,-1
 556.12 -426 l 1,32,-1
 302.12 -426 l 2,33,34
 121.12 -426 121.12 -426 58.7803 -330 c 0,35,36
 -4.55859 -233.999 -4.55859 -233.999 37.0381 -20 c 2,37,-1
 48.8955 41 l 1,38,-1
 85.8281 231 l 1,39,40
 177.519 178.003 177.519 178.003 271.472 152 c 0,41,42
 365.224 125 365.224 125 462.224 125 c 0,43,44
 592.225 125 592.225 125 670.971 170 c 0,45,46
 749.523 214.002 749.523 214.002 765.269 295 c 0,47,48
 779.847 370.002 779.847 370.002 737.622 410 c 0,49,50
 694.395 450.002 694.395 450.002 530.589 487 c 2,51,-1
 469.505 502 l 1,52,53
 305.5 538.001 305.5 538.001 243.887 612 c 0,54,55
 182.466 687.001 182.466 687.001 207.734 817 c 0,56,57
 238.446 974.998 238.446 974.998 367.163 1061 c 0,58,59
 495.878 1147 495.878 1147 701.88 1147 c 0,60,61
 803.88 1147 803.88 1147 890.965 1132 c 0,62,63
 978.051 1117 978.051 1117 1048.22 1087 c 1,0,-1
EndSplineSet
EndChar
StartChar: uni0283
Encoding: 643 643 643
Width: 688
Flags: W
Fore
79.2871 -20 m 0,0,1
 199.581 604 199.581 604 313.043 1198 c 0,2,3
 348.226 1379 348.226 1379 452.914 1470 c 0,4,5
 550.631 1556 550.631 1556 745.631 1556 c 2,6,-1
 919.631 1556 l 1,7,-1
 889.891 1403 l 1,8,-1
 713.891 1403 l 2,9,10
 614.891 1403 614.891 1403 569.115 1363 c 0,11,12
 522.34 1323 522.34 1323 502.125 1219 c 1,13,-1
 263.287 -20 l 2,14,15
 221.69 -234 221.69 -234 122.029 -330 c 0,16,17
 21.3691 -426 21.3691 -426 -159.631 -426 c 2,18,-1
 -229.631 -426 l 1,19,-1
 -199.308 -270 l 1,20,-1
 -150.308 -270 l 2,21,22
 -45.3076 -270 -45.3076 -270 2.02246 -222 c 0,23,24
 49.5469 -173 49.5469 -173 79.2871 -20 c 0,0,1
EndSplineSet
EndChar
StartChar: uni0284
Encoding: 644 644 644
Width: 780
Flags: W
Fore
-5.8252 0 m 1,0,-1
 22.2363 143 l 1,1,-1
 203.236 143 l 1,2,-1
 365.085 977 l 1,3,-1
 186.085 977 l 1,4,-1
 213.881 1120 l 1,5,-1
 389.881 1120 l 1,6,-1
 405.043 1198 l 2,7,8
 440.226 1379 440.226 1379 544.914 1470 c 0,9,10
 642.63 1556 642.63 1556 837.631 1556 c 2,11,-1
 1011.63 1556 l 1,12,-1
 981.891 1403 l 1,13,-1
 805.891 1403 l 2,14,15
 706.893 1403 706.893 1403 661.115 1363 c 0,16,17
 614.34 1323 614.34 1323 594.125 1219 c 1,18,-1
 386.939 143 l 1,19,-1
 562.939 143 l 1,20,-1
 534.878 0 l 1,21,-1
 359.144 -0 l 1,22,-1
 355.287 -20 l 1,23,24
 313.69 -234 313.69 -234 214.029 -330 c 0,25,26
 113.37 -426 113.37 -426 -67.6309 -426 c 2,27,-1
 -137.631 -426 l 1,28,-1
 -107.308 -270 l 1,29,-1
 -58.3076 -270 l 2,30,31
 46.6914 -270 46.6914 -270 94.0225 -222 c 0,32,33
 141.547 -173.002 141.547 -173.002 171.287 -20 c 2,34,-1
 175.175 -0 l 1,35,-1
 -5.8252 0 l 1,0,-1
EndSplineSet
EndChar
StartChar: uni0285
Encoding: 645 645 645
Width: 945
Flags: W
Fore
517.177 -20 m 0,0,1
 487.437 -173 487.437 -173 515.912 -222 c 0,2,3
 544.581 -270 544.581 -270 649.581 -270 c 2,4,-1
 698.581 -270 l 1,5,-1
 668.258 -426 l 1,6,-1
 598.258 -426 l 2,7,8
 417.258 -426 417.258 -426 353.919 -330 c 0,9,10
 290.773 -233 290.773 -233 333.177 -20 c 2,11,-1
 492.235 788 l 1,12,13
 512.451 892 512.451 892 481.227 932 c 0,14,15
 451.002 972 451.002 972 352.002 972 c 2,16,-1
 176.002 972 l 1,17,-1
 205.742 1125 l 1,18,-1
 379.742 1125 l 2,19,20
 574.742 1125 574.742 1125 639.025 1039 c 0,21,22
 713.17 942 713.17 942 673.153 767 c 0,23,24
 652.854 678 652.854 678 517.177 -20 c 0,0,1
EndSplineSet
EndChar
StartChar: uni0286
Encoding: 646 646 646
Width: 688
Flags: W
TeX: 0 0 0 0
Fore
40.2402 -154 m 1,0,-1
 -138.76 -154 l 2,1,2
 -257.76 -154 -257.76 -154 -264.673 -205 c 0,3,4
 -274.284 -270 -274.284 -270 -150.308 -270 c 0,5,6
 -40.3076 -270 -40.3076 -270 2.02246 -222 c 1,7,8
 24.4043 -199.163 24.4043 -199.163 40.2402 -154 c 1,0,-1
267.175 0 m 1,9,-1
 448.175 0 l 1,10,-1
 418.046 -155 l 1,11,-1
 227.046 -155 l 1,12,13
 187.661 -266.139 187.661 -266.139 122.029 -330 c 0,14,15
 20.8691 -426 20.8691 -426 -159.631 -426 c 0,16,17
 -462.631 -426 -462.631 -426 -420.645 -210 c 0,18,19
 -379.825 0 -379.825 0 -109.825 0 c 2,20,-1
 80.1748 0 l 1,21,-1
 313.043 1198 l 2,22,23
 348.128 1378.5 348.128 1378.5 452.914 1470 c 0,24,25
 551.104 1556 551.104 1556 745.631 1556 c 2,26,-1
 919.631 1556 l 1,27,-1
 889.891 1403 l 1,28,-1
 713.891 1403 l 2,29,30
 613.928 1403 613.928 1403 569.115 1363 c 0,31,32
 522.243 1322.5 522.243 1322.5 502.125 1219 c 1,33,-1
 267.175 0 l 1,9,-1
EndSplineSet
EndChar
StartChar: uni0287
Encoding: 647 647 647
Width: 803
Flags: W
Fore
294.24 -318 m 1,0,-1
 356.054 0 l 1,1,-1
 -22.9463 0 l 1,2,-1
 4.84961 143 l 1,3,-1
 383.85 143 l 1,4,-1
 502.033 751 l 2,5,6
 528.663 888 528.663 888 498.244 927 c 0,7,8
 468.825 966 468.825 966 353.825 966 c 2,9,-1
 164.825 966 l 1,10,-1
 194.76 1120 l 1,11,-1
 383.76 1120 l 2,12,13
 596.76 1120 596.76 1120 662.209 1040 c 0,14,15
 727.853 961 727.853 961 687.033 751 c 2,16,-1
 568.85 143 l 1,17,-1
 703.85 143 l 1,18,-1
 676.054 0 l 1,19,-1
 541.054 0 l 1,20,-1
 479.24 -318 l 1,21,-1
 294.24 -318 l 1,0,-1
EndSplineSet
EndChar
StartChar: uni0288
Encoding: 648 648 648
Width: 803
Flags: W
Fore
556.065 1438 m 1,0,-1
 494.252 1120 l 1,1,-1
 873.252 1120 l 1,2,-1
 845.456 977 l 1,3,-1
 466.456 977 l 1,4,-1
 265.661 -56 l 2,5,6
 239.031 -193 239.031 -193 268.45 -232 c 0,7,8
 298.869 -271 298.869 -271 413.869 -271 c 2,9,-1
 602.869 -271 l 1,10,-1
 572.935 -425 l 1,11,-1
 383.935 -425 l 2,12,13
 170.935 -425 170.935 -425 105.291 -346 c 128,-1,14
 39.6465 -267 39.6465 -267 80.6611 -56 c 2,15,-1
 281.456 977 l 1,16,-1
 146.456 977 l 1,17,-1
 174.252 1120 l 1,18,-1
 309.252 1120 l 1,19,-1
 371.065 1438 l 1,20,-1
 556.065 1438 l 1,0,-1
EndSplineSet
EndChar
StartChar: uni0289
Encoding: 649 649 649
Width: 1298
Flags: W
Fore
-18.1748 452 m 1,0,-1
 13.7041 616 l 1,1,-1
 187.704 616 l 1,2,-1
 285.672 1120 l 1,3,-1
 469.672 1120 l 1,4,-1
 371.704 616 l 1,5,-1
 941.704 616 l 1,6,-1
 1039.67 1120 l 1,7,-1
 1223.67 1120 l 1,8,-1
 1125.7 616 l 1,9,-1
 1311.7 616 l 1,10,-1
 1279.83 452 l 1,11,-1
 1093.83 452 l 1,12,-1
 1005.97 0 l 1,13,-1
 821.966 0 l 1,14,-1
 855.399 172 l 1,15,16
 768.574 70.002 768.574 70.002 669.854 20 c 0,17,18
 572.327 -29 572.327 -29 455.328 -29 c 0,19,20
 262.327 -29 262.327 -29 185.654 91 c 0,21,22
 108.98 211.001 108.98 211.001 153.882 442 c 2,23,-1
 155.825 452 l 1,24,-1
 -18.1748 452 l 1,0,-1
908.916 452 m 1,25,-1
 339.825 452 l 1,26,-1
 339.242 449 l 2,27,28
 308.336 290 308.336 290 354.785 210 c 0,29,30
 401.432 131 401.432 131 525.43 131 c 0,31,32
 674.431 131 674.431 131 779.896 226 c 0,33,34
 873.619 311.231 873.619 311.231 908.916 452 c 1,25,-1
EndSplineSet
EndChar
StartChar: uni028A
Encoding: 650 650 650
Width: 1265
Flags: W
TeX: 0 0 0 0
Fore
192.891 956 m 1,0,-1
 224.769 1120 l 1,1,-1
 666.769 1120 l 1,2,-1
 624.005 900 l 1,3,4
 501.593 831 501.593 831 418.183 726 c 0,5,6
 330.606 615 330.606 615 304.365 480 c 0,7,8
 273.459 321 273.459 321 342.604 224 c 128,-1,9
 411.749 127 411.749 127 555.749 127 c 128,-1,10
 699.749 127 699.749 127 806.604 224 c 0,11,12
 913.653 322 913.653 322 944.365 480 c 0,13,14
 972.745 626 972.745 626 926.183 726 c 0,15,16
 876.759 837 876.759 837 789.005 900 c 1,17,-1
 831.769 1120 l 1,18,-1
 1267.77 1120 l 1,19,-1
 1235.89 956 l 1,20,-1
 999.891 956 l 1,21,22
 1094.45 856 1094.45 856 1128.49 743 c 0,23,24
 1161.11 633 1161.11 633 1134.67 497 c 0,25,26
 1088.99 262 1088.99 262 918.611 116 c 128,-1,27
 748.231 -30 748.231 -30 523.231 -30 c 128,-1,28
 298.231 -30 298.231 -30 184.416 115 c 0,29,30
 70.7959 261 70.7959 261 115.114 489 c 0,31,32
 143.688 636 143.688 636 216.487 743 c 0,33,34
 290.675 852 290.675 852 429.891 956 c 1,35,-1
 192.891 956 l 1,0,-1
EndSplineSet
EndChar
StartChar: uni028B
Encoding: 651 651 651
Width: 1225
Flags: W
TeX: 0 0 0 0
Fore
652.806 986 m 0,0,-1
 974.806 986 l 1,1,-1
 974.806 986 l 1,2,3
 1069.37 886 1069.37 886 1103.4 773 c 0,4,5
 1136.02 663 1136.02 663 1109.59 527 c 0,6,7
 1063.91 292 1063.91 292 893.526 146 c 128,-1,8
 723.147 0 723.147 0 498.147 0 c 0,9,-1
 428.147 0 l 2,10,11
 247.147 0 247.147 0 183.808 96 c 0,12,13
 121.468 192 121.468 192 163.065 406 c 2,14,-1
 301.853 1120 l 1,15,-1
 485.853 1120 l 1,16,-1
 347.065 406 l 2,17,18
 317.325 253 317.325 253 345.801 204 c 0,19,20
 376.082 154 376.082 154 479.471 156 c 2,21,-1
 530.665 157 l 0,22,23
 674.665 157 674.665 157 781.52 254 c 0,24,25
 888.569 352 888.569 352 919.281 510 c 0,26,27
 947.66 656 947.66 656 901.099 756 c 0,28,29
 845.229 875 845.229 875 763.921 930 c 16,30,31
 696.474 974 696.474 974 652.806 986 c 0,0,-1
EndSplineSet
EndChar
StartChar: uni028C
Encoding: 652 652 652
Width: 1212
Flags: W
Fore
1042.15 0 m 1,0,-1
 847.147 0 l 1,1,-1
 679.864 940 l 1,2,-1
 147.147 0 l 1,3,-1
 -47.8525 0 l 1,4,-1
 589.853 1120 l 1,5,-1
 839.853 1120 l 1,6,-1
 1042.15 0 l 1,0,-1
EndSplineSet
EndChar
StartChar: uni028D
Encoding: 653 653 653
Width: 1675
Flags: W
Fore
1480.15 0 m 1,0,-1
 1296.15 0 l 1,1,-1
 1236.04 874 l 1,2,-1
 837.147 0 l 1,3,-1
 620.147 0 l 1,4,-1
 560.035 874 l 1,5,-1
 161.147 0 l 1,6,-1
 -22.8525 0 l 1,7,-1
 487.853 1120 l 1,8,-1
 704.853 1120 l 1,9,-1
 767.412 202 l 1,10,-1
 1187.85 1120 l 1,11,-1
 1404.85 1120 l 1,12,-1
 1480.15 0 l 1,0,-1
EndSplineSet
EndChar
StartChar: uni028E
Encoding: 654 654 654
Width: 1212
Flags: W
Fore
640.665 1224 m 1,0,1
 757.542 1424 757.542 1424 843.398 1485 c 128,-1,2
 929.256 1546 929.256 1546 1053.26 1546 c 2,3,-1
 1200.26 1546 l 1,4,-1
 1170.32 1392 l 1,5,-1
 1062.32 1392 l 2,6,7
 986.321 1392 986.321 1392 937.323 1356 c 128,-1,8
 888.326 1320 888.326 1320 811.279 1186 c 1,9,-1
 761.951 1102 l 1,10,-1
 1000.74 0 l 1,11,-1
 805.744 0 l 1,12,-1
 626.021 876 l 1,13,-1
 105.744 0 l 1,14,-1
 -89.2559 0 l 1,15,-1
 640.665 1224 l 1,0,1
EndSplineSet
EndChar
StartChar: uni028F
Encoding: 655 655 655
Width: 1251
Flags: W
TeX: 0 0 0 0
Fore
213.672 1149 m 1,0,-1
 430.672 1149 l 1,1,-1
 635.034 693 l 1,2,-1
 1025.67 1149 l 1,3,-1
 1242.67 1149 l 1,4,-1
 702.378 525 l 1,5,-1
 600.328 0 l 1,6,-1
 397.328 0 l 1,7,-1
 499.378 525 l 1,8,-1
 213.672 1149 l 1,0,-1
EndSplineSet
EndChar
StartChar: uni0290
Encoding: 656 656 656
Width: 1075
Flags: W
TeX: 0 0 0 0
Fore
263.256 1120 m 1,0,-1
 1137.26 1120 l 1,1,-1
 1104.6 952 l 1,2,-1
 256.124 147 l 1,3,-1
 948.124 147 l 1,4,-1
 919.55 0 l 1,5,-1
 917.55 -0 l 1,6,-1
 913.662 -20 l 2,7,8
 883.922 -173.002 883.922 -173.002 912.397 -222 c 0,9,10
 941.067 -270 941.067 -270 1046.07 -270 c 2,11,-1
 1095.07 -270 l 1,12,-1
 1064.74 -426 l 1,13,-1
 994.744 -426 l 2,14,15
 813.744 -426 813.744 -426 751.404 -330 c 0,16,17
 688.065 -233.999 688.065 -233.999 729.662 -20 c 2,18,-1
 733.55 0 l 1,19,-1
 20.5498 0 l 1,20,-1
 53.2061 168 l 1,21,-1
 901.682 973 l 1,22,-1
 234.682 973 l 1,23,-1
 263.256 1120 l 1,0,-1
EndSplineSet
EndChar
StartChar: uni0291
Encoding: 657 657 657
Width: 1075
Flags: W
TeX: 0 0 0 0
Fore
505.261 0 m 1,0,-1
 545.936 0 l 2,1,2
 879.935 0 879.935 0 915.673 189 c 0,3,4
 962.491 435 962.491 435 735.49 435 c 0,5,6
 516.155 435 516.155 435 400.137 147 c 1,7,-1
 225.509 147 l 1,8,-1
 1073.99 952 l 1,9,-1
 1106.64 1120 l 1,10,-1
 232.641 1120 l 1,11,-1
 204.067 973 l 1,12,-1
 871.067 973 l 1,13,-1
 22.5908 168 l 1,14,-1
 -10.0645 0 l 1,15,-1
 352.42 -0 l 1,16,17
 338.76 -52.3496 338.76 -52.3496 327.359 -111 c 1,18,-1
 480.359 -111 l 1,19,20
 492.014 -51.04 492.014 -51.04 505.261 0 c 1,0,-1
554.565 147 m 1,21,22
 618.014 290.209 618.014 290.209 706.694 292 c 0,23,24
 776.694 292 776.694 292 759.006 201 c 0,25,26
 748.509 147 748.509 147 574.509 147 c 2,27,-1
 554.565 147 l 1,21,22
EndSplineSet
EndChar
StartChar: uni0292
Encoding: 658 658 658
Width: 1183
Flags: W
TeX: 0 0 0 0
Fore
598.047 476 m 1,0,-1
 1101.57 952 l 1,1,-1
 1134.23 1120 l 1,2,-1
 260.228 1120 l 1,3,-1
 231.654 973 l 1,4,-1
 898.654 973 l 1,5,-1
 371.658 474 l 1,6,-1
 339.391 308 l 1,7,-1
 513.391 308 l 2,8,9
 678.391 308 678.391 308 757.007 234 c 0,10,11
 834.429 159 834.429 159 808.771 27 c 0,12,13
 780.974 -116 780.974 -116 666.396 -191 c 0,14,15
 552.816 -266 552.816 -266 362.816 -266 c 0,16,17
 253.816 -266 253.816 -266 158.677 -241 c 128,-1,18
 63.5361 -216 63.5361 -216 -10.9395 -167 c 1,19,-1
 -48.8438 -362 l 1,20,21
 49.9639 -399 49.9639 -399 146.271 -418 c 0,22,23
 241.772 -436 241.772 -436 335.772 -436 c 0,24,25
 615.772 -436 615.772 -436 791.292 -315 c 128,-1,26
 966.812 -194 966.812 -194 1009.77 27 c 0,27,28
 1036.59 165 1036.59 165 975.811 269 c 0,29,30
 910.998 378 910.998 378 821.162 420 c 0,31,32
 704.047 476 704.047 476 598.047 476 c 1,0,-1
EndSplineSet
EndChar
StartChar: uni0293
Encoding: 659 659 659
Width: 1183
Flags: W
TeX: 0 0 0 0
Fore
335.772 -436 m 0,0,1
 1.27246 -436 1.27246 -436 39.5098 -247 c 0,2,3
 89.7021 3.5 89.7021 3.5 387.327 -1 c 0,4,5
 632.905 -5.48047 632.905 -5.48047 779.082 -64 c 1,6,7
 799.245 -22 799.245 -22 808.771 27 c 0,8,9
 834.642 160.098 834.642 160.098 757.007 234 c 0,10,11
 677.758 308 677.758 308 513.391 308 c 2,12,-1
 339.391 308 l 1,13,-1
 371.658 474 l 1,14,-1
 898.654 973 l 1,15,-1
 231.654 973 l 1,16,-1
 260.228 1120 l 1,17,-1
 1134.23 1120 l 1,18,-1
 1101.57 952 l 1,19,-1
 598.047 476 l 1,20,21
 703.398 476 703.398 476 821.162 420 c 0,22,23
 912.417 377.098 912.417 377.098 975.811 269 c 0,24,25
 1036.69 165.5 1036.69 165.5 1009.77 27 c 0,26,27
 987.902 -85.5 987.902 -85.5 932.283 -171 c 1,28,29
 1012.55 -272.493 1012.55 -272.493 980.772 -436 c 1,30,-1
 827.772 -436 l 1,31,32
 843.653 -354.296 843.653 -354.296 814.597 -298 c 1,33,34
 791.292 -315 l 2,35,36
 616.896 -436 616.896 -436 335.772 -436 c 0,0,1
674.367 -186 m 1,37,38
 558.031 -144 558.031 -144 360.531 -144 c 0,39,40
 230.031 -144 230.031 -144 213.953 -219 c 0,41,42
 204.816 -266 204.816 -266 362.816 -266 c 0,43,44
 552.816 -266 552.816 -266 666.396 -191 c 2,45,-1
 674.367 -186 l 1,37,38
EndSplineSet
EndChar
StartChar: uni0294
Encoding: 660 660 660
Width: 1045
Flags: W
Fore
344.082 798 m 9,0,-1
 407.082 798 l 1,1,2
 599.082 798 599.082 798 707.241 912 c 0,3,4
 780.015 988 780.015 988 799.063 1086 c 0,5,6
 823.916 1219 823.916 1219 779.551 1284 c 0,7,8
 702.71 1398 702.71 1398 523.71 1398 c 0,9,10
 443.71 1398 443.71 1398 360.434 1376 c 0,11,12
 278.352 1355 278.352 1355 191.993 1312 c 1,13,-1
 225.427 1484 l 1,14,15
 308.23 1519 308.23 1519 392.534 1536 c 0,16,17
 477.033 1554 477.033 1554 562.033 1554 c 0,18,19
 837.033 1554 837.033 1554 944.516 1397 c 0,20,21
 1029.22 1272 1029.22 1272 993.063 1086 c 0,22,23
 960.019 916 960.019 916 829.665 801 c 0,24,25
 694.534 682 694.534 682 518.702 652 c 1,26,-1
 391.967 0 l 1,27,-1
 189.967 0 l 1,28,-1
 344.082 798 l 9,0,-1
EndSplineSet
EndChar
StartChar: uni0295
Encoding: 661 661 661
Width: 1045
Flags: W
Fore
684.082 798 m 17,0,-1
 528.967 0 l 1,1,-1
 326.967 0 l 1,2,-1
 453.702 652 l 1,3,4
 289.534 682 289.534 682 200.665 801 c 0,5,6
 115.019 916 115.019 916 148.063 1086 c 0,7,8
 184.218 1272 184.218 1272 318.516 1397 c 0,9,10
 486.033 1554 486.033 1554 761.033 1554 c 0,11,12
 846.033 1554 846.033 1554 923.534 1536 c 0,13,14
 1001.23 1519 1001.23 1519 1070.43 1484 c 1,15,-1
 1036.99 1312 l 1,16,17
 967.352 1355 967.352 1355 892.434 1376 c 0,18,19
 818.71 1398 818.71 1398 738.71 1398 c 0,20,21
 559.71 1398 559.71 1398 438.551 1284 c 0,22,23
 368.916 1219 368.916 1219 342.063 1086 c 0,24,25
 323.015 988 323.015 988 366.241 912 c 0,26,27
 430.082 798 430.082 798 622.082 798 c 1,28,-1
 684.082 798 l 17,0,-1
EndSplineSet
EndChar
StartChar: uni0296
Encoding: 662 662 662
Width: 1045
Flags: W
Fore
335.918 756 m 17,0,-1
 492.033 1554 l 1,1,-1
 694.033 1554 l 1,2,-1
 567.298 902 l 1,3,4
 731.466 872 731.466 872 820.335 753 c 0,5,6
 905.981 638 905.981 638 872.937 468 c 0,7,8
 836.782 282 836.782 282 703.484 157 c 0,9,10
 534.967 0 534.967 0 259.967 0 c 0,11,12
 174.967 0 174.967 0 97.4658 18 c 0,13,14
 19.7695 35 19.7695 35 -49.4268 70 c 1,15,-1
 -15.9932 242 l 1,16,17
 53.6484 199 53.6484 199 127.566 178 c 0,18,19
 202.29 156 202.29 156 282.29 156 c 0,20,21
 461.29 156 461.29 156 582.449 270 c 0,22,23
 652.084 335 652.084 335 678.937 468 c 0,24,25
 697.985 566 697.985 566 654.759 642 c 0,26,27
 590.918 756 590.918 756 398.918 756 c 1,28,-1
 335.918 756 l 17,0,-1
EndSplineSet
EndChar
StartChar: uni0297
Encoding: 663 663 663
Width: 1045
VWidth: 1622
Flags: W
TeX: 0 0 0 0
Fore
190.633 1088 m 17,0,1
 226.787 1274 226.787 1274 361.085 1399 c 0,2,3
 528.603 1556 528.603 1556 803.603 1556 c 0,4,5
 888.603 1556 888.603 1556 966.104 1538 c 0,6,7
 1043.8 1521 1043.8 1521 1113 1486 c 1,8,-1
 1079.56 1314 l 1,9,10
 1009.92 1357 1009.92 1357 935.003 1378 c 0,11,12
 861.279 1400 861.279 1400 781.279 1400 c 0,13,14
 602.279 1400 602.279 1400 481.12 1286 c 0,15,16
 411.485 1221 411.485 1221 384.633 1088 c 1,17,-1
 179.367 32 l 17,18,19
 154.515 -101 154.515 -101 198.88 -166 c 0,20,21
 275.721 -280 275.721 -280 454.721 -280 c 0,22,23
 534.721 -280 534.721 -280 616.997 -258 c 0,24,25
 700.079 -237 700.079 -237 786.438 -194 c 1,26,-1
 753.004 -366 l 1,27,28
 670.2 -401 670.2 -401 585.896 -418 c 0,29,30
 501.397 -436 501.397 -436 416.397 -436 c 0,31,32
 141.397 -436 141.397 -436 34.915 -279 c 0,33,34
 -50.7871 -154 -50.7871 -154 -14.6328 32 c 1,35,-1
 190.633 1088 l 17,0,1
EndSplineSet
EndChar
StartChar: uni0298
Encoding: 664 664 664
Width: 1234
Flags: W
Fore
276.208 566 m 0,0,1
 248.801 425 248.801 425 330.557 326 c 0,2,3
 411.313 227 411.313 227 552.313 227 c 128,-1,4
 693.313 227 693.313 227 811.557 326 c 128,-1,5
 929.801 425 929.801 425 957.208 566 c 0,6,7
 984.033 704 984.033 704 903.859 806 c 0,8,9
 822.687 908 822.687 908 684.687 908 c 0,10,11
 543.687 908 543.687 908 423.859 806 c 0,12,13
 303.033 704 303.033 704 276.208 566 c 0,0,1
94.4531 565.2 m 0,14,15
 135.584 776.8 135.584 776.8 320.545 933.2 c 0,16,17
 504.586 1089.6 504.586 1089.6 720.786 1089.6 c 0,18,19
 932.386 1089.6 932.386 1089.6 1056.54 933.2 c 0,20,21
 1179.78 776.8 1179.78 776.8 1138.65 565.2 c 0,22,23
 1096.63 349 1096.63 349 915.321 197.2 c 128,-1,24
 734.014 45.4004 734.014 45.4004 517.814 45.4004 c 128,-1,25
 301.614 45.4004 301.614 45.4004 177.48 197.2 c 0,26,27
 52.4287 349 52.4287 349 94.4531 565.2 c 0,14,15
503.402 567 m 0,28,29
 512.344 613 512.344 613 552.953 647 c 0,30,31
 592.562 681 592.562 681 639.562 681 c 0,32,33
 685.562 681 685.562 681 712.953 647 c 0,34,35
 739.344 613 739.344 613 730.402 567 c 0,36,37
 721.267 520 721.267 520 681.853 487 c 128,-1,38
 642.438 454 642.438 454 595.438 454 c 128,-1,39
 548.438 454 548.438 454 521.853 487 c 0,40,41
 494.267 520 494.267 520 503.402 567 c 0,28,29
EndSplineSet
EndChar
StartChar: uni0299
Encoding: 665 665 665
Width: 1187
Flags: W
Fore
372.35 530 m 1,0,-1
 302.373 170 l 1,1,-1
 523.373 170 l 2,2,3
 616.373 170 616.373 170 672.286 221 c 0,4,5
 731.783 275 731.783 275 744.029 338 c 0,6,7
 761.912 430 761.912 430 727.437 479 c 0,8,9
 691.35 530 691.35 530 597.35 530 c 2,10,-1
 372.35 530 l 1,0,-1
458.821 980 m 1,11,-1
 405.395 700 l 1,12,-1
 615.395 700 l 2,13,14
 700.395 700 700.395 700 750.753 743 c 0,15,16
 800.917 785 800.917 785 813.163 848 c 0,17,18
 822.104 894 822.104 894 788.463 937 c 128,-1,19
 754.821 980 754.821 980 668.821 980 c 2,20,-1
 458.821 980 l 1,11,-1
290.672 1149 m 1,21,-1
 687.672 1149 l 2,22,23
 865.672 1149 865.672 1149 947.287 1075 c 128,-1,24
 1028.9 1001 1028.9 1001 1002.47 865 c 0,25,26
 982.058 760 982.058 760 920.812 697 c 0,27,28
 859.76 635 859.76 635 760.845 620 c 1,29,30
 870.984 595 870.984 595 919.823 517 c 0,31,32
 967.661 439 967.661 439 944.919 322 c 0,33,34
 914.984 168 914.984 168 793.656 84 c 0,35,36
 673.328 0 673.328 0 480.328 0 c 2,37,-1
 67.3281 0 l 1,38,-1
 290.672 1149 l 1,21,-1
EndSplineSet
EndChar
StartChar: uni029A
Encoding: 666 666 666
Width: 1396
Flags: W
TeX: 0 0 0 0
Fore
713.075 984 m 0,0,1
 559.075 984 559.075 984 472.579 930 c 0,2,3
 375.722 869 375.722 869 360.755 792 c 128,-1,4
 345.787 715 345.787 715 414.097 660 c 0,5,6
 451.265 630 451.265 630 636.265 630 c 2,7,-1
 818.265 630 l 1,8,-1
 787.747 473 l 17,9,-1
 605.747 473 l 2,10,11
 420.747 473 420.747 473 371.916 443 c 0,12,13
 282.419 389 282.419 389 267.258 311 c 0,14,15
 252.873 237 252.873 237 325.434 173 c 0,16,17
 387.937 119 387.937 119 544.937 119 c 0,18,19
 997.131 120 997.131 120 1084.82 566 c 1,20,21
 1165.08 984 1165.08 984 713.075 984 c 0,0,1
1028.43 1099 m 0,22,23
 1366.08 948 1366.08 948 1289.88 556 c 0,24,25
 1223.01 212 1223.01 212 818.304 18 c 0,26,27
 691.253 -44 691.253 -44 495.642 -42 c 0,28,29
 265.642 -42 265.642 -42 148.553 45 c 0,30,31
 31.2695 131 31.2695 131 60.0371 279 c 0,32,33
 80.0586 382 80.0586 382 164.859 453 c 128,-1,34
 249.66 524 249.66 524 386.104 552 c 1,35,36
 260.352 579 260.352 579 203.152 650 c 128,-1,37
 145.953 721 145.953 721 165.975 824 c 0,38,39
 194.743 972 194.743 972 345.654 1059 c 0,40,41
 496.371 1145 496.371 1145 726.371 1145 c 0,42,43
 926.371 1145 926.371 1145 1028.43 1099 c 0,22,23
EndSplineSet
EndChar
StartChar: uni029B
Encoding: 667 667 667
Width: 1450
Flags: W
TeX: 0 0 0 0
Fore
820.566 178 m 1,0,-1
 875.382 460 l 1,1,-1
 720.382 460 l 1,2,-1
 747.595 600 l 1,3,-1
 1068.59 600 l 1,4,-1
 965.962 72 l 1,5,6
 887.256 37.5 887.256 37.5 796.466 18 c 0,7,8
 714.967 0 714.967 0 512.967 0 c 0,9,10
 259.467 0 259.467 0 141.873 159 c 0,11,12
 23.8838 318.535 23.8838 318.535 76.2617 588 c 0,13,14
 129.526 862.02 129.526 862.02 311.04 1019 c 0,15,16
 491.082 1176 491.082 1176 753.558 1176 c 0,17,18
 816.058 1176 816.058 1176 916.059 1158 c 0,19,20
 946.893 1152 946.893 1152 962.921 1147 c 1,21,-1
 963.115 1148 l 2,22,23
 1004.83 1362.58 1004.83 1362.58 1105.37 1458 c 0,24,25
 1205.03 1554 1205.03 1554 1386.03 1554 c 2,26,-1
 1640.03 1554 l 1,27,-1
 1609.71 1398 l 1,28,-1
 1376.71 1398 l 2,29,30
 1271.21 1398 1271.21 1398 1224.38 1350 c 0,31,32
 1176.63 1299.84 1176.63 1299.84 1147.12 1148 c 2,33,-1
 1118.35 1000 l 1,34,-1
 1116.35 1000 l 1,35,-1
 1095.74 894 l 1,36,37
 989.502 971.308 989.502 971.308 884.958 998 c 0,38,39
 804.167 1020 804.167 1020 731.234 1020 c 0,40,41
 552.234 1020 552.234 1020 431.075 906 c 0,42,43
 310.207 793.5 310.207 793.5 270.262 588 c 0,44,45
 230.317 382.5 230.317 382.5 307.449 270 c 0,46,47
 384.29 156 384.29 156 563.29 156 c 0,48,49
 738.557 156 738.557 156 820.566 178 c 1,0,-1
EndSplineSet
EndChar
StartChar: uni029C
Encoding: 668 668 668
Width: 1298
Flags: W
Fore
290.478 1147 m 1,0,-1
 492.478 1147 l 1,1,-1
 405.589 700 l 1,2,-1
 946.589 700 l 1,3,-1
 1033.48 1147 l 1,4,-1
 1235.48 1147 l 1,5,-1
 1012.52 0 l 1,6,-1
 810.522 0 l 1,7,-1
 913.545 530 l 1,8,-1
 372.545 530 l 1,9,-1
 269.522 0 l 1,10,-1
 67.5225 0 l 1,11,-1
 290.478 1147 l 1,0,-1
EndSplineSet
EndChar
StartChar: uni029D
Encoding: 669 669 669
Width: 750
Flags: W
TeX: 0 0 0 0
Fore
385.631 1556 m 1,0,-1
 569.631 1556 l 1,1,-1
 524.34 1323 l 1,2,-1
 340.34 1323 l 1,3,-1
 385.631 1556 l 1,0,-1
-159.631 -426 m 0,4,5
 21.6768 -425.707 21.6768 -425.707 121.529 -330 c 0,6,7
 186.834 -267.409 186.834 -267.409 227.243 -154.657 c 1,8,-1
 418.046 -155 l 1,9,-1
 448.175 0 l 1,10,-1
 267.175 -0 l 1,11,-1
 484.881 1120 l 1,12,-1
 300.881 1120 l 1,13,-1
 83.1748 0 l 1,14,-1
 -109.825 0 l 2,15,16
 -379.825 0 -379.825 0 -419.673 -205 c 0,17,18
 -462.631 -426 -462.631 -426 -159.631 -426 c 0,4,5
42.1904 -154.325 m 1,19,20
 24.0449 -199.079 24.0449 -199.079 2.12012 -221.5 c 0,21,22
 -45.3076 -270 -45.3076 -270 -150.308 -270 c 0,23,24
 -273.736 -270 -273.736 -270 -264.673 -205 c 0,25,26
 -257.513 -153.786 -257.513 -153.786 -138.76 -154 c 2,27,-1
 42.1904 -154.325 l 1,19,20
EndSplineSet
EndChar
StartChar: uni029E
Encoding: 670 670 670
Width: 1366
Flags: W
Fore
1028.77 -436 m 1,0,-1
 843.772 -436 l 1,1,-1
 1022.41 483 l 1,2,-1
 379.521 0 l 1,3,-1
 144.521 0 l 1,4,-1
 840.377 524 l 1,5,-1
 337.228 1120 l 1,6,-1
 577.228 1120 l 1,7,-1
 1039.9 573 l 1,8,-1
 1146.23 1120 l 1,9,-1
 1331.23 1120 l 1,10,-1
 1028.77 -436 l 1,0,-1
EndSplineSet
EndChar
StartChar: uni029F
Encoding: 671 671 671
Width: 1194
Flags: W
Fore
290.478 1147 m 1,0,-1
 492.478 1147 l 1,1,-1
 302.567 170 l 1,2,-1
 941.567 170 l 1,3,-1
 908.522 0 l 1,4,-1
 67.5225 0 l 1,5,-1
 290.478 1147 l 1,0,-1
EndSplineSet
EndChar
StartChar: uni02A0
Encoding: 672 672 672
Width: 1489
Flags: W
TeX: 0 0 0 0
Fore
853.025 168 m 1,0,1
 775.589 68.001 775.589 68.001 678.257 20 c 0,2,3
 579.729 -29 579.729 -29 455.732 -29 c 0,4,5
 252.733 -29 252.733 -29 156.222 133 c 0,6,7
 60.7119 295.001 60.7119 295.001 112.028 559 c 0,8,9
 163.345 822.999 163.345 822.999 321.834 985 c 0,10,11
 481.325 1147 481.325 1147 684.323 1147 c 0,12,13
 808.32 1147 808.32 1147 887.799 1098 c 0,14,15
 966.47 1050 966.47 1050 1005.03 950 c 1,16,-1
 1014.75 1000 l 1,17,-1
 1038.08 1120 l 1,18,-1
 1043.52 1148 l 2,19,20
 1085.12 1362 1085.12 1362 1185.78 1458 c 0,21,22
 1285.44 1554 1285.44 1554 1466.44 1554 c 2,23,-1
 1720.44 1554 l 1,24,-1
 1690.11 1398 l 1,25,-1
 1457.11 1398 l 2,26,27
 1352.11 1398 1352.11 1398 1304.78 1350 c 0,28,29
 1257.26 1301 1257.26 1301 1227.52 1148 c 2,30,-1
 1222.08 1120 l 1,31,-1
 1198.75 1000 l 1,32,-1
 921.563 -426 l 1,33,-1
 737.563 -426 l 1,34,-1
 853.025 168 l 1,0,1
302.028 559 m 0,35,36
 262.569 356 262.569 356 323.021 240 c 0,37,38
 384.668 125 384.668 125 530.667 125 c 0,39,40
 676.666 125 676.666 125 783.021 240 c 0,41,42
 889.569 356.001 889.569 356.001 929.028 559 c 0,43,44
 968.487 761.999 968.487 761.999 907.035 878 c 0,45,46
 845.388 993 845.388 993 699.389 993 c 0,47,48
 553.391 993 553.391 993 447.035 878 c 0,49,50
 341.487 762 341.487 762 302.028 559 c 0,35,36
EndSplineSet
EndChar
StartChar: uni02A1
Encoding: 673 673 673
Width: 1045
Flags: W
Fore
344.082 798 m 1,0,-1
 407.082 798 l 2,1,2
 599.081 798 599.081 798 707.241 912 c 0,3,4
 780.015 988 780.015 988 799.063 1086 c 0,5,6
 823.917 1219 823.917 1219 779.551 1284 c 0,7,8
 702.71 1398 702.71 1398 523.71 1398 c 0,9,10
 443.713 1398 443.713 1398 360.434 1376 c 0,11,12
 278.354 1355 278.354 1355 191.993 1312 c 1,13,-1
 225.427 1484 l 1,14,15
 308.22 1519 308.22 1519 392.534 1536 c 0,16,17
 477.033 1554 477.033 1554 562.033 1554 c 0,18,19
 837.032 1554 837.032 1554 944.516 1397 c 0,20,21
 1029.22 1272 1029.22 1272 993.063 1086 c 0,22,23
 960.019 915.999 960.019 915.999 829.665 801 c 0,24,25
 694.536 682 694.536 682 518.702 652 c 1,26,-1
 477.494 440 l 1,27,-1
 708.494 440 l 1,28,-1
 676.615 276 l 1,29,-1
 445.615 276 l 1,30,-1
 391.967 0 l 1,31,-1
 189.967 0 l 1,32,-1
 243.27 276 l 1,33,-1
 14.6152 276 l 1,34,-1
 46.4941 440 l 1,35,-1
 274.942 440 l 1,36,-1
 344.082 798 l 1,0,-1
EndSplineSet
EndChar
StartChar: uni02A2
Encoding: 674 674 674
Width: 1045
Flags: W
Fore
412.494 440 m 1,0,-1
 453.702 652 l 1,1,2
 289.532 682 289.532 682 200.665 801 c 0,3,4
 115.019 915.999 115.019 915.999 148.063 1086 c 0,5,6
 184.218 1272 184.218 1272 318.516 1397 c 0,7,8
 486.035 1554 486.035 1554 761.033 1554 c 0,9,10
 846.033 1554 846.033 1554 923.534 1536 c 0,11,12
 1001.24 1519 1001.24 1519 1070.43 1484 c 1,13,-1
 1036.99 1312 l 1,14,15
 967.349 1355 967.349 1355 892.434 1376 c 0,16,17
 818.707 1398 818.707 1398 738.71 1398 c 0,18,19
 559.71 1398 559.71 1398 438.551 1284 c 0,20,21
 368.915 1219 368.915 1219 342.063 1086 c 0,22,23
 323.015 988 323.015 988 366.241 912 c 0,24,25
 430.083 798 430.083 798 622.082 798 c 2,26,-1
 684.082 798 l 1,27,-1
 614.494 440 l 1,28,-1
 843.494 440 l 1,29,-1
 811.615 276 l 1,30,-1
 582.615 276 l 1,31,-1
 528.967 0 l 1,32,-1
 326.967 0 l 1,33,-1
 380.615 276 l 1,34,-1
 149.615 276 l 1,35,-1
 181.494 440 l 1,36,-1
 412.494 440 l 1,0,-1
EndSplineSet
EndChar
StartChar: uni02A3
Encoding: 675 675 675
Width: 2077
Flags: W
TeX: 0 0 0 0
Fore
263.249 559 m 0,0,1
 223.79 356 223.79 356 284.242 240 c 0,2,3
 345.888 125 345.888 125 491.888 125 c 0,4,5
 637.888 125 637.888 125 744.242 240 c 0,6,7
 850.79 356 850.79 356 890.249 559 c 0,8,9
 929.708 762 929.708 762 868.257 878 c 0,10,11
 806.61 993 806.61 993 660.61 993 c 0,12,13
 514.61 993 514.61 993 408.257 878 c 0,14,15
 302.708 762 302.708 762 263.249 559 c 0,0,1
966.252 950 m 1,16,-1
 1084.05 1556 l 1,17,-1
 1268.05 1556 l 1,18,-1
 1183.3 1120 l 1,19,-1
 2056.3 1120 l 1,20,-1
 2023.64 952 l 1,21,-1
 1175.16 147 l 1,22,-1
 1867.16 147 l 1,23,-1
 1838.59 0 l 1,24,-1
 965.591 0 l 1,25,-1
 939.591 0 l 1,26,-1
 781.591 0 l 1,27,-1
 814.246 168 l 1,28,29
 736.809 68 736.809 68 639.479 20 c 0,30,31
 540.953 -29 540.953 -29 416.953 -29 c 0,32,33
 213.953 -29 213.953 -29 117.443 133 c 0,34,35
 21.9326 295 21.9326 295 73.249 559 c 0,36,37
 124.565 823 124.565 823 283.056 985 c 0,38,39
 442.545 1147 442.545 1147 645.545 1147 c 0,40,41
 769.545 1147 769.545 1147 849.021 1098 c 0,42,43
 927.69 1050 927.69 1050 966.252 950 c 1,16,-1
1154.72 973 m 1,44,-1
 1004.08 198 l 1,45,-1
 1820.72 973 l 1,46,-1
 1154.72 973 l 1,44,-1
EndSplineSet
EndChar
StartChar: uni02A4
Encoding: 676 676 676
Width: 2166
Flags: W
TeX: 0 0 0 0
Fore
1194.28 973 m 1,0,-1
 1005.15 0 l 1,1,-1
 821.147 0 l 1,2,-1
 853.803 168 l 1,3,4
 776.366 68.002 776.366 68.002 678.438 19.5 c 0,5,6
 580.512 -29 580.512 -29 456.51 -29 c 0,7,8
 253.51 -29 253.51 -29 157.5 133 c 0,9,10
 61.4893 295 61.4893 295 112.806 559 c 0,11,12
 164.122 823 164.122 823 323.111 985 c 0,13,14
 482.102 1147 482.102 1147 685.102 1147 c 0,15,16
 809.104 1147 809.104 1147 888.174 1098.5 c 0,17,18
 967.247 1050 967.247 1050 1005.81 950 c 1,19,-1
 1123.6 1556 l 1,20,-1
 1307.6 1556 l 1,21,-1
 1222.85 1120 l 1,22,-1
 2096.85 1120 l 1,23,-1
 2064.2 952 l 1,24,-1
 1560.67 476 l 1,25,26
 1666.67 476 1666.67 476 1783.79 420 c 0,27,28
 1873.63 377.996 1873.63 377.996 1938.44 269 c 0,29,30
 1999.22 165.002 1999.22 165.002 1972.4 27 c 0,31,32
 1929.44 -193.996 1929.44 -193.996 1753.92 -315 c 0,33,34
 1578.4 -436 1578.4 -436 1298.4 -436 c 0,35,36
 1204.4 -436 1204.4 -436 1108.9 -418 c 0,37,38
 1012.57 -398.995 1012.57 -398.995 913.781 -362 c 1,39,-1
 951.686 -167 l 1,40,41
 1026.15 -215.996 1026.15 -215.996 1121.3 -241 c 0,42,43
 1216.43 -266 1216.43 -266 1325.44 -266 c 0,44,45
 1515.44 -266 1515.44 -266 1629.02 -191 c 0,46,47
 1743.6 -116.001 1743.6 -116.001 1771.4 27 c 0,48,49
 1797.05 158.998 1797.05 158.998 1719.63 234 c 0,50,51
 1641.02 308 1641.02 308 1476.02 308 c 2,52,-1
 1302.02 308 l 1,53,-1
 1334.28 474 l 1,54,-1
 1861.28 973 l 1,55,-1
 1194.28 973 l 1,0,-1
302.806 559 m 0,56,57
 263.347 356.001 263.347 356.001 324.396 240.5 c 0,58,59
 385.443 125 385.443 125 531.444 125 c 0,60,61
 677.444 125 677.444 125 783.896 240.5 c 0,62,63
 890.347 356 890.347 356 929.806 559 c 0,64,65
 969.265 762 969.265 762 907.716 877.5 c 0,66,67
 846.167 993 846.167 993 700.167 993 c 0,68,69
 554.166 993 554.166 993 448.216 877.5 c 0,70,71
 342.265 761.999 342.265 761.999 302.806 559 c 0,56,57
EndSplineSet
EndChar
StartChar: uni02A5
Encoding: 677 677 677
Width: 2074
Flags: W
TeX: 0 0 0 0
Fore
271.219 559 m 0,0,1
 231.76 356.001 231.76 356.001 292.809 240.5 c 0,2,3
 353.856 125 353.856 125 499.857 125 c 0,4,5
 645.857 125 645.857 125 752.309 240.5 c 128,-1,6
 858.76 356 858.76 356 898.219 559 c 128,-1,7
 937.678 762 937.678 762 876.129 877.5 c 128,-1,8
 814.58 993 814.58 993 668.58 993 c 0,9,10
 522.579 993 522.579 993 416.629 877.5 c 0,11,12
 310.678 761.999 310.678 761.999 271.219 559 c 0,0,1
1162.69 973 m 1,13,-1
 1012.32 199.409 l 1,14,-1
 1827.69 973 l 1,15,-1
 1162.69 973 l 1,13,-1
1191.27 1120 m 1,16,-1
 2063.27 1120 l 1,17,-1
 2030.61 952 l 1,18,-1
 1182.13 147 l 1,19,-1
 1356.76 147 l 1,20,21
 1472.79 435 1472.79 435 1692.12 435 c 0,22,23
 1919.12 435 1919.12 435 1872.3 189 c 0,24,25
 1836.56 0 1836.56 0 1502.56 0 c 2,26,-1
 1461.89 0 l 1,27,28
 1448.64 -51.04 1448.64 -51.04 1436.98 -111 c 1,29,-1
 1283.98 -111 l 1,30,31
 1295.38 -52.3496 1295.38 -52.3496 1309.04 -0 c 1,32,-1
 946.561 0 l 1,33,-1
 789.561 0 l 1,34,-1
 822.216 168 l 1,35,36
 744.779 68.002 744.779 68.002 646.851 19.5 c 0,37,38
 548.925 -29 548.925 -29 424.923 -29 c 0,39,40
 221.923 -29 221.923 -29 125.913 133 c 128,-1,41
 29.9023 295 29.9023 295 81.2188 559 c 128,-1,42
 132.535 823 132.535 823 291.524 985 c 128,-1,43
 450.515 1147 450.515 1147 653.515 1147 c 0,44,45
 777.517 1147 777.517 1147 856.587 1098.5 c 0,46,47
 935.66 1050 935.66 1050 974.222 950 c 1,48,-1
 1092.02 1556 l 1,49,-1
 1276.02 1556 l 1,50,-1
 1191.27 1120 l 1,16,-1
1511.19 147 m 1,51,-1
 1531.13 147 l 2,52,53
 1705.13 147 1705.13 147 1715.63 201 c 0,54,55
 1733.32 292 1733.32 292 1663.32 292 c 0,56,57
 1574.64 290.209 1574.64 290.209 1511.19 147 c 1,51,-1
EndSplineSet
EndChar
StartChar: uni02A6
Encoding: 678 678 678
Width: 1688
Flags: W
TeX: 0 0 0 0
Fore
1614.35 1087 m 1,0,-1
 1580.53 913 l 1,1,2
 1510.3 952.999 1510.3 952.999 1430.19 973 c 0,3,4
 1350.08 993 1350.08 993 1260.08 993 c 0,5,6
 1123.08 993 1123.08 993 1046.42 951 c 0,7,8
 969.751 908.999 969.751 908.999 953.423 825 c 0,9,10
 940.982 761.002 940.982 761.002 982.888 724.5 c 0,11,12
 1024.97 687.842 1024.97 687.842 1166.38 655 c 2,13,-1
 1226.66 641 l 2,14,15
 1416.31 596.956 1416.31 596.956 1482.12 522.5 c 0,16,17
 1549.75 446 1549.75 446 1523.12 309 c 0,18,19
 1492.8 152.998 1492.8 152.998 1351.61 62 c 0,20,21
 1210.42 -29 1210.42 -29 994.422 -29 c 0,22,23
 904.432 -29 904.432 -29 810.323 -11.5 c 0,24,25
 720.592 5.1875 720.592 5.1875 624.404 37.7891 c 1,26,-1
 617.059 0 l 1,27,-1
 428.059 0 l 2,28,29
 215.059 0 215.059 0 149.513 79.5 c 0,30,31
 83.9658 159 83.9658 159 124.785 369 c 2,32,-1
 242.969 977 l 1,33,-1
 107.969 977 l 1,34,-1
 135.765 1120 l 1,35,-1
 270.765 1120 l 1,36,-1
 332.578 1438 l 1,37,-1
 517.578 1438 l 1,38,-1
 455.765 1120 l 1,39,-1
 834.765 1120 l 1,40,-1
 806.969 977 l 1,41,-1
 427.969 977 l 1,42,-1
 309.785 369 l 2,43,44
 283.155 232 283.155 232 313.074 193 c 0,45,46
 342.993 154 342.993 154 457.993 154 c 2,47,-1
 636.993 154 l 1,48,-1
 651.961 231 l 1,49,50
 743.658 177.999 743.658 177.999 837.508 151.5 c 0,51,52
 931.356 125 931.356 125 1028.36 125 c 0,53,54
 1158.36 125 1158.36 125 1237.01 169.5 c 0,55,56
 1315.66 214 1315.66 214 1331.4 295 c 0,57,58
 1345.98 370 1345.98 370 1303.25 410 c 0,59,60
 1265.2 445.63 1265.2 445.63 1096.72 487 c 2,61,-1
 1035.64 502 l 1,62,63
 871.636 538 871.636 538 810.117 612.5 c 0,64,65
 748.599 687 748.599 687 773.868 817 c 0,66,67
 804.579 974.998 804.579 974.998 933.297 1061 c 0,68,69
 1062.01 1147 1062.01 1147 1268.01 1147 c 0,70,71
 1370.01 1147 1370.01 1147 1457.1 1132 c 0,72,73
 1544.18 1117 1544.18 1117 1614.35 1087 c 1,0,-1
EndSplineSet
EndChar
StartChar: uni02A7
Encoding: 679 679 679
Width: 1249
Flags: W
TeX: 0 0 0 0
Fore
544.694 1438 m 1,0,-1
 482.881 1120 l 1,1,-1
 858.895 1120 l 1,2,3
 866.474 1159.06 866.474 1159.06 874.043 1198 c 0,4,5
 909.226 1379 909.226 1379 1013.91 1470 c 0,6,7
 1111.63 1556 1111.63 1556 1306.63 1556 c 2,8,-1
 1480.63 1556 l 1,9,-1
 1450.89 1403 l 1,10,-1
 1274.89 1403 l 2,11,12
 1175.89 1403 1175.89 1403 1130.12 1363 c 0,13,14
 1083.34 1323 1083.34 1323 1063.12 1219 c 1,15,-1
 824.287 -20 l 2,16,17
 783.114 -233.596 783.114 -233.596 683.029 -330 c 0,18,19
 582.37 -426 582.37 -426 401.369 -426 c 2,20,-1
 331.369 -426 l 1,21,-1
 361.692 -270 l 1,22,-1
 410.692 -270 l 2,23,24
 515.691 -270 515.691 -270 563.022 -222 c 0,25,26
 610.547 -173.002 610.547 -173.002 640.287 -20 c 1,27,-1
 644.08 0 l 1,28,-1
 455.175 0 l 2,29,30
 242.175 0 242.175 0 176.628 79.5 c 0,31,32
 111.082 159 111.082 159 151.901 369 c 2,33,-1
 270.085 977 l 1,34,-1
 135.085 977 l 1,35,-1
 162.881 1120 l 1,36,-1
 297.881 1120 l 1,37,-1
 359.694 1438 l 1,38,-1
 544.694 1438 l 1,0,-1
673.329 154 m 1,39,40
 752.903 572.332 752.903 572.332 831.188 977 c 1,41,-1
 455.085 977 l 1,42,-1
 336.901 369 l 2,43,44
 310.271 232 310.271 232 340.19 193 c 0,45,46
 370.109 154 370.109 154 485.109 154 c 2,47,-1
 673.329 154 l 1,39,40
EndSplineSet
EndChar
StartChar: uni02A8
Encoding: 680 680 680
Width: 1594
Flags: W
TeX: 0 0 0 0
Fore
528.755 1438 m 1,0,-1
 466.941 1120 l 1,1,-1
 845.941 1120 l 1,2,-1
 822.263 998.182 l 1,3,4
 1000.11 1147 1000.11 1147 1255.19 1147 c 0,5,6
 1340.18 1147 1340.18 1147 1417.89 1130 c 0,7,8
 1495.38 1112 1495.38 1112 1564.58 1077 c 1,9,-1
 1531.15 905 l 1,10,11
 1461.52 947.995 1461.52 947.995 1386.79 970 c 0,12,13
 1312.87 991 1312.87 991 1232.87 991 c 0,14,15
 1053.87 991 1053.87 991 932.901 878 c 0,16,17
 811.742 764 811.742 764 771.895 559 c 0,18,19
 732.047 354 732.047 354 808.888 240 c 2,20,-1
 815.104 231.286 l 1,21,22
 927.848 402 927.848 402 1133.38 402 c 0,23,24
 1432.38 402 1432.38 402 1385.56 156 c 0,25,26
 1363.13 38.1201 1363.13 38.1201 1253.48 -2.90234 c 0,27,28
 1173.03 -33 1173.03 -33 1015.82 -33 c 0,29,30
 931.861 -33 931.861 -33 862.624 -15.0488 c 1,31,32
 850.678 -64.6035 850.678 -64.6035 835.828 -141 c 1,33,-1
 682.245 -144 l 1,34,35
 697.516 -65.4424 697.516 -65.4424 716.052 -0 c 1,36,-1
 439.236 0 l 2,37,38
 226.236 0 226.236 0 160.689 79.5 c 0,39,40
 95.1426 159 95.1426 159 135.962 369 c 2,41,-1
 254.146 977 l 1,42,-1
 119.146 977 l 1,43,-1
 146.941 1120 l 1,44,-1
 281.941 1120 l 1,45,-1
 343.755 1438 l 1,46,-1
 528.755 1438 l 1,0,-1
920.521 151.427 m 1,47,48
 981.702 127 981.702 127 1064.92 127 c 0,49,50
 1159.66 127 1159.66 127 1181.93 134.369 c 0,51,52
 1215 145.305 1215 145.305 1222 184 c 0,53,54
 1235.58 259 1235.58 259 1104.58 259 c 0,55,56
 990.971 259 990.971 259 933.371 172.677 c 0,57,58
 926.727 162.727 926.727 162.727 920.521 151.427 c 1,47,48
627.272 154 m 1,59,60
 529.592 310.504 529.592 310.504 577.895 559 c 0,61,62
 628.982 821.826 628.982 821.826 798.08 977 c 1,63,-1
 439.146 977 l 1,64,-1
 320.962 369 l 2,65,66
 294.332 232 294.332 232 324.251 193 c 0,67,68
 354.171 154 354.171 154 469.171 154 c 2,69,-1
 627.272 154 l 1,59,60
EndSplineSet
EndChar
